<?xml version="1.0" encoding="UTF-8" standalone="no"?>
<svg
   xmlns:dc="http://purl.org/dc/elements/1.1/"
   xmlns:cc="http://creativecommons.org/ns#"
   xmlns:rdf="http://www.w3.org/1999/02/22-rdf-syntax-ns#"
   xmlns:svg="http://www.w3.org/2000/svg"
   xmlns="http://www.w3.org/2000/svg"
   viewBox="0 0 535 422.5"
   height="422.5"
   width="535"
   xml:space="preserve"
   version="1.1"
   id="svg2"><metadata
     id="metadata8"><rdf:RDF><cc:Work
         rdf:about=""><dc:format>image/svg+xml</dc:format><dc:type
           rdf:resource="http://purl.org/dc/dcmitype/StillImage" /></cc:Work></rdf:RDF></metadata><defs
     id="defs6"><clipPath
       id="clipPath18"
       clipPathUnits="userSpaceOnUse"><path
         id="path20"
         d="m 0,3375 4275,0 L 4275,0 0,0 0,3375 Z" /></clipPath></defs><g
     transform="matrix(1.25,0,0,-1.25,0,422.5)"
     id="g10"><g
       transform="scale(0.1,0.1)"
       id="g12"><g
         id="g14"><g
           clip-path="url(#clipPath18)"
           id="g16"><path
             id="path22"
             style="fill:#ffffff;fill-opacity:1;fill-rule:nonzero;stroke:none"
             d="m 0,0 4275,0 0,3375 L 0,3375 0,0 Z" /></g></g><path
         id="path24"
         style="fill:#ffffff;fill-opacity:1;fill-rule:nonzero;stroke:none"
         d="m 0,0 4275,0 0,3375 L 0,3375 0,0 Z" /><path
         id="path26"
         style="fill:#ffffff;fill-opacity:1;fill-rule:nonzero;stroke:none"
         d="m 555,375 3315,0 0,2745 -3315,0 0,-2745 z" /><path
         id="path28"
         style="fill:none;stroke:#dfdfdf;stroke-width:5.00250006;stroke-linecap:butt;stroke-linejoin:round;stroke-miterlimit:10;stroke-dasharray:none;stroke-opacity:1"
         d="m 791.781,375 0,2745" /><path
         id="path30"
         style="fill:none;stroke:#dfdfdf;stroke-width:5.00250006;stroke-linecap:butt;stroke-linejoin:round;stroke-miterlimit:10;stroke-dasharray:none;stroke-opacity:1"
         d="m 1265.36,375 0,2745" /><path
         id="path32"
         style="fill:none;stroke:#dfdfdf;stroke-width:5.00250006;stroke-linecap:butt;stroke-linejoin:round;stroke-miterlimit:10;stroke-dasharray:none;stroke-opacity:1"
         d="m 1738.93,375 0,2745" /><path
         id="path34"
         style="fill:none;stroke:#dfdfdf;stroke-width:5.00250006;stroke-linecap:butt;stroke-linejoin:round;stroke-miterlimit:10;stroke-dasharray:none;stroke-opacity:1"
         d="m 2212.5,375 0,2745" /><path
         id="path36"
         style="fill:none;stroke:#dfdfdf;stroke-width:5.00250006;stroke-linecap:butt;stroke-linejoin:round;stroke-miterlimit:10;stroke-dasharray:none;stroke-opacity:1"
         d="m 2686.07,375 0,2745" /><path
         id="path38"
         style="fill:none;stroke:#dfdfdf;stroke-width:5.00250006;stroke-linecap:butt;stroke-linejoin:round;stroke-miterlimit:10;stroke-dasharray:none;stroke-opacity:1"
         d="m 3159.64,375 0,2745" /><path
         id="path40"
         style="fill:none;stroke:#dfdfdf;stroke-width:5.00250006;stroke-linecap:butt;stroke-linejoin:round;stroke-miterlimit:10;stroke-dasharray:none;stroke-opacity:1"
         d="m 3633.22,375 0,2745" /><path
         id="path42"
         style="fill:none;stroke:#dfdfdf;stroke-width:5.00250006;stroke-linecap:butt;stroke-linejoin:round;stroke-miterlimit:10;stroke-dasharray:none;stroke-opacity:1"
         d="M 3870,375 555,375" /><path
         id="path44"
         style="fill:none;stroke:#dfdfdf;stroke-width:5.00250006;stroke-linecap:butt;stroke-linejoin:round;stroke-miterlimit:10;stroke-dasharray:none;stroke-opacity:1"
         d="m 3870,767.145 -3315,0" /><path
         id="path46"
         style="fill:none;stroke:#dfdfdf;stroke-width:5.00250006;stroke-linecap:butt;stroke-linejoin:round;stroke-miterlimit:10;stroke-dasharray:none;stroke-opacity:1"
         d="m 3870,1159.28 -3315,0" /><path
         id="path48"
         style="fill:none;stroke:#dfdfdf;stroke-width:5.00250006;stroke-linecap:butt;stroke-linejoin:round;stroke-miterlimit:10;stroke-dasharray:none;stroke-opacity:1"
         d="m 3870,1551.43 -3315,0" /><path
         id="path50"
         style="fill:none;stroke:#dfdfdf;stroke-width:5.00250006;stroke-linecap:butt;stroke-linejoin:round;stroke-miterlimit:10;stroke-dasharray:none;stroke-opacity:1"
         d="m 3870,1943.57 -3315,0" /><path
         id="path52"
         style="fill:none;stroke:#dfdfdf;stroke-width:5.00250006;stroke-linecap:butt;stroke-linejoin:round;stroke-miterlimit:10;stroke-dasharray:none;stroke-opacity:1"
         d="m 3870,2335.72 -3315,0" /><path
         id="path54"
         style="fill:none;stroke:#dfdfdf;stroke-width:5.00250006;stroke-linecap:butt;stroke-linejoin:round;stroke-miterlimit:10;stroke-dasharray:none;stroke-opacity:1"
         d="m 3870,2727.86 -3315,0" /><path
         id="path56"
         style="fill:none;stroke:#dfdfdf;stroke-width:5.00250006;stroke-linecap:butt;stroke-linejoin:round;stroke-miterlimit:10;stroke-dasharray:none;stroke-opacity:1"
         d="m 3870,3120 -3315,0" /><path
         id="path58"
         style="fill:none;stroke:#262626;stroke-width:5.00250006;stroke-linecap:square;stroke-linejoin:round;stroke-miterlimit:10;stroke-dasharray:none;stroke-opacity:1"
         d="m 555,375 3315,0" /><path
         id="path60"
         style="fill:none;stroke:#262626;stroke-width:5.00250006;stroke-linecap:square;stroke-linejoin:round;stroke-miterlimit:10;stroke-dasharray:none;stroke-opacity:1"
         d="m 555,3120 3315,0" /><path
         id="path62"
         style="fill:none;stroke:#262626;stroke-width:5.00250006;stroke-linecap:square;stroke-linejoin:round;stroke-miterlimit:10;stroke-dasharray:none;stroke-opacity:1"
         d="m 791.781,375 0,33.148" /><path
         id="path64"
         style="fill:none;stroke:#262626;stroke-width:5.00250006;stroke-linecap:square;stroke-linejoin:round;stroke-miterlimit:10;stroke-dasharray:none;stroke-opacity:1"
         d="m 1265.36,375 0,33.148" /><path
         id="path66"
         style="fill:none;stroke:#262626;stroke-width:5.00250006;stroke-linecap:square;stroke-linejoin:round;stroke-miterlimit:10;stroke-dasharray:none;stroke-opacity:1"
         d="m 1738.93,375 0,33.148" /><path
         id="path68"
         style="fill:none;stroke:#262626;stroke-width:5.00250006;stroke-linecap:square;stroke-linejoin:round;stroke-miterlimit:10;stroke-dasharray:none;stroke-opacity:1"
         d="m 2212.5,375 0,33.148" /><path
         id="path70"
         style="fill:none;stroke:#262626;stroke-width:5.00250006;stroke-linecap:square;stroke-linejoin:round;stroke-miterlimit:10;stroke-dasharray:none;stroke-opacity:1"
         d="m 2686.07,375 0,33.148" /><path
         id="path72"
         style="fill:none;stroke:#262626;stroke-width:5.00250006;stroke-linecap:square;stroke-linejoin:round;stroke-miterlimit:10;stroke-dasharray:none;stroke-opacity:1"
         d="m 3159.64,375 0,33.148" /><path
         id="path74"
         style="fill:none;stroke:#262626;stroke-width:5.00250006;stroke-linecap:square;stroke-linejoin:round;stroke-miterlimit:10;stroke-dasharray:none;stroke-opacity:1"
         d="m 3633.22,375 0,33.148" /><path
         id="path76"
         style="fill:none;stroke:#262626;stroke-width:5.00250006;stroke-linecap:square;stroke-linejoin:round;stroke-miterlimit:10;stroke-dasharray:none;stroke-opacity:1"
         d="m 791.781,3120 0,-33.15" /><path
         id="path78"
         style="fill:none;stroke:#262626;stroke-width:5.00250006;stroke-linecap:square;stroke-linejoin:round;stroke-miterlimit:10;stroke-dasharray:none;stroke-opacity:1"
         d="m 1265.36,3120 0,-33.15" /><path
         id="path80"
         style="fill:none;stroke:#262626;stroke-width:5.00250006;stroke-linecap:square;stroke-linejoin:round;stroke-miterlimit:10;stroke-dasharray:none;stroke-opacity:1"
         d="m 1738.93,3120 0,-33.15" /><path
         id="path82"
         style="fill:none;stroke:#262626;stroke-width:5.00250006;stroke-linecap:square;stroke-linejoin:round;stroke-miterlimit:10;stroke-dasharray:none;stroke-opacity:1"
         d="m 2212.5,3120 0,-33.15" /><path
         id="path84"
         style="fill:none;stroke:#262626;stroke-width:5.00250006;stroke-linecap:square;stroke-linejoin:round;stroke-miterlimit:10;stroke-dasharray:none;stroke-opacity:1"
         d="m 2686.07,3120 0,-33.15" /><path
         id="path86"
         style="fill:none;stroke:#262626;stroke-width:5.00250006;stroke-linecap:square;stroke-linejoin:round;stroke-miterlimit:10;stroke-dasharray:none;stroke-opacity:1"
         d="m 3159.64,3120 0,-33.15" /><path
         id="path88"
         style="fill:none;stroke:#262626;stroke-width:5.00250006;stroke-linecap:square;stroke-linejoin:round;stroke-miterlimit:10;stroke-dasharray:none;stroke-opacity:1"
         d="m 3633.22,3120 0,-33.15" /><g
         transform="scale(10,10)"
         id="g90"><text
           id="text92"
           style="font-variant:normal;font-weight:normal;font-size:9.99975014px;font-family:Helvetica;-inkscape-font-specification:Helvetica;writing-mode:lr-tb;fill:#262626;fill-opacity:1;fill-rule:nonzero;stroke:none"
           transform="matrix(1,0,0,-1,75.8035,23.75)"><tspan
             id="tspan94"
             y="0"
             x="0 47.357018 94.714432 142.07144 186.42844 191.9883 233.78586 239.34572 281.14288 286.70273">2468101214</tspan></text>
</g><path
         id="path96"
         style="fill:#262626;fill-opacity:1;fill-rule:nonzero;stroke:none"
         d="m 1661.21,105.102 0,3.98 c 7.66,0 11.49,2.188 11.49,6.563 l 0,61.644 c -2.42,0.469 -6.25,0.703 -11.49,0.703 l 0,3.985 21.45,0 c 0.39,0 0.67,-0.157 0.82,-0.469 l 39.84,-58.594 0,48.395 c 0,4.457 -3.86,6.683 -11.59,6.683 l 0,3.985 26.71,0 0,-3.985 c -7.65,0 -11.48,-2.226 -11.48,-6.683 l 0,-65.27 c 0,-0.156 -0.16,-0.351 -0.47,-0.586 -0.31,-0.234 -0.54,-0.351 -0.7,-0.351 l -1.41,0 c -0.39,0 -0.63,0.156 -0.7,0.468 l -47.34,69.489 0,-59.414 c 0,-4.375 3.86,-6.563 11.6,-6.563 l 0,-3.98 -26.73,0" /><path
         id="path98"
         style="fill:#262626;fill-opacity:1;fill-rule:nonzero;stroke:none"
         d="m 1752.38,118.457 0,24.848 c 0,2.031 -0.31,3.496 -0.93,4.394 -0.63,0.895 -1.5,1.442 -2.64,1.637 -1.13,0.199 -2.87,0.297 -5.21,0.297 l 0,3.984 16.99,1.172 0,-36.332 c 0,-2.891 0.21,-5.156 0.64,-6.793 0.43,-1.641 1.33,-2.851 2.7,-3.633 1.37,-0.785 3.53,-1.176 6.51,-1.176 4.06,0 7.28,1.68 9.67,5.04 2.37,3.359 3.57,7.191 3.57,11.488 l 0,19.922 c 0,2.031 -0.32,3.496 -0.94,4.394 -0.63,0.895 -1.51,1.442 -2.63,1.637 -1.14,0.199 -2.88,0.297 -5.23,0.297 l 0,3.984 17,1.172 0,-39.496 c 0,-1.949 0.29,-3.375 0.88,-4.277 0.58,-0.899 1.44,-1.446 2.58,-1.641 1.13,-0.195 2.91,-0.293 5.33,-0.293 l 0,-3.98 -16.64,-1.293 0,9.496 c -1.41,-2.817 -3.36,-5.102 -5.86,-6.856 -2.5,-1.758 -5.24,-2.64 -8.21,-2.64 -5.39,0 -9.66,1.152 -12.83,3.457 -3.17,2.304 -4.75,6.035 -4.75,11.191" /><path
         id="path100"
         style="fill:#262626;fill-opacity:1;fill-rule:nonzero;stroke:none"
         d="m 1804.71,105.102 0,3.98 c 2.5,0 4.59,0.195 6.27,0.586 1.68,0.395 2.52,1.371 2.52,2.934 l 0,30.703 c 0,2.031 -0.31,3.496 -0.94,4.394 -0.62,0.895 -1.5,1.442 -2.63,1.637 -1.14,0.199 -2.88,0.297 -5.22,0.297 l 0,3.984 16.29,1.172 0,-11.019 c 1.48,3.285 3.71,5.941 6.68,7.972 2.97,2.031 6.17,3.047 9.61,3.047 8.67,0 13.75,-3.516 15.23,-10.547 1.49,3.199 3.68,5.758 6.57,7.672 2.89,1.914 6.05,2.875 9.48,2.875 3.45,0 6.32,-0.551 8.62,-1.644 2.31,-1.09 4.04,-2.77 5.21,-5.04 1.17,-2.265 1.76,-5.078 1.76,-8.437 l 0,-27.066 c 0,-1.563 0.84,-2.539 2.52,-2.934 1.68,-0.391 3.77,-0.586 6.27,-0.586 l 0,-3.98 -25.66,0 0,3.98 c 2.5,0 4.59,0.195 6.26,0.586 1.68,0.395 2.52,1.371 2.52,2.934 l 0,26.718 c 0,3.75 -0.54,6.778 -1.63,9.078 -1.1,2.305 -3.28,3.457 -6.56,3.457 -4.3,0 -7.86,-1.738 -10.67,-5.214 -2.81,-3.473 -4.22,-7.399 -4.22,-11.774 l 0,-22.265 c 0,-1.563 0.82,-2.539 2.46,-2.934 1.64,-0.391 3.75,-0.586 6.33,-0.586 l 0,-3.98 -25.78,0 0,3.98 c 2.58,0 4.68,0.195 6.32,0.586 1.64,0.395 2.47,1.371 2.47,2.934 l 0,26.718 c 0,3.672 -0.53,6.68 -1.58,9.024 -1.06,2.34 -3.26,3.511 -6.62,3.511 -4.3,0 -7.86,-1.738 -10.67,-5.214 -2.81,-3.473 -4.22,-7.399 -4.22,-11.774 l 0,-22.265 c 0,-1.563 0.82,-2.539 2.46,-2.934 1.64,-0.391 3.72,-0.586 6.22,-0.586 l 0,-3.98 -25.67,0" /><path
         id="path102"
         style="fill:#262626;fill-opacity:1;fill-rule:nonzero;stroke:none"
         d="m 1901.64,105.102 0,66.562 c 0,2.027 -0.31,3.492 -0.94,4.395 -0.62,0.898 -1.5,1.445 -2.64,1.64 -1.13,0.196 -2.86,0.293 -5.21,0.293 l 0,3.985 16.64,1.168 0,-35.153 c 1.25,1.324 2.7,2.516 4.34,3.571 1.64,1.054 3.42,1.855 5.33,2.406 1.92,0.547 3.89,0.82 5.92,0.82 3.36,0 6.46,-0.668 9.31,-1.996 2.85,-1.324 5.35,-3.18 7.5,-5.566 2.15,-2.379 3.81,-5.133 4.99,-8.258 1.17,-3.125 1.76,-6.328 1.76,-9.614 0,-4.531 -1.12,-8.75 -3.35,-12.652 -2.22,-3.906 -5.25,-7.031 -9.08,-9.375 -3.83,-2.348 -8.01,-3.519 -12.54,-3.519 -2.89,0 -5.66,0.742 -8.32,2.23 -2.65,1.484 -4.88,3.438 -6.68,5.856 l -3.75,-6.793 -3.28,0 z m 8.21,11.015 c 1.25,-2.734 3.04,-4.961 5.38,-6.683 2.35,-1.719 4.93,-2.579 7.74,-2.579 3.91,0 7.05,1.114 9.44,3.344 2.38,2.227 4.05,5.039 5.03,8.438 0.98,3.394 1.47,6.968 1.47,10.718 0,6.329 -0.82,11.133 -2.46,14.415 -0.79,1.484 -1.8,2.851 -3.05,4.101 -1.25,1.25 -2.66,2.231 -4.22,2.934 -1.56,0.699 -3.2,1.05 -4.92,1.05 -2.97,0 -5.74,-0.781 -8.32,-2.339 -2.58,-1.567 -4.61,-3.715 -6.09,-6.446 l 0,-26.953" /><path
         id="path104"
         style="fill:#262626;fill-opacity:1;fill-rule:nonzero;stroke:none"
         d="m 1982.09,103.809 c -4.6,0 -8.8,1.214 -12.59,3.636 -3.79,2.422 -6.78,5.625 -8.97,9.61 -2.18,3.984 -3.28,8.203 -3.28,12.652 0,4.457 1,8.656 2.99,12.602 1.99,3.945 4.77,7.125 8.32,9.546 3.56,2.426 7.53,3.637 11.9,3.637 3.51,0 6.54,-0.566 9.08,-1.703 2.54,-1.129 4.63,-2.73 6.27,-4.801 1.64,-2.07 2.87,-4.492 3.69,-7.265 0.82,-2.778 1.23,-5.844 1.23,-9.203 0,-0.934 -0.35,-1.403 -1.05,-1.403 l -32.59,0 0,-1.289 c 0,-6.172 1.25,-11.504 3.75,-16 2.5,-4.488 6.61,-6.734 12.31,-6.734 2.27,0 4.38,0.527 6.33,1.582 1.95,1.054 3.65,2.48 5.09,4.277 1.45,1.793 2.45,3.746 3,5.856 0.08,0.234 0.22,0.472 0.41,0.707 0.2,0.234 0.41,0.351 0.65,0.351 l 1.05,0 c 0.7,0 1.05,-0.508 1.05,-1.523 -1.02,-4.219 -3.28,-7.696 -6.79,-10.43 -3.52,-2.738 -7.47,-4.105 -11.85,-4.105 z m -14.88,30.121 25.55,0 c 0,2.808 -0.39,5.66 -1.17,8.55 -0.78,2.895 -2.09,5.297 -3.92,7.208 -1.84,1.914 -4.24,2.871 -7.21,2.871 -4.22,0 -7.48,-1.993 -9.79,-5.977 -2.3,-3.984 -3.46,-8.203 -3.46,-12.652" /><path
         id="path106"
         style="fill:#262626;fill-opacity:1;fill-rule:nonzero;stroke:none"
         d="m 2005.91,105.102 0,3.98 c 2.58,0 4.69,0.195 6.33,0.586 1.64,0.395 2.46,1.371 2.46,2.934 l 0,30.703 c 0,2.031 -0.32,3.496 -0.94,4.394 -0.63,0.895 -1.51,1.442 -2.64,1.637 -1.13,0.199 -2.87,0.297 -5.21,0.297 l 0,3.984 16.05,1.172 0,-11.019 c 1.25,3.285 2.99,5.941 5.22,7.972 2.22,2.031 4.94,3.047 8.14,3.047 2.19,0 4.16,-0.668 5.92,-1.996 1.76,-1.324 2.64,-3.043 2.64,-5.152 0,-1.407 -0.49,-2.598 -1.47,-3.578 -0.98,-0.977 -2.17,-1.461 -3.57,-1.461 -1.41,0 -2.6,0.484 -3.58,1.461 -0.97,0.98 -1.46,2.171 -1.46,3.578 0,2.027 0.7,3.433 2.11,4.214 l -0.59,0 c -3.04,0 -5.52,-1.093 -7.44,-3.277 -1.92,-2.191 -3.28,-4.906 -4.1,-8.144 -0.82,-3.243 -1.23,-6.348 -1.23,-9.317 l 0,-18.515 c 0,-2.348 3.63,-3.52 10.9,-3.52 l 0,-3.98 -27.54,0" /><path
         id="path108"
         style="fill:#262626;fill-opacity:1;fill-rule:nonzero;stroke:none"
         d="m 2110.86,103.809 c -4.54,0 -8.72,1.152 -12.55,3.457 -3.83,2.304 -6.85,5.375 -9.08,9.203 -2.22,3.824 -3.34,8.008 -3.34,12.539 0,3.437 0.61,6.758 1.82,9.961 1.21,3.199 2.97,6.051 5.27,8.551 2.31,2.5 4.98,4.457 8.03,5.863 3.04,1.406 6.33,2.109 9.85,2.109 4.6,0 8.8,-1.211 12.59,-3.637 3.79,-2.421 6.78,-5.679 8.97,-9.781 2.18,-4.105 3.28,-8.461 3.28,-13.066 0,-4.453 -1.12,-8.617 -3.34,-12.485 -2.23,-3.867 -5.25,-6.953 -9.09,-9.257 -3.82,-2.305 -7.96,-3.457 -12.41,-3.457 z m 0,3.285 c 6.01,0 10.01,2.187 12,6.562 2,4.375 3,9.922 3,16.637 0,3.75 -0.2,6.875 -0.59,9.375 -0.39,2.5 -1.25,4.766 -2.58,6.801 -0.86,1.172 -1.94,2.226 -3.23,3.164 -1.28,0.937 -2.65,1.66 -4.1,2.168 -1.44,0.508 -2.95,0.758 -4.5,0.758 -2.35,0 -4.58,-0.528 -6.69,-1.582 -2.11,-1.055 -3.87,-2.559 -5.27,-4.508 -1.41,-2.188 -2.28,-4.555 -2.63,-7.094 -0.36,-2.535 -0.54,-5.562 -0.54,-9.082 0,-4.215 0.36,-8.004 1.06,-11.363 0.71,-3.36 2.17,-6.172 4.4,-8.438 2.22,-2.265 5.44,-3.398 9.67,-3.398" /><path
         id="path110"
         style="fill:#262626;fill-opacity:1;fill-rule:nonzero;stroke:none"
         d="m 2141.36,105.102 0,3.98 c 2.5,0 4.57,0.195 6.21,0.586 1.64,0.395 2.47,1.371 2.47,2.934 l 0,37.031 -8.56,0 0,3.984 8.56,0 0,13.477 c 0,2.422 0.5,4.687 1.51,6.797 1.02,2.109 2.39,3.945 4.11,5.504 1.72,1.566 3.69,2.796 5.92,3.691 2.22,0.898 4.51,1.348 6.85,1.348 2.5,0 4.77,-0.762 6.8,-2.286 2.03,-1.519 3.04,-3.492 3.04,-5.918 0,-1.48 -0.47,-2.71 -1.4,-3.691 -0.94,-0.973 -2.15,-1.461 -3.63,-1.461 -1.41,0 -2.62,0.488 -3.64,1.461 -1.01,0.981 -1.52,2.211 -1.52,3.691 0,2.344 1.01,3.907 3.05,4.688 -1.18,0.395 -2.27,0.59 -3.28,0.59 -2.19,0 -4.07,-0.781 -5.63,-2.344 -1.56,-1.562 -2.72,-3.457 -3.45,-5.687 -0.75,-2.223 -1.12,-4.434 -1.12,-6.622 l 0,-13.238 12.89,0 0,-3.984 -12.54,0 0,-37.031 c 0,-1.489 1.09,-2.446 3.29,-2.875 2.18,-0.43 4.72,-0.645 7.61,-0.645 l 0,-3.98 -27.54,0" /><path
         id="path112"
         style="fill:#262626;fill-opacity:1;fill-rule:nonzero;stroke:none"
         d="m 2211.64,105.102 0,3.98 c 6.72,0 10.82,2.188 12.31,6.563 l 23.67,68.789 c 0.23,0.781 0.82,1.171 1.75,1.171 l 1.52,0 c 0.95,0 1.53,-0.39 1.77,-1.171 l 24.72,-71.832 c 0.63,-1.563 1.94,-2.539 3.92,-2.934 2,-0.391 4.44,-0.586 7.33,-0.586 l 0,-3.98 -31.41,0 0,3.98 c 6.25,0 9.38,1.02 9.38,3.051 l 0,0.469 -6.09,17.578 -27.31,0 -5.04,-14.535 c -0.07,-0.235 -0.11,-0.586 -0.11,-1.051 0,-1.875 0.9,-3.262 2.69,-4.16 1.8,-0.903 3.71,-1.352 5.75,-1.352 l 0,-3.98 -24.85,0 z m 22.85,29.062 24.73,0 -12.42,35.856 -12.31,-35.856 z" /><path
         id="path114"
         style="fill:#262626;fill-opacity:1;fill-rule:nonzero;stroke:none"
         d="m 2293.68,96.3086 c 0,2.6562 0.95,4.9804 2.86,6.9764 1.91,1.988 4.24,3.414 6.98,4.274 -1.57,1.175 -2.74,2.621 -3.52,4.336 -0.79,1.718 -1.17,3.558 -1.17,5.511 0,3.516 1.13,6.602 3.39,9.258 -3.43,3.359 -5.15,7.227 -5.15,11.602 0,2.343 0.51,4.55 1.52,6.621 1.02,2.07 2.43,3.847 4.22,5.332 1.8,1.484 3.79,2.617 5.98,3.398 2.19,0.781 4.41,1.172 6.68,1.172 4.45,0 8.47,-1.293 12.07,-3.871 1.56,1.645 3.4,2.914 5.51,3.809 2.1,0.902 4.29,1.351 6.56,1.351 1.56,0 2.85,-0.586 3.86,-1.758 1.02,-1.172 1.53,-2.539 1.53,-4.101 0,-0.938 -0.34,-1.758 -1,-2.461 -0.66,-0.703 -1.46,-1.055 -2.4,-1.055 -0.94,0 -1.76,0.352 -2.46,1.055 -0.71,0.703 -1.06,1.523 -1.06,2.461 0,1.406 0.47,2.383 1.41,2.926 -3.9,0 -7.26,-1.368 -10.08,-4.102 1.41,-1.324 2.52,-2.965 3.34,-4.922 0.82,-1.949 1.24,-3.902 1.24,-5.855 0,-3.207 -0.88,-6.078 -2.64,-8.618 -1.76,-2.535 -4.09,-4.507 -6.98,-5.918 -2.89,-1.406 -5.85,-2.109 -8.9,-2.109 -4.07,0 -7.82,1.133 -11.25,3.399 -1.02,-1.485 -1.52,-3.125 -1.52,-4.918 0,-2.032 0.64,-3.789 1.93,-5.274 1.28,-1.484 2.91,-2.226 4.86,-2.226 l 9.26,0 c 4.45,0 8.48,-0.391 12.07,-1.172 3.59,-0.782 6.6,-2.383 9.02,-4.809 2.43,-2.418 3.63,-5.855 3.63,-10.3124 0,-3.2773 -1.38,-6.0156 -4.16,-8.2031 -2.77,-2.1875 -6.09,-3.7657 -9.96,-4.7422 -3.86,-0.9805 -7.44,-1.4688 -10.72,-1.4688 -3.36,0 -6.97,0.4883 -10.84,1.4688 -3.86,0.9765 -7.18,2.5547 -9.96,4.7422 -2.77,2.1875 -4.15,4.9258 -4.15,8.2031 z m 6.32,0 c 0,-2.5 1.02,-4.6094 3.05,-6.3281 2.03,-1.7149 4.49,-2.9844 7.38,-3.8047 2.89,-0.8203 5.62,-1.2305 8.2,-1.2305 2.5,0 5.2,0.4102 8.09,1.2305 2.89,0.8203 5.35,2.0898 7.38,3.8047 2.03,1.7187 3.04,3.8281 3.04,6.3281 0,3.9064 -1.77,6.4454 -5.33,7.6214 -3.55,1.172 -7.9,1.754 -13.06,1.754 l -9.26,0 c -1.72,0 -3.3,-0.411 -4.75,-1.231 -1.44,-0.82 -2.59,-1.973 -3.45,-3.457 -0.86,-1.4843 -1.29,-3.0468 -1.29,-4.6874 z m 15.47,28.3594 c 6.41,0 9.61,4.531 9.61,13.598 0,3.902 -0.69,7.125 -2.05,9.668 -1.37,2.539 -3.89,3.808 -7.56,3.808 -3.68,0 -6.18,-1.269 -7.5,-3.808 -1.33,-2.543 -2,-5.766 -2,-9.668 0,-2.5 0.26,-4.75 0.77,-6.743 0.5,-1.992 1.44,-3.632 2.81,-4.921 1.37,-1.289 3.34,-1.934 5.92,-1.934" /><path
         id="path116"
         style="fill:#262626;fill-opacity:1;fill-rule:nonzero;stroke:none"
         d="m 2373.51,103.809 c -4.6,0 -8.8,1.214 -12.59,3.636 -3.79,2.422 -6.78,5.625 -8.97,9.61 -2.18,3.984 -3.28,8.203 -3.28,12.652 0,4.457 1,8.656 2.99,12.602 1.99,3.945 4.77,7.125 8.32,9.546 3.56,2.426 7.52,3.637 11.9,3.637 3.51,0 6.54,-0.566 9.08,-1.703 2.53,-1.129 4.63,-2.73 6.27,-4.801 1.64,-2.07 2.87,-4.492 3.69,-7.265 0.82,-2.778 1.23,-5.844 1.23,-9.203 0,-0.934 -0.35,-1.403 -1.06,-1.403 l -32.58,0 0,-1.289 c 0,-6.172 1.25,-11.504 3.75,-16 2.5,-4.488 6.6,-6.734 12.31,-6.734 2.27,0 4.38,0.527 6.33,1.582 1.95,1.054 3.65,2.48 5.09,4.277 1.45,1.793 2.45,3.746 2.99,5.856 0.08,0.234 0.22,0.472 0.42,0.707 0.19,0.234 0.4,0.351 0.64,0.351 l 1.05,0 c 0.71,0 1.06,-0.508 1.06,-1.523 -1.02,-4.219 -3.28,-7.696 -6.79,-10.43 -3.52,-2.738 -7.47,-4.105 -11.85,-4.105 z m -14.88,30.121 25.55,0 c 0,2.808 -0.39,5.66 -1.17,8.55 -0.78,2.895 -2.09,5.297 -3.92,7.208 -1.85,1.914 -4.25,2.871 -7.21,2.871 -4.22,0 -7.49,-1.993 -9.79,-5.977 -2.3,-3.984 -3.46,-8.203 -3.46,-12.652" /><path
         id="path118"
         style="fill:#262626;fill-opacity:1;fill-rule:nonzero;stroke:none"
         d="m 2397.8,105.102 0,3.98 c 2.5,0 4.59,0.195 6.27,0.586 1.68,0.395 2.52,1.371 2.52,2.934 l 0,30.703 c 0,2.031 -0.32,3.496 -0.94,4.394 -0.63,0.895 -1.51,1.442 -2.64,1.637 -1.13,0.199 -2.87,0.297 -5.21,0.297 l 0,3.984 16.29,1.172 0,-11.019 c 1.48,3.285 3.7,5.941 6.67,7.972 2.97,2.031 6.17,3.047 9.61,3.047 5.24,0 9.16,-1.25 11.78,-3.75 2.62,-2.5 3.92,-6.293 3.92,-11.371 l 0,-27.066 c 0,-1.563 0.82,-2.539 2.47,-2.934 1.64,-0.391 3.75,-0.586 6.32,-0.586 l 0,-3.98 -25.77,0 0,3.98 c 2.57,0 4.68,0.195 6.32,0.586 1.64,0.395 2.46,1.371 2.46,2.934 l 0,26.718 c 0,3.672 -0.53,6.68 -1.58,9.024 -1.05,2.34 -3.26,3.511 -6.62,3.511 -4.3,0 -7.85,-1.738 -10.66,-5.214 -2.82,-3.473 -4.22,-7.399 -4.22,-11.774 l 0,-22.265 c 0,-1.563 0.82,-2.539 2.45,-2.934 1.65,-0.391 3.72,-0.586 6.22,-0.586 l 0,-3.98 -25.66,0" /><path
         id="path120"
         style="fill:#262626;fill-opacity:1;fill-rule:nonzero;stroke:none"
         d="m 2463.94,118.578 0,31.055 -9.38,0 0,2.926 c 4.92,0 8.54,2.285 10.84,6.855 2.31,4.57 3.46,9.551 3.46,14.941 l 3.28,0 0,-20.738 15.82,0 0,-3.984 -15.82,0 0,-30.824 c 0,-3.125 0.52,-5.86 1.58,-8.204 1.05,-2.339 2.91,-3.511 5.57,-3.511 2.57,0 4.43,1.25 5.57,3.75 1.13,2.5 1.69,5.156 1.69,7.965 l 0,6.683 3.29,0 0,-6.914 c 0,-2.348 -0.43,-4.652 -1.29,-6.914 -0.86,-2.266 -2.13,-4.141 -3.81,-5.625 -1.68,-1.488 -3.73,-2.23 -6.15,-2.23 -4.54,0 -8.11,1.347 -10.73,4.043 -2.61,2.695 -3.92,6.269 -3.92,10.726" /><path
         id="path122"
         style="fill:#262626;fill-opacity:1;fill-rule:nonzero;stroke:none"
         d="m 2498.98,104.746 0,18.399 c 0,0.55 0.31,0.824 0.94,0.824 l 1.4,0 c 0.47,0 0.78,-0.274 0.94,-0.824 2.03,-10.86 7.07,-16.29 15.12,-16.29 3.51,0 6.48,0.801 8.91,2.407 2.42,1.601 3.63,4.082 3.63,7.441 0,2.418 -0.94,4.469 -2.81,6.149 -1.88,1.679 -4.11,2.832 -6.69,3.457 l -7.5,1.523 c -2.5,0.551 -4.78,1.391 -6.85,2.52 -2.07,1.136 -3.77,2.64 -5.1,4.515 -1.33,1.875 -1.99,4.063 -1.99,6.563 0,3.359 0.86,6.074 2.58,8.144 1.71,2.071 3.98,3.574 6.8,4.508 2.8,0.941 5.81,1.41 9.02,1.41 3.83,0 7.19,-1.015 10.08,-3.047 l 3.16,2.813 c 0,0.156 0.2,0.234 0.59,0.234 l 0.81,0 c 0.24,0 0.45,-0.097 0.65,-0.293 0.19,-0.195 0.29,-0.41 0.29,-0.644 l 0,-14.649 c 0,-0.703 -0.31,-1.054 -0.94,-1.054 l -1.4,0 c -0.62,0 -0.94,0.351 -0.94,1.054 0,3.907 -1.09,7.047 -3.28,9.43 -2.19,2.383 -5.23,3.578 -9.14,3.578 -3.36,0 -6.27,-0.625 -8.73,-1.875 -2.46,-1.25 -3.69,-3.398 -3.69,-6.445 0,-2.11 0.87,-3.828 2.64,-5.16 1.75,-1.325 3.84,-2.262 6.27,-2.813 l 7.61,-1.519 c 2.5,-0.547 4.86,-1.524 7.09,-2.934 2.23,-1.406 3.99,-3.164 5.28,-5.273 1.29,-2.11 1.93,-4.493 1.93,-7.149 0,-2.734 -0.45,-5.098 -1.35,-7.086 -0.9,-1.996 -2.19,-3.656 -3.87,-4.98 -1.68,-1.328 -3.65,-2.309 -5.92,-2.934 -2.26,-0.625 -4.64,-0.937 -7.14,-0.937 -4.69,0 -8.71,1.605 -12.07,4.808 l -4.1,-4.453 c 0,-0.238 -0.2,-0.355 -0.59,-0.355 l -0.7,0 c -0.63,0 -0.94,0.312 -0.94,0.937" /><path
         id="path124"
         style="fill:#262626;fill-opacity:1;fill-rule:nonzero;stroke:none"
         d="m 2610.2,77.207 c -4.21,3.2852 -7.82,7.0547 -10.83,11.3086 -3.01,4.2617 -5.47,8.8125 -7.38,13.6524 -1.92,4.844 -3.36,9.902 -4.34,15.18 -0.98,5.273 -1.47,10.566 -1.47,15.879 0,5.386 0.49,10.718 1.47,15.996 0.98,5.273 2.44,10.351 4.39,15.23 1.96,4.887 4.45,9.438 7.5,13.652 3.05,4.219 6.6,7.934 10.66,11.137 0,0.156 0.16,0.235 0.48,0.235 l 1.05,0 c 0.23,0 0.45,-0.098 0.64,-0.293 0.2,-0.196 0.29,-0.411 0.29,-0.645 0,-0.391 -0.07,-0.664 -0.23,-0.82 -3.67,-3.516 -6.72,-7.324 -9.14,-11.43 -2.42,-4.098 -4.37,-8.473 -5.86,-13.125 -1.48,-4.644 -2.55,-9.449 -3.22,-14.414 -0.66,-4.961 -1,-10.137 -1,-15.523 0,-23.832 6.38,-41.9575 19.11,-54.3754 0.23,-0.1563 0.34,-0.4688 0.34,-0.9375 0,-0.1563 -0.09,-0.3516 -0.29,-0.586 -0.19,-0.2343 -0.41,-0.3515 -0.64,-0.3515 l -1.05,0 c -0.32,0 -0.48,0.0742 -0.48,0.2304" /><path
         id="path126"
         style="fill:#262626;fill-opacity:1;fill-rule:nonzero;stroke:none"
         d="m 2614.78,105.332 c 0,1.41 0.49,3.227 1.47,5.453 0.97,2.223 2.01,3.336 3.11,3.336 0.15,0 0.27,-0.035 0.35,-0.113 2.34,-2.5 5.26,-3.75 8.78,-3.75 1.96,0 3.69,1.777 5.22,5.328 1.52,3.555 3.02,7.715 4.5,12.484 0.79,2.344 1.73,5.446 2.82,9.317 1.1,3.867 1.95,6.968 2.58,9.316 0.54,2.027 1.17,4.723 1.87,8.086 0.71,3.359 1.29,6.309 1.76,8.848 0.47,2.539 0.88,5.136 1.23,7.793 0.35,2.656 0.69,5.425 0.99,8.316 0,0.391 0.28,0.859 0.83,1.41 0.78,0.86 1.76,1.602 2.92,2.227 1.02,0.469 2.08,0.816 3.17,1.051 l 0.94,0 c 0.47,-0.235 0.74,-0.508 0.82,-0.817 1.88,-6.566 4.18,-13.988 6.91,-22.265 2.58,-7.657 4.77,-13.946 6.56,-18.872 1.8,-4.921 3.91,-10.097 6.34,-15.527 2.42,-5.43 5.08,-10.449 7.97,-15.058 3.9,16.8 7.81,32.035 11.71,45.707 l 1.41,5.269 c 1.64,5.625 2.99,10.02 4.05,13.188 1.05,3.164 2.36,6.035 3.92,8.609 1.33,2.035 3.06,3.637 5.21,4.809 2.15,1.168 4.48,2.007 6.98,2.519 2.5,0.508 5.11,0.762 7.85,0.762 0.7,0 1.06,-0.625 1.06,-1.875 0,-0.938 -0.2,-2.09 -0.59,-3.457 -0.39,-1.367 -0.92,-2.582 -1.58,-3.637 -0.67,-1.055 -1.43,-1.66 -2.29,-1.812 -2.97,0 -5.61,-0.239 -7.91,-0.707 -2.31,-0.465 -4.4,-1.325 -6.28,-2.575 -1.01,-0.703 -1.59,-1.25 -1.75,-1.64 -0.16,-0.391 -0.51,-1.485 -1.06,-3.285 -1.01,-2.575 -1.99,-5.739 -2.92,-9.489 l -1.52,-5.039 c -1.88,-6.875 -3.56,-13.164 -5.04,-18.871 -1.49,-5.699 -2.92,-11.344 -4.29,-16.933 -1.36,-5.586 -2.67,-11.192 -3.92,-16.817 0,0 -0.02,0.043 -0.06,0.121 -0.04,0.074 -0.06,0.113 -0.06,0.113 0,-0.625 -0.43,-1.308 -1.29,-2.046 -0.85,-0.743 -1.85,-1.348 -2.98,-1.817 -1.14,-0.469 -2.05,-0.781 -2.76,-0.937 l -0.7,0 c -1.25,0.625 -3.38,3.789 -6.39,9.488 -3.01,5.703 -5.29,10.434 -6.86,14.184 -5.54,13.75 -10.62,28.125 -15.23,43.125 -0.62,-3.598 -1.85,-9.321 -3.69,-17.168 -1.83,-7.852 -4,-15.782 -6.5,-23.793 -2.5,-8.004 -5.28,-14.743 -8.33,-20.211 -3.04,-5.469 -6.05,-8.2034 -9.02,-8.2034 -1.95,0 -4.16,0.5464 -6.62,1.6404 -2.46,1.094 -3.69,2.5 -3.69,4.215" /><path
         id="path128"
         style="fill:#262626;fill-opacity:1;fill-rule:nonzero;stroke:none"
         d="m 2731.79,76.9766 c -0.62,0 -0.93,0.3125 -0.93,0.9375 0,0.3867 0.07,0.6601 0.23,0.8164 12.81,12.5 19.21,30.6645 19.21,54.4965 0,23.828 -6.32,41.953 -18.98,54.375 -0.31,0.152 -0.46,0.464 -0.46,0.937 0,0.234 0.09,0.449 0.29,0.645 0.19,0.195 0.41,0.293 0.64,0.293 l 1.05,0 c 0.24,0 0.43,-0.079 0.59,-0.235 5.39,-4.219 9.89,-9.379 13.48,-15.472 3.59,-6.09 6.21,-12.575 7.85,-19.45 1.64,-6.875 2.46,-13.906 2.46,-21.093 0,-5.313 -0.45,-10.547 -1.34,-15.707 -0.9,-5.157 -2.33,-10.231 -4.29,-15.231 -1.95,-4.9999 -4.43,-9.6132 -7.44,-13.832 -3,-4.2148 -6.58,-7.9648 -10.72,-11.25 -0.16,-0.1562 -0.35,-0.2304 -0.59,-0.2304 l -1.05,0" /><path
         id="path130"
         style="fill:none;stroke:#262626;stroke-width:5.00250006;stroke-linecap:square;stroke-linejoin:round;stroke-miterlimit:10;stroke-dasharray:none;stroke-opacity:1"
         d="m 555,375 0,2745" /><path
         id="path132"
         style="fill:none;stroke:#262626;stroke-width:5.00250006;stroke-linecap:square;stroke-linejoin:round;stroke-miterlimit:10;stroke-dasharray:none;stroke-opacity:1"
         d="m 3870,375 0,2745" /><path
         id="path134"
         style="fill:none;stroke:#262626;stroke-width:5.00250006;stroke-linecap:square;stroke-linejoin:round;stroke-miterlimit:10;stroke-dasharray:none;stroke-opacity:1"
         d="m 555,375 33.148,0" /><path
         id="path136"
         style="fill:none;stroke:#262626;stroke-width:5.00250006;stroke-linecap:square;stroke-linejoin:round;stroke-miterlimit:10;stroke-dasharray:none;stroke-opacity:1"
         d="m 555,767.145 33.148,0" /><path
         id="path138"
         style="fill:none;stroke:#262626;stroke-width:5.00250006;stroke-linecap:square;stroke-linejoin:round;stroke-miterlimit:10;stroke-dasharray:none;stroke-opacity:1"
         d="m 555,1159.28 33.148,0" /><path
         id="path140"
         style="fill:none;stroke:#262626;stroke-width:5.00250006;stroke-linecap:square;stroke-linejoin:round;stroke-miterlimit:10;stroke-dasharray:none;stroke-opacity:1"
         d="m 555,1551.43 33.148,0" /><path
         id="path142"
         style="fill:none;stroke:#262626;stroke-width:5.00250006;stroke-linecap:square;stroke-linejoin:round;stroke-miterlimit:10;stroke-dasharray:none;stroke-opacity:1"
         d="m 555,1943.57 33.148,0" /><path
         id="path144"
         style="fill:none;stroke:#262626;stroke-width:5.00250006;stroke-linecap:square;stroke-linejoin:round;stroke-miterlimit:10;stroke-dasharray:none;stroke-opacity:1"
         d="m 555,2335.72 33.148,0" /><path
         id="path146"
         style="fill:none;stroke:#262626;stroke-width:5.00250006;stroke-linecap:square;stroke-linejoin:round;stroke-miterlimit:10;stroke-dasharray:none;stroke-opacity:1"
         d="m 555,2727.86 33.148,0" /><path
         id="path148"
         style="fill:none;stroke:#262626;stroke-width:5.00250006;stroke-linecap:square;stroke-linejoin:round;stroke-miterlimit:10;stroke-dasharray:none;stroke-opacity:1"
         d="m 555,3120 33.148,0" /><path
         id="path150"
         style="fill:none;stroke:#262626;stroke-width:5.00250006;stroke-linecap:square;stroke-linejoin:round;stroke-miterlimit:10;stroke-dasharray:none;stroke-opacity:1"
         d="m 3870,375 -33.15,0" /><path
         id="path152"
         style="fill:none;stroke:#262626;stroke-width:5.00250006;stroke-linecap:square;stroke-linejoin:round;stroke-miterlimit:10;stroke-dasharray:none;stroke-opacity:1"
         d="m 3870,767.145 -33.15,0" /><path
         id="path154"
         style="fill:none;stroke:#262626;stroke-width:5.00250006;stroke-linecap:square;stroke-linejoin:round;stroke-miterlimit:10;stroke-dasharray:none;stroke-opacity:1"
         d="m 3870,1159.28 -33.15,0" /><path
         id="path156"
         style="fill:none;stroke:#262626;stroke-width:5.00250006;stroke-linecap:square;stroke-linejoin:round;stroke-miterlimit:10;stroke-dasharray:none;stroke-opacity:1"
         d="m 3870,1551.43 -33.15,0" /><path
         id="path158"
         style="fill:none;stroke:#262626;stroke-width:5.00250006;stroke-linecap:square;stroke-linejoin:round;stroke-miterlimit:10;stroke-dasharray:none;stroke-opacity:1"
         d="m 3870,1943.57 -33.15,0" /><path
         id="path160"
         style="fill:none;stroke:#262626;stroke-width:5.00250006;stroke-linecap:square;stroke-linejoin:round;stroke-miterlimit:10;stroke-dasharray:none;stroke-opacity:1"
         d="m 3870,2335.72 -33.15,0" /><path
         id="path162"
         style="fill:none;stroke:#262626;stroke-width:5.00250006;stroke-linecap:square;stroke-linejoin:round;stroke-miterlimit:10;stroke-dasharray:none;stroke-opacity:1"
         d="m 3870,2727.86 -33.15,0" /><path
         id="path164"
         style="fill:none;stroke:#262626;stroke-width:5.00250006;stroke-linecap:square;stroke-linejoin:round;stroke-miterlimit:10;stroke-dasharray:none;stroke-opacity:1"
         d="m 3870,3120 -33.15,0" /><g
         transform="scale(10,10)"
         id="g166"><text
           id="text168"
           style="font-variant:normal;font-weight:normal;font-size:9.99975014px;font-family:Helvetica;-inkscape-font-specification:Helvetica;writing-mode:lr-tb;fill:#262626;fill-opacity:1;fill-rule:nonzero;stroke:none"
           transform="matrix(1,0,0,-1,32,34.125)"><tspan
             id="tspan170"
             y="0"
             x="0 5.5598612 11.119722">100</tspan><tspan
             id="tspan172"
             y="-39.2145"
             x="0 5.5598612 11.119722">120</tspan><tspan
             id="tspan174"
             y="-78.428596"
             x="0 5.5598612 11.119722">140</tspan><tspan
             id="tspan176"
             y="-117.6431"
             x="0 5.5598612 11.119722">160</tspan><tspan
             id="tspan178"
             y="-156.85719"
             x="0 5.5598612 11.119722">180</tspan><tspan
             id="tspan180"
             y="-196.0717"
             x="0 5.5598612 11.119722">200</tspan><tspan
             id="tspan182"
             y="-235.2858"
             x="0 5.5598612 11.119722">220</tspan><tspan
             id="tspan184"
             y="-274.50031"
             x="0 5.5598612 11.119722">240</tspan></text>
</g><path
         id="path186"
         style="fill:#262626;fill-opacity:1;fill-rule:nonzero;stroke:none"
         d="m 250.398,1177.07 -3.98,0 c 0,3.75 -0.215,7.4 -0.645,10.95 -0.429,3.56 -1.386,5.34 -2.875,5.34 l -61.875,0 c -1.562,0 -2.539,-0.45 -2.929,-1.35 -0.391,-0.9 -0.586,-2.32 -0.586,-4.28 l 0,-4.8 c 0,-6.17 1.367,-10.55 4.101,-13.13 1.332,-1.32 3.477,-2.28 6.442,-2.87 2.972,-0.58 6.722,-1.11 11.25,-1.58 l 0,-3.16 -25.778,2.1 0,68.67 25.778,2.23 0,-3.28 c -4.84,-0.46 -8.664,-0.97 -11.481,-1.52 -2.808,-0.55 -4.879,-1.49 -6.211,-2.81 -2.734,-2.66 -4.101,-7.08 -4.101,-13.25 l 0,-4.69 c 0,-1.4 0.058,-2.47 0.18,-3.22 0.113,-0.74 0.425,-1.35 0.937,-1.81 0.504,-0.47 1.305,-0.71 2.398,-0.71 l 61.875,0 c 1.489,0 2.446,1.78 2.875,5.33 0.43,3.56 0.645,7.21 0.645,10.96 l 3.98,0 0,-43.12" /><path
         id="path188"
         style="fill:#262626;fill-opacity:1;fill-rule:nonzero;stroke:none"
         d="m 250.398,1241.04 -3.98,0 c 0,2.5 -0.195,4.59 -0.586,6.27 -0.394,1.68 -1.371,2.52 -2.934,2.52 l -30.703,0 c -2.89,0 -4.668,-0.56 -5.332,-1.69 -0.664,-1.14 -1,-3.35 -1,-6.63 l -3.98,0 -1.172,16.17 42.187,0 c 1.563,0 2.54,0.73 2.934,2.17 0.391,1.45 0.586,3.34 0.586,5.69 l 3.98,0 0,-24.5 z m -69.019,4.69 c -1.641,0 -3.086,0.63 -4.336,1.88 -1.25,1.25 -1.875,2.69 -1.875,4.33 0,1.02 0.273,2.04 0.816,3.05 0.547,1.02 1.309,1.8 2.289,2.34 0.973,0.55 2.008,0.83 3.106,0.83 1.559,0 2.965,-0.63 4.215,-1.88 1.25,-1.25 1.875,-2.7 1.875,-4.34 0,-1.64 -0.625,-3.08 -1.875,-4.33 -1.25,-1.25 -2.656,-1.88 -4.215,-1.88" /><path
         id="path190"
         style="fill:#262626;fill-opacity:1;fill-rule:nonzero;stroke:none"
         d="m 250.398,1271.48 -3.98,0 c 0,2.5 -0.195,4.59 -0.586,6.27 -0.394,1.68 -1.371,2.52 -2.934,2.52 l -30.703,0 c -2.031,0 -3.496,-0.31 -4.394,-0.93 -0.895,-0.63 -1.442,-1.51 -1.637,-2.64 -0.199,-1.13 -0.301,-2.87 -0.301,-5.22 l -3.98,0 -1.172,16.29 11.019,0 c -3.285,1.49 -5.941,3.71 -7.972,6.68 -2.031,2.97 -3.047,6.18 -3.047,9.61 0,8.67 3.516,13.75 10.547,15.24 -3.199,1.48 -5.758,3.67 -7.672,6.56 -1.914,2.89 -2.875,6.05 -2.875,9.49 0,3.44 0.551,6.31 1.644,8.61 1.09,2.31 2.77,4.05 5.04,5.22 2.265,1.17 5.078,1.76 8.437,1.76 l 27.066,0 c 1.563,0 2.54,0.84 2.934,2.52 0.391,1.67 0.586,3.76 0.586,6.26 l 3.98,0 0,-25.66 -3.98,0 c 0,2.5 -0.195,4.59 -0.586,6.27 -0.394,1.68 -1.371,2.52 -2.934,2.52 l -26.722,0 c -3.75,0 -6.774,-0.55 -9.074,-1.64 -2.305,-1.09 -3.457,-3.28 -3.457,-6.56 0,-4.3 1.738,-7.86 5.214,-10.67 3.473,-2.81 7.399,-4.22 11.774,-4.22 l 22.265,0 c 1.563,0 2.54,0.82 2.934,2.46 0.391,1.65 0.586,3.76 0.586,6.33 l 3.98,0 0,-25.78 -3.98,0 c 0,2.58 -0.195,4.69 -0.586,6.33 -0.394,1.64 -1.371,2.46 -2.934,2.46 l -26.722,0 c -3.668,0 -6.676,-0.52 -9.02,-1.58 -2.34,-1.05 -3.511,-3.26 -3.511,-6.62 0,-4.3 1.738,-7.86 5.214,-10.66 3.473,-2.82 7.399,-4.23 11.774,-4.23 l 22.265,0 c 1.563,0 2.54,0.82 2.934,2.47 0.391,1.64 0.586,3.71 0.586,6.21 l 3.98,0 0,-25.67" /><path
         id="path192"
         style="fill:#262626;fill-opacity:1;fill-rule:nonzero;stroke:none"
         d="m 251.691,1387.76 c 0,-4.62 -1.214,-8.81 -3.64,-12.6 -2.418,-3.78 -5.621,-6.78 -9.606,-8.96 -3.984,-2.19 -8.203,-3.28 -12.652,-3.28 -4.457,0 -8.656,0.99 -12.602,2.98 -3.945,1.99 -7.125,4.77 -9.546,8.33 -2.426,3.55 -3.637,7.52 -3.637,11.89 0,3.52 0.566,6.54 1.703,9.08 1.129,2.54 2.73,4.62 4.801,6.26 2.066,1.65 4.492,2.88 7.265,3.7 2.774,0.82 5.844,1.23 9.203,1.23 0.934,0 1.403,-0.35 1.403,-1.05 l 0,-32.58 1.289,0 c 6.172,0 11.504,1.25 16,3.75 4.488,2.5 6.734,6.6 6.734,12.3 0,2.27 -0.527,4.38 -1.582,6.33 -1.058,1.95 -2.48,3.65 -4.277,5.09 -1.793,1.45 -3.746,2.45 -5.856,3 -0.238,0.07 -0.472,0.21 -0.707,0.41 -0.234,0.2 -0.351,0.41 -0.351,0.64 l 0,1.06 c 0,0.7 0.508,1.05 1.523,1.05 4.219,-1.01 7.696,-3.28 10.43,-6.8 2.738,-3.52 4.105,-7.46 4.105,-11.83 z m -30.121,-14.88 0,25.54 c -2.808,0 -5.66,-0.39 -8.55,-1.17 -2.895,-0.78 -5.297,-2.09 -7.207,-3.92 -1.915,-1.84 -2.872,-4.24 -2.872,-7.21 0,-4.22 1.993,-7.48 5.977,-9.79 3.984,-2.3 8.203,-3.45 12.652,-3.45" /><path
         id="path194"
         style="fill:#262626;fill-opacity:1;fill-rule:nonzero;stroke:none"
         d="m 237.043,1457.49 -24.848,0 c -2.031,0 -3.496,-0.31 -4.394,-0.94 -0.895,-0.62 -1.442,-1.5 -1.637,-2.63 -0.199,-1.13 -0.301,-2.87 -0.301,-5.22 l -3.98,0 -1.172,17 36.332,0 c 2.891,0 5.156,0.21 6.793,0.64 1.641,0.43 2.852,1.33 3.633,2.7 0.785,1.36 1.176,3.53 1.176,6.5 0,4.07 -1.68,7.28 -5.04,9.67 -3.359,2.38 -7.191,3.57 -11.492,3.57 l -19.918,0 c -2.031,0 -3.496,-0.31 -4.394,-0.94 -0.895,-0.62 -1.442,-1.5 -1.637,-2.63 -0.199,-1.14 -0.301,-2.87 -0.301,-5.22 l -3.98,0 -1.172,16.99 39.496,0 c 1.949,0 3.375,0.3 4.277,0.88 0.899,0.59 1.446,1.45 1.641,2.59 0.195,1.12 0.293,2.9 0.293,5.33 l 3.98,0 1.293,-16.65 -9.496,0 c 2.817,-1.4 5.102,-3.35 6.856,-5.85 1.758,-2.5 2.64,-5.24 2.64,-8.21 0,-5.39 -1.152,-9.67 -3.457,-12.83 -2.308,-3.17 -6.035,-4.75 -11.191,-4.75" /><path
         id="path196"
         style="fill:#262626;fill-opacity:1;fill-rule:nonzero;stroke:none"
         d="m 250.398,1509.82 -3.98,0 c 0,2.5 -0.195,4.59 -0.586,6.27 -0.394,1.68 -1.371,2.52 -2.934,2.52 l -30.703,0 c -2.031,0 -3.496,-0.31 -4.394,-0.94 -0.895,-0.62 -1.442,-1.5 -1.637,-2.64 -0.199,-1.14 -0.301,-2.87 -0.301,-5.21 l -3.98,0 -1.172,16.29 11.019,0 c -3.285,1.48 -5.941,3.7 -7.972,6.68 -2.031,2.96 -3.047,6.17 -3.047,9.6 0,5.24 1.25,9.16 3.75,11.78 2.5,2.62 6.293,3.93 11.371,3.93 l 27.066,0 c 1.563,0 2.54,0.82 2.934,2.45 0.391,1.65 0.586,3.75 0.586,6.34 l 3.98,0 0,-25.78 -3.98,0 c 0,2.57 -0.195,4.68 -0.586,6.32 -0.394,1.64 -1.371,2.46 -2.934,2.46 l -26.722,0 c -3.668,0 -6.676,-0.53 -9.02,-1.58 -2.34,-1.05 -3.511,-3.26 -3.511,-6.61 0,-4.31 1.738,-7.86 5.214,-10.67 3.473,-2.82 7.399,-4.23 11.774,-4.23 l 22.265,0 c 1.563,0 2.54,0.83 2.934,2.47 0.391,1.64 0.586,3.71 0.586,6.21 l 3.98,0 0,-25.66" /><path
         id="path198"
         style="fill:#262626;fill-opacity:1;fill-rule:nonzero;stroke:none"
         d="m 236.922,1575.96 -31.059,0 0,-9.37 -2.922,0 c 0,4.92 -2.285,8.53 -6.855,10.83 -4.57,2.31 -9.551,3.46 -14.941,3.46 l 0,3.28 20.738,0 0,15.82 3.98,0 0,-15.82 30.828,0 c 3.125,0 5.86,0.53 8.204,1.58 2.339,1.06 3.511,2.91 3.511,5.56 0,2.59 -1.25,4.44 -3.75,5.58 -2.5,1.13 -5.156,1.69 -7.965,1.69 l -6.683,0 0,3.29 6.914,0 c 2.344,0 4.652,-0.43 6.914,-1.29 2.266,-0.86 4.141,-2.13 5.625,-3.81 1.488,-1.68 2.23,-3.73 2.23,-6.15 0,-4.54 -1.347,-8.11 -4.043,-10.73 -2.695,-2.61 -6.269,-3.92 -10.726,-3.92" /><path
         id="path200"
         style="fill:#262626;fill-opacity:1;fill-rule:nonzero;stroke:none"
         d="m 250.398,1610.77 -3.98,0 c 0,2.5 -0.195,4.59 -0.586,6.27 -0.394,1.68 -1.371,2.52 -2.934,2.52 l -30.703,0 c -2.89,0 -4.668,-0.57 -5.332,-1.7 -0.664,-1.14 -1,-3.35 -1,-6.63 l -3.98,0 -1.172,16.17 42.187,0 c 1.563,0 2.54,0.73 2.934,2.18 0.391,1.44 0.586,3.34 0.586,5.68 l 3.98,0 0,-24.49 z m -69.019,4.69 c -1.641,0 -3.086,0.62 -4.336,1.87 -1.25,1.25 -1.875,2.7 -1.875,4.34 0,1.01 0.273,2.03 0.816,3.04 0.547,1.02 1.309,1.8 2.289,2.35 0.973,0.55 2.008,0.82 3.106,0.82 1.559,0 2.965,-0.63 4.215,-1.88 1.25,-1.25 1.875,-2.7 1.875,-4.33 0,-1.64 -0.625,-3.09 -1.875,-4.34 -1.25,-1.25 -2.656,-1.87 -4.215,-1.87" /><path
         id="path202"
         style="fill:#262626;fill-opacity:1;fill-rule:nonzero;stroke:none"
         d="m 250.398,1641.32 -3.98,0 c 0,2.5 -0.195,4.59 -0.586,6.27 -0.394,1.68 -1.371,2.52 -2.934,2.52 l -59.062,0 c -2.027,0 -3.492,-0.31 -4.395,-0.93 -0.898,-0.63 -1.445,-1.51 -1.64,-2.64 -0.196,-1.13 -0.293,-2.87 -0.293,-5.22 l -3.985,0 -1.168,16.64 70.543,0 c 1.563,0 2.54,0.83 2.934,2.47 0.391,1.64 0.586,3.74 0.586,6.32 l 3.98,0 0,-25.43" /><path
         id="path204"
         style="fill:#262626;fill-opacity:1;fill-rule:nonzero;stroke:none"
         d="m 251.691,1733.04 c 0,-4.54 -1.195,-8.66 -3.578,-12.37 -2.379,-3.71 -5.527,-6.62 -9.437,-8.72 -3.903,-2.12 -8.082,-3.17 -12.531,-3.17 -4.454,0 -8.715,1.05 -12.782,3.17 -4.058,2.1 -7.297,5.01 -9.718,8.72 -2.426,3.71 -3.637,7.83 -3.637,12.37 0,4.37 0.859,8.37 2.578,12.01 1.723,3.63 4.535,5.45 8.437,5.45 1.489,0 2.758,-0.53 3.813,-1.58 1.055,-1.06 1.582,-2.33 1.582,-3.81 0,-1.48 -0.527,-2.75 -1.582,-3.81 -1.055,-1.06 -2.324,-1.59 -3.813,-1.59 -1.328,0 -2.48,0.42 -3.457,1.24 -0.972,0.82 -1.578,1.85 -1.812,3.1 -1.641,-2.57 -2.461,-6.21 -2.461,-10.9 0,-3.59 1.191,-6.48 3.57,-8.67 2.383,-2.19 5.336,-3.73 8.848,-4.62 3.516,-0.9 6.992,-1.35 10.434,-1.35 3.589,0 7.085,0.54 10.484,1.64 3.402,1.09 6.215,2.83 8.437,5.21 2.227,2.39 3.34,5.41 3.34,9.09 0,3.51 -1.093,6.51 -3.277,9.01 -2.191,2.5 -5.043,4.23 -8.559,5.17 -0.468,0 -0.707,0.27 -0.707,0.82 l 0,1.4 c 0,0.23 0.102,0.43 0.301,0.59 0.195,0.15 0.449,0.23 0.758,0.23 l 0.234,0 c 4.453,-1.1 7.989,-3.32 10.606,-6.68 2.617,-3.36 3.929,-7.35 3.929,-11.95" /><path
         id="path206"
         style="fill:#262626;fill-opacity:1;fill-rule:nonzero;stroke:none"
         d="m 251.691,1782.05 c 0,-4.54 -1.152,-8.72 -3.457,-12.54 -2.308,-3.83 -5.375,-6.86 -9.203,-9.09 -3.828,-2.22 -8.008,-3.34 -12.543,-3.34 -3.433,0 -6.754,0.61 -9.957,1.82 -3.203,1.21 -6.051,2.97 -8.551,5.27 -2.5,2.31 -4.457,4.98 -5.867,8.03 -1.402,3.04 -2.105,6.33 -2.105,9.85 0,4.6 1.211,8.8 3.637,12.59 2.421,3.79 5.679,6.78 9.781,8.97 4.105,2.18 8.461,3.28 13.062,3.28 4.457,0 8.621,-1.12 12.489,-3.34 3.867,-2.23 6.949,-5.26 9.257,-9.09 2.305,-3.82 3.457,-7.96 3.457,-12.41 z m -3.285,0 c 0,6.01 -2.187,10.01 -6.562,12 -4.375,2 -9.922,3 -16.637,3 -3.75,0 -6.875,-0.2 -9.375,-0.6 -2.5,-0.39 -4.766,-1.24 -6.801,-2.57 -1.172,-0.86 -2.226,-1.93 -3.168,-3.22 -0.933,-1.29 -1.656,-2.66 -2.164,-4.11 -0.508,-1.44 -0.758,-2.94 -0.758,-4.5 0,-2.35 0.528,-4.58 1.582,-6.69 1.055,-2.11 2.555,-3.86 4.508,-5.27 2.188,-1.4 4.555,-2.29 7.094,-2.64 2.535,-0.35 5.563,-0.52 9.082,-0.52 4.215,0 8.004,0.35 11.363,1.05 3.36,0.7 6.172,2.17 8.438,4.4 2.265,2.23 3.398,5.44 3.398,9.67" /><path
         id="path208"
         style="fill:#262626;fill-opacity:1;fill-rule:nonzero;stroke:none"
         d="m 250.398,1812.32 -3.98,0 c 0,2.5 -0.195,4.59 -0.586,6.27 -0.394,1.68 -1.371,2.52 -2.934,2.52 l -30.703,0 c -2.031,0 -3.496,-0.32 -4.394,-0.94 -0.895,-0.63 -1.442,-1.51 -1.637,-2.64 -0.199,-1.13 -0.301,-2.87 -0.301,-5.21 l -3.98,0 -1.172,16.29 11.019,0 c -3.285,1.48 -5.941,3.71 -7.972,6.68 -2.031,2.96 -3.047,6.17 -3.047,9.6 0,5.24 1.25,9.16 3.75,11.78 2.5,2.62 6.293,3.93 11.371,3.93 l 27.066,0 c 1.563,0 2.54,0.82 2.934,2.46 0.391,1.64 0.586,3.75 0.586,6.32 l 3.98,0 0,-25.77 -3.98,0 c 0,2.58 -0.195,4.69 -0.586,6.33 -0.394,1.63 -1.371,2.45 -2.934,2.45 l -26.722,0 c -3.668,0 -6.676,-0.52 -9.02,-1.58 -2.34,-1.05 -3.511,-3.26 -3.511,-6.62 0,-4.3 1.738,-7.85 5.214,-10.66 3.473,-2.82 7.399,-4.22 11.774,-4.22 l 22.265,0 c 1.563,0 2.54,0.82 2.934,2.46 0.391,1.64 0.586,3.71 0.586,6.21 l 3.98,0 0,-25.66" /><path
         id="path210"
         style="fill:#262626;fill-opacity:1;fill-rule:nonzero;stroke:none"
         d="m 250.754,1873.78 -18.399,0 c -0.55,0 -0.824,0.31 -0.824,0.93 l 0,1.42 c 0,0.46 0.274,0.77 0.824,0.93 10.86,2.03 16.29,7.07 16.29,15.12 0,3.51 -0.801,6.48 -2.407,8.91 -1.601,2.42 -4.082,3.62 -7.441,3.62 -2.418,0 -4.469,-0.93 -6.149,-2.81 -1.679,-1.87 -2.832,-4.1 -3.457,-6.68 l -1.523,-7.5 c -0.551,-2.5 -1.391,-4.78 -2.52,-6.85 -1.136,-2.07 -2.64,-3.77 -4.515,-5.1 -1.875,-1.32 -4.063,-1.99 -6.563,-1.99 -3.359,0 -6.074,0.86 -8.144,2.58 -2.071,1.72 -3.574,3.98 -4.508,6.79 -0.941,2.82 -1.41,5.83 -1.41,9.03 0,3.83 1.015,7.19 3.043,10.08 l -2.813,3.16 c -0.152,0 -0.23,0.2 -0.23,0.59 l 0,0.81 c 0,0.24 0.097,0.45 0.293,0.65 0.195,0.19 0.41,0.29 0.644,0.29 l 14.649,0 c 0.703,0 1.054,-0.31 1.054,-0.94 l 0,-1.4 c 0,-0.62 -0.351,-0.94 -1.054,-0.94 -3.906,0 -7.047,-1.09 -9.43,-3.28 -2.383,-2.19 -3.578,-5.23 -3.578,-9.14 0,-3.36 0.625,-6.27 1.875,-8.73 1.25,-2.46 3.398,-3.69 6.445,-3.69 2.11,0 3.828,0.88 5.16,2.64 1.325,1.75 2.262,3.84 2.813,6.27 l 1.519,7.61 c 0.547,2.5 1.524,4.86 2.934,7.09 1.406,2.23 3.164,3.98 5.273,5.28 2.11,1.29 4.493,1.93 7.149,1.93 2.734,0 5.098,-0.45 7.086,-1.35 1.996,-0.9 3.656,-2.19 4.98,-3.87 1.328,-1.68 2.309,-3.65 2.934,-5.92 0.625,-2.26 0.937,-4.64 0.937,-7.14 0,-4.69 -1.605,-8.71 -4.808,-12.07 l 4.453,-4.1 c 0.238,0 0.355,-0.2 0.355,-0.59 l 0,-0.71 c 0,-0.62 -0.312,-0.93 -0.937,-0.93" /><path
         id="path212"
         style="fill:#262626;fill-opacity:1;fill-rule:nonzero;stroke:none"
         d="m 251.691,1941.43 c 0,-4.61 -1.214,-8.81 -3.64,-12.6 -2.418,-3.79 -5.621,-6.78 -9.606,-8.96 -3.984,-2.19 -8.203,-3.29 -12.652,-3.29 -4.457,0 -8.656,1 -12.602,2.99 -3.945,1.99 -7.125,4.77 -9.546,8.32 -2.426,3.56 -3.637,7.52 -3.637,11.9 0,3.51 0.566,6.54 1.703,9.08 1.129,2.54 2.73,4.63 4.801,6.27 2.066,1.64 4.492,2.87 7.265,3.69 2.774,0.82 5.844,1.23 9.203,1.23 0.934,0 1.403,-0.35 1.403,-1.06 l 0,-32.57 1.289,0 c 6.172,0 11.504,1.25 16,3.75 4.488,2.5 6.734,6.6 6.734,12.3 0,2.26 -0.527,4.38 -1.582,6.33 -1.058,1.95 -2.48,3.65 -4.277,5.1 -1.793,1.45 -3.746,2.44 -5.856,2.98 -0.238,0.08 -0.472,0.22 -0.707,0.41 -0.234,0.2 -0.351,0.41 -0.351,0.65 l 0,1.05 c 0,0.71 0.508,1.06 1.523,1.06 4.219,-1.02 7.696,-3.28 10.43,-6.8 2.738,-3.51 4.105,-7.46 4.105,-11.83 z m -30.121,-14.89 0,25.55 c -2.808,0 -5.66,-0.39 -8.55,-1.17 -2.895,-0.78 -5.297,-2.09 -7.207,-3.93 -1.915,-1.83 -2.872,-4.23 -2.872,-7.2 0,-4.22 1.993,-7.49 5.977,-9.79 3.984,-2.3 8.203,-3.46 12.652,-3.46" /><path
         id="path214"
         style="fill:#262626;fill-opacity:1;fill-rule:nonzero;stroke:none"
         d="m 250.398,1965.71 -3.98,0 c 0,2.5 -0.195,4.59 -0.586,6.27 -0.394,1.68 -1.371,2.52 -2.934,2.52 l -30.703,0 c -2.031,0 -3.496,-0.32 -4.394,-0.94 -0.895,-0.63 -1.442,-1.51 -1.637,-2.64 -0.199,-1.13 -0.301,-2.87 -0.301,-5.21 l -3.98,0 -1.172,16.29 11.019,0 c -3.285,1.48 -5.941,3.71 -7.972,6.67 -2.031,2.97 -3.047,6.18 -3.047,9.62 0,5.23 1.25,9.16 3.75,11.77 2.5,2.62 6.293,3.92 11.371,3.92 l 27.066,0 c 1.563,0 2.54,0.82 2.934,2.47 0.391,1.64 0.586,3.75 0.586,6.32 l 3.98,0 0,-25.77 -3.98,0 c 0,2.57 -0.195,4.68 -0.586,6.32 -0.394,1.64 -1.371,2.47 -2.934,2.47 l -26.722,0 c -3.668,0 -6.676,-0.53 -9.02,-1.59 -2.34,-1.05 -3.511,-3.26 -3.511,-6.62 0,-4.29 1.738,-7.85 5.214,-10.66 3.473,-2.81 7.399,-4.22 11.774,-4.22 l 22.265,0 c 1.563,0 2.54,0.82 2.934,2.46 0.391,1.64 0.586,3.71 0.586,6.21 l 3.98,0 0,-25.66" /><path
         id="path216"
         style="fill:#262626;fill-opacity:1;fill-rule:nonzero;stroke:none"
         d="m 250.754,2027.17 -18.399,0 c -0.55,0 -0.824,0.31 -0.824,0.94 l 0,1.4 c 0,0.47 0.274,0.78 0.824,0.94 10.86,2.03 16.29,7.07 16.29,15.12 0,3.51 -0.801,6.48 -2.407,8.91 -1.601,2.41 -4.082,3.63 -7.441,3.63 -2.418,0 -4.469,-0.94 -6.149,-2.82 -1.679,-1.87 -2.832,-4.1 -3.457,-6.68 l -1.523,-7.5 c -0.551,-2.5 -1.391,-4.79 -2.52,-6.85 -1.136,-2.07 -2.64,-3.77 -4.515,-5.1 -1.875,-1.33 -4.063,-1.99 -6.563,-1.99 -3.359,0 -6.074,0.86 -8.144,2.58 -2.071,1.71 -3.574,3.98 -4.508,6.79 -0.941,2.82 -1.41,5.82 -1.41,9.03 0,3.82 1.015,7.19 3.043,10.07 l -2.813,3.17 c -0.152,0 -0.23,0.2 -0.23,0.58 l 0,0.82 c 0,0.24 0.097,0.45 0.293,0.65 0.195,0.19 0.41,0.29 0.644,0.29 l 14.649,0 c 0.703,0 1.054,-0.31 1.054,-0.94 l 0,-1.4 c 0,-0.62 -0.351,-0.93 -1.054,-0.93 -3.906,0 -7.047,-1.1 -9.43,-3.29 -2.383,-2.19 -3.578,-5.23 -3.578,-9.14 0,-3.36 0.625,-6.27 1.875,-8.74 1.25,-2.45 3.398,-3.68 6.445,-3.68 2.11,0 3.828,0.88 5.16,2.64 1.325,1.75 2.262,3.84 2.813,6.27 l 1.519,7.61 c 0.547,2.5 1.524,4.86 2.934,7.09 1.406,2.23 3.164,3.99 5.273,5.28 2.11,1.29 4.493,1.93 7.149,1.93 2.734,0 5.098,-0.45 7.086,-1.35 1.996,-0.9 3.656,-2.19 4.98,-3.87 1.328,-1.68 2.309,-3.65 2.934,-5.92 0.625,-2.26 0.937,-4.64 0.937,-7.14 0,-4.69 -1.605,-8.71 -4.808,-12.07 l 4.453,-4.11 c 0.238,0 0.355,-0.19 0.355,-0.58 l 0,-0.7 c 0,-0.63 -0.312,-0.94 -0.937,-0.94" /><path
         id="path218"
         style="fill:#262626;fill-opacity:1;fill-rule:nonzero;stroke:none"
         d="m 237.043,2078.99 -24.848,0 c -2.031,0 -3.496,-0.31 -4.394,-0.94 -0.895,-0.62 -1.442,-1.5 -1.637,-2.63 -0.199,-1.13 -0.301,-2.87 -0.301,-5.22 l -3.98,0 -1.172,17 36.332,0 c 2.891,0 5.156,0.21 6.793,0.64 1.641,0.43 2.852,1.33 3.633,2.7 0.785,1.37 1.176,3.53 1.176,6.5 0,4.07 -1.68,7.28 -5.04,9.67 -3.359,2.38 -7.191,3.58 -11.492,3.58 l -19.918,0 c -2.031,0 -3.496,-0.32 -4.394,-0.94 -0.895,-0.63 -1.442,-1.51 -1.637,-2.64 -0.199,-1.14 -0.301,-2.87 -0.301,-5.22 l -3.98,0 -1.172,17 39.496,0 c 1.949,0 3.375,0.29 4.277,0.88 0.899,0.58 1.446,1.44 1.641,2.58 0.195,1.12 0.293,2.91 0.293,5.33 l 3.98,0 1.293,-16.64 -9.496,0 c 2.817,-1.41 5.102,-3.36 6.856,-5.86 1.758,-2.5 2.64,-5.24 2.64,-8.21 0,-5.39 -1.152,-9.66 -3.457,-12.83 -2.308,-3.17 -6.035,-4.75 -11.191,-4.75" /><path
         id="path220"
         style="fill:#262626;fill-opacity:1;fill-rule:nonzero;stroke:none"
         d="m 250.754,2131.67 -18.399,0 c -0.55,0 -0.824,0.31 -0.824,0.94 l 0,1.4 c 0,0.47 0.274,0.79 0.824,0.94 10.86,2.03 16.29,7.07 16.29,15.11 0,3.52 -0.801,6.49 -2.407,8.91 -1.601,2.42 -4.082,3.64 -7.441,3.64 -2.418,0 -4.469,-0.94 -6.149,-2.82 -1.679,-1.87 -2.832,-4.1 -3.457,-6.67 l -1.523,-7.5 c -0.551,-2.5 -1.391,-4.79 -2.52,-6.86 -1.136,-2.07 -2.64,-3.77 -4.515,-5.1 -1.875,-1.33 -4.063,-1.99 -6.563,-1.99 -3.359,0 -6.074,0.86 -8.144,2.58 -2.071,1.71 -3.574,3.98 -4.508,6.79 -0.941,2.82 -1.41,5.82 -1.41,9.02 0,3.83 1.015,7.19 3.043,10.08 l -2.813,3.17 c -0.152,0 -0.23,0.19 -0.23,0.58 l 0,0.83 c 0,0.23 0.097,0.44 0.293,0.64 0.195,0.2 0.41,0.3 0.644,0.3 l 14.649,0 c 0.703,0 1.054,-0.32 1.054,-0.94 l 0,-1.41 c 0,-0.63 -0.351,-0.94 -1.054,-0.94 -3.906,0 -7.047,-1.09 -9.43,-3.28 -2.383,-2.19 -3.578,-5.23 -3.578,-9.14 0,-3.36 0.625,-6.27 1.875,-8.73 1.25,-2.46 3.398,-3.69 6.445,-3.69 2.11,0 3.828,0.88 5.16,2.63 1.325,1.76 2.262,3.85 2.813,6.27 l 1.519,7.62 c 0.547,2.5 1.524,4.87 2.934,7.09 1.406,2.23 3.164,3.99 5.273,5.27 2.11,1.29 4.493,1.94 7.149,1.94 2.734,0 5.098,-0.45 7.086,-1.35 1.996,-0.89 3.656,-2.18 4.98,-3.86 1.328,-1.68 2.309,-3.66 2.934,-5.92 0.625,-2.27 0.937,-4.66 0.937,-7.16 0,-4.68 -1.605,-8.7 -4.808,-12.06 l 4.453,-4.11 c 0.238,0 0.355,-0.19 0.355,-0.58 l 0,-0.7 c 0,-0.63 -0.312,-0.94 -0.937,-0.94" /><path
         id="path222"
         style="fill:#262626;fill-opacity:1;fill-rule:nonzero;stroke:none"
         d="m 278.293,2242.9 c -3.285,-4.22 -7.055,-7.84 -11.309,-10.85 -4.261,-3 -8.812,-5.46 -13.652,-7.38 -4.844,-1.91 -9.906,-3.36 -15.18,-4.33 -5.273,-0.98 -10.566,-1.46 -15.879,-1.46 -5.386,0 -10.722,0.48 -15.996,1.46 -5.273,0.97 -10.351,2.44 -15.23,4.39 -4.887,1.95 -9.438,4.45 -13.652,7.5 -4.219,3.05 -7.934,6.6 -11.137,10.67 -0.156,0 -0.235,0.15 -0.235,0.46 l 0,1.06 c 0,0.24 0.098,0.45 0.293,0.65 0.196,0.19 0.411,0.29 0.645,0.29 0.391,0 0.664,-0.08 0.82,-0.23 3.516,-3.68 7.324,-6.73 11.43,-9.15 4.098,-2.42 8.473,-4.37 13.125,-5.85 4.644,-1.49 9.449,-2.56 14.414,-3.23 4.961,-0.67 10.137,-1 15.523,-1 23.832,0 41.957,6.37 54.375,19.11 0.157,0.23 0.469,0.35 0.938,0.35 0.156,0 0.352,-0.1 0.586,-0.29 0.234,-0.2 0.351,-0.41 0.351,-0.65 l 0,-1.06 c 0,-0.31 -0.074,-0.46 -0.23,-0.46" /><path
         id="path224"
         style="fill:#262626;fill-opacity:1;fill-rule:nonzero;stroke:none"
         d="m 250.754,2254.5 -18.399,0 c -0.55,0 -0.824,0.31 -0.824,0.94 l 0,1.41 c 0,0.46 0.274,0.78 0.824,0.94 10.86,2.03 16.29,7.07 16.29,15.11 0,3.51 -0.801,6.48 -2.407,8.91 -1.601,2.42 -4.082,3.63 -7.441,3.63 -2.418,0 -4.469,-0.94 -6.149,-2.81 -1.679,-1.88 -2.832,-4.11 -3.457,-6.68 l -1.523,-7.5 c -0.551,-2.5 -1.391,-4.79 -2.52,-6.86 -1.136,-2.07 -2.64,-3.77 -4.515,-5.09 -1.875,-1.33 -4.063,-2 -6.563,-2 -3.359,0 -6.074,0.86 -8.144,2.58 -2.071,1.72 -3.574,3.99 -4.508,6.8 -0.941,2.81 -1.41,5.82 -1.41,9.02 0,3.83 1.015,7.19 3.043,10.08 l -2.813,3.16 c -0.152,0 -0.23,0.2 -0.23,0.59 l 0,0.82 c 0,0.23 0.097,0.45 0.293,0.64 0.195,0.2 0.41,0.29 0.644,0.29 l 14.649,0 c 0.703,0 1.054,-0.31 1.054,-0.93 l 0,-1.41 c 0,-0.62 -0.351,-0.93 -1.054,-0.93 -3.906,0 -7.047,-1.1 -9.43,-3.29 -2.383,-2.19 -3.578,-5.23 -3.578,-9.13 0,-3.36 0.625,-6.27 1.875,-8.74 1.25,-2.46 3.398,-3.69 6.445,-3.69 2.11,0 3.828,0.88 5.16,2.64 1.325,1.75 2.262,3.84 2.813,6.27 l 1.519,7.61 c 0.547,2.5 1.524,4.87 2.934,7.1 1.406,2.22 3.164,3.98 5.273,5.27 2.11,1.29 4.493,1.93 7.149,1.93 2.734,0 5.098,-0.45 7.086,-1.35 1.996,-0.9 3.656,-2.19 4.98,-3.87 1.328,-1.67 2.309,-3.65 2.934,-5.91 0.625,-2.27 0.937,-4.65 0.937,-7.15 0,-4.69 -1.605,-8.71 -4.808,-12.07 l 4.453,-4.1 c 0.238,0 0.355,-0.19 0.355,-0.59 l 0,-0.7 c 0,-0.63 -0.312,-0.94 -0.937,-0.94" /><path
         id="path226"
         style="fill:#262626;fill-opacity:1;fill-rule:nonzero;stroke:none"
         d="m 278.523,2301.41 c 0,-0.63 -0.312,-0.94 -0.937,-0.94 -0.387,0 -0.66,0.08 -0.816,0.23 -12.5,12.82 -30.665,19.22 -54.497,19.22 -23.828,0 -41.953,-6.32 -54.375,-18.98 -0.152,-0.31 -0.464,-0.47 -0.937,-0.47 -0.234,0 -0.449,0.1 -0.645,0.29 -0.195,0.2 -0.293,0.41 -0.293,0.65 l 0,1.05 c 0,0.24 0.079,0.43 0.235,0.59 4.219,5.39 9.379,9.88 15.472,13.48 6.09,3.59 12.571,6.2 19.446,7.85 6.875,1.64 13.91,2.46 21.097,2.46 5.313,0 10.547,-0.45 15.707,-1.35 5.157,-0.9 10.231,-2.33 15.231,-4.28 5,-1.95 9.613,-4.43 13.832,-7.44 4.215,-3.01 7.965,-6.58 11.25,-10.72 0.156,-0.16 0.23,-0.35 0.23,-0.59 l 0,-1.05" /><path
         id="path228"
         style="fill:none;stroke:#0072bd;stroke-width:5.00250006;stroke-linecap:butt;stroke-linejoin:round;stroke-miterlimit:10;stroke-dasharray:none;stroke-opacity:1"
         d="m 791.781,2134.04 0,-813.54" /><path
         id="path230"
         style="fill:none;stroke:#0072bd;stroke-width:5.00250006;stroke-linecap:butt;stroke-linejoin:round;stroke-miterlimit:10;stroke-dasharray:none;stroke-opacity:1"
         d="m 1028.57,2106.04 0,-834.11" /><path
         id="path232"
         style="fill:none;stroke:#0072bd;stroke-width:5.00250006;stroke-linecap:butt;stroke-linejoin:round;stroke-miterlimit:10;stroke-dasharray:none;stroke-opacity:1"
         d="m 1265.36,1942.67 0,-771.53" /><path
         id="path234"
         style="fill:none;stroke:#0072bd;stroke-width:5.00250006;stroke-linecap:butt;stroke-linejoin:round;stroke-miterlimit:10;stroke-dasharray:none;stroke-opacity:1"
         d="m 1502.14,1826.44 0,-760.37" /><path
         id="path236"
         style="fill:none;stroke:#0072bd;stroke-width:5.00250006;stroke-linecap:butt;stroke-linejoin:round;stroke-miterlimit:10;stroke-dasharray:none;stroke-opacity:1"
         d="m 1738.93,1508.76 0,-714.944" /><path
         id="path238"
         style="fill:none;stroke:#0072bd;stroke-width:5.00250006;stroke-linecap:butt;stroke-linejoin:round;stroke-miterlimit:10;stroke-dasharray:none;stroke-opacity:1"
         d="m 1975.72,1634.41 0,-747.203" /><path
         id="path240"
         style="fill:none;stroke:#0072bd;stroke-width:5.00250006;stroke-linecap:butt;stroke-linejoin:round;stroke-miterlimit:10;stroke-dasharray:none;stroke-opacity:1"
         d="m 2212.5,1644.09 0,-743.961" /><path
         id="path242"
         style="fill:none;stroke:#0072bd;stroke-width:5.00250006;stroke-linecap:butt;stroke-linejoin:round;stroke-miterlimit:10;stroke-dasharray:none;stroke-opacity:1"
         d="m 2449.28,1546.37 0,-708.14" /><path
         id="path244"
         style="fill:none;stroke:#0072bd;stroke-width:5.00250006;stroke-linecap:butt;stroke-linejoin:round;stroke-miterlimit:10;stroke-dasharray:none;stroke-opacity:1"
         d="m 2686.07,1723.73 0,-714.85" /><path
         id="path246"
         style="fill:none;stroke:#0072bd;stroke-width:5.00250006;stroke-linecap:butt;stroke-linejoin:round;stroke-miterlimit:10;stroke-dasharray:none;stroke-opacity:1"
         d="m 2922.86,1724.32 0,-711.32" /><path
         id="path248"
         style="fill:none;stroke:#0072bd;stroke-width:5.00250006;stroke-linecap:butt;stroke-linejoin:round;stroke-miterlimit:10;stroke-dasharray:none;stroke-opacity:1"
         d="m 3159.64,1491 0,-745.566" /><path
         id="path250"
         style="fill:none;stroke:#0072bd;stroke-width:5.00250006;stroke-linecap:butt;stroke-linejoin:round;stroke-miterlimit:10;stroke-dasharray:none;stroke-opacity:1"
         d="m 3396.43,1752.44 0,-739.28" /><path
         id="path252"
         style="fill:none;stroke:#0072bd;stroke-width:5.00250006;stroke-linecap:butt;stroke-linejoin:round;stroke-miterlimit:10;stroke-dasharray:none;stroke-opacity:1"
         d="m 3633.22,1575.43 0,-789.692" /><path
         id="path254"
         style="fill:none;stroke:#0072bd;stroke-width:5.00250006;stroke-linecap:butt;stroke-linejoin:round;stroke-miterlimit:10;stroke-dasharray:none;stroke-opacity:1"
         d="m 791.781,2134.04 0,813.53" /><path
         id="path256"
         style="fill:none;stroke:#0072bd;stroke-width:5.00250006;stroke-linecap:butt;stroke-linejoin:round;stroke-miterlimit:10;stroke-dasharray:none;stroke-opacity:1"
         d="m 1028.57,2106.04 0,834.11" /><path
         id="path258"
         style="fill:none;stroke:#0072bd;stroke-width:5.00250006;stroke-linecap:butt;stroke-linejoin:round;stroke-miterlimit:10;stroke-dasharray:none;stroke-opacity:1"
         d="m 1265.36,1942.67 0,771.53" /><path
         id="path260"
         style="fill:none;stroke:#0072bd;stroke-width:5.00250006;stroke-linecap:butt;stroke-linejoin:round;stroke-miterlimit:10;stroke-dasharray:none;stroke-opacity:1"
         d="m 1502.14,1826.44 0,760.38" /><path
         id="path262"
         style="fill:none;stroke:#0072bd;stroke-width:5.00250006;stroke-linecap:butt;stroke-linejoin:round;stroke-miterlimit:10;stroke-dasharray:none;stroke-opacity:1"
         d="m 1738.93,1508.76 0,714.95" /><path
         id="path264"
         style="fill:none;stroke:#0072bd;stroke-width:5.00250006;stroke-linecap:butt;stroke-linejoin:round;stroke-miterlimit:10;stroke-dasharray:none;stroke-opacity:1"
         d="m 1975.72,1634.41 0,747.19" /><path
         id="path266"
         style="fill:none;stroke:#0072bd;stroke-width:5.00250006;stroke-linecap:butt;stroke-linejoin:round;stroke-miterlimit:10;stroke-dasharray:none;stroke-opacity:1"
         d="m 2212.5,1644.09 0,743.96" /><path
         id="path268"
         style="fill:none;stroke:#0072bd;stroke-width:5.00250006;stroke-linecap:butt;stroke-linejoin:round;stroke-miterlimit:10;stroke-dasharray:none;stroke-opacity:1"
         d="m 2449.28,1546.37 0,708.14" /><path
         id="path270"
         style="fill:none;stroke:#0072bd;stroke-width:5.00250006;stroke-linecap:butt;stroke-linejoin:round;stroke-miterlimit:10;stroke-dasharray:none;stroke-opacity:1"
         d="m 2686.07,1723.73 0,714.86" /><path
         id="path272"
         style="fill:none;stroke:#0072bd;stroke-width:5.00250006;stroke-linecap:butt;stroke-linejoin:round;stroke-miterlimit:10;stroke-dasharray:none;stroke-opacity:1"
         d="m 2922.86,1724.32 0,711.34" /><path
         id="path274"
         style="fill:none;stroke:#0072bd;stroke-width:5.00250006;stroke-linecap:butt;stroke-linejoin:round;stroke-miterlimit:10;stroke-dasharray:none;stroke-opacity:1"
         d="m 3159.64,1491 0,745.57" /><path
         id="path276"
         style="fill:none;stroke:#0072bd;stroke-width:5.00250006;stroke-linecap:butt;stroke-linejoin:round;stroke-miterlimit:10;stroke-dasharray:none;stroke-opacity:1"
         d="m 3396.43,1752.44 0,739.29" /><path
         id="path278"
         style="fill:none;stroke:#0072bd;stroke-width:5.00250006;stroke-linecap:butt;stroke-linejoin:round;stroke-miterlimit:10;stroke-dasharray:none;stroke-opacity:1"
         d="m 3633.22,1575.43 0,789.69" /><path
         id="path280"
         style="fill:none;stroke:#0072bd;stroke-width:5.00250006;stroke-linecap:butt;stroke-linejoin:round;stroke-miterlimit:10;stroke-dasharray:none;stroke-opacity:1"
         d="m 791.781,2134.04 236.789,-28 236.79,-163.37 236.78,-116.23 236.79,-317.68 236.79,125.65 236.78,9.68 236.78,-97.72 236.79,177.36 236.79,0.59 236.78,-233.32 236.79,261.44 236.79,-177.01" /><path
         id="path282"
         style="fill:#0072bd;fill-opacity:1;fill-rule:nonzero;stroke:none"
         d="m 791.785,2161.54 c 15.188,0 27.504,-12.32 27.504,-27.5 l 0,0 c 0,-15.19 -12.316,-27.51 -27.504,-27.51 -15.187,0 -27.5,12.32 -27.5,27.51 0,15.18 12.313,27.5 27.5,27.5 z m 0,4.99 c -17.945,0 -32.496,-14.55 -32.496,-32.49 0,-17.95 14.551,-32.5 32.496,-32.5 17.949,0 32.5,14.55 32.5,32.5 l 0,0 c 0,17.94 -14.551,32.49 -32.5,32.49" /><path
         id="path284"
         style="fill:#0072bd;fill-opacity:1;fill-rule:nonzero;stroke:none"
         d="m 1028.57,2133.54 c 15.19,0 27.5,-12.32 27.5,-27.5 l 0,0 c 0,-15.19 -12.31,-27.5 -27.5,-27.5 -15.19,0 -27.5,12.31 -27.5,27.5 0,15.18 12.31,27.5 27.5,27.5 z m 0,5 c -17.94,0 -32.496,-14.56 -32.496,-32.5 0,-17.95 14.556,-32.5 32.496,-32.5 17.95,0 32.5,14.55 32.5,32.5 l 0,0 c 0,17.94 -14.55,32.5 -32.5,32.5" /><path
         id="path286"
         style="fill:#0072bd;fill-opacity:1;fill-rule:nonzero;stroke:none"
         d="m 1265.36,1970.17 c 15.18,0 27.5,-12.31 27.5,-27.5 l 0,0 c 0,-15.19 -12.32,-27.5 -27.5,-27.5 -15.19,0 -27.5,12.31 -27.5,27.5 0,15.19 12.31,27.5 27.5,27.5 z m 0,5 c -17.95,0 -32.5,-14.55 -32.5,-32.5 0,-17.95 14.55,-32.5 32.5,-32.5 17.94,0 32.5,14.55 32.5,32.5 l 0,0 c 0,17.95 -14.56,32.5 -32.5,32.5" /><path
         id="path288"
         style="fill:#0072bd;fill-opacity:1;fill-rule:nonzero;stroke:none"
         d="m 1502.14,1853.94 c 15.19,0 27.5,-12.31 27.5,-27.5 l 0,0 c 0,-15.19 -12.31,-27.5 -27.5,-27.5 -15.18,0 -27.5,12.31 -27.5,27.5 0,15.19 12.32,27.5 27.5,27.5 z m 0,5 c -17.94,0 -32.5,-14.55 -32.5,-32.5 0,-17.95 14.56,-32.5 32.5,-32.5 17.95,0 32.5,14.55 32.5,32.5 l 0,0 c 0,17.95 -14.55,32.5 -32.5,32.5" /><path
         id="path290"
         style="fill:#0072bd;fill-opacity:1;fill-rule:nonzero;stroke:none"
         d="m 1738.93,1536.27 c 15.19,0 27.5,-12.32 27.5,-27.51 l 0,0 c 0,-15.19 -12.31,-27.5 -27.5,-27.5 -15.19,0 -27.5,12.31 -27.5,27.5 0,15.19 12.31,27.51 27.5,27.51 z m 0,4.99 c -17.95,0 -32.5,-14.55 -32.5,-32.5 0,-17.94 14.55,-32.49 32.5,-32.49 17.95,0 32.5,14.55 32.5,32.49 l 0,0 c 0,17.95 -14.55,32.5 -32.5,32.5" /><path
         id="path292"
         style="fill:#0072bd;fill-opacity:1;fill-rule:nonzero;stroke:none"
         d="m 1975.71,1661.91 c 15.19,0 27.5,-12.32 27.5,-27.5 l 0,0 c 0,-15.19 -12.31,-27.51 -27.5,-27.51 -15.18,0 -27.5,12.32 -27.5,27.51 0,15.18 12.32,27.5 27.5,27.5 z m 0,4.99 c -17.94,0 -32.5,-14.54 -32.5,-32.49 0,-17.95 14.56,-32.5 32.5,-32.5 17.95,0 32.5,14.55 32.5,32.5 l 0,0 c 0,17.95 -14.55,32.49 -32.5,32.49" /><path
         id="path294"
         style="fill:#0072bd;fill-opacity:1;fill-rule:nonzero;stroke:none"
         d="m 2212.5,1671.59 c 15.19,0 27.5,-12.31 27.5,-27.5 l 0,0 c 0,-15.18 -12.31,-27.5 -27.5,-27.5 -15.19,0 -27.5,12.32 -27.5,27.5 0,15.19 12.31,27.5 27.5,27.5 z m 0,5 c -17.95,0 -32.5,-14.55 -32.5,-32.5 0,-17.95 14.55,-32.5 32.5,-32.5 17.95,0 32.5,14.55 32.5,32.5 l 0,0 c 0,17.95 -14.55,32.5 -32.5,32.5" /><path
         id="path296"
         style="fill:#0072bd;fill-opacity:1;fill-rule:nonzero;stroke:none"
         d="m 2449.29,1573.87 c 15.18,0 27.5,-12.31 27.5,-27.5 l 0,0 c 0,-15.19 -12.32,-27.5 -27.5,-27.5 -15.19,0 -27.5,12.31 -27.5,27.5 0,15.19 12.31,27.5 27.5,27.5 z m 0,5 c -17.95,0 -32.5,-14.55 -32.5,-32.5 0,-17.95 14.55,-32.5 32.5,-32.5 17.94,0 32.5,14.55 32.5,32.5 l 0,0 c 0,17.95 -14.56,32.5 -32.5,32.5" /><path
         id="path298"
         style="fill:#0072bd;fill-opacity:1;fill-rule:nonzero;stroke:none"
         d="m 2686.07,1751.24 c 15.19,0 27.5,-12.32 27.5,-27.51 l 0,0 c 0,-15.18 -12.31,-27.5 -27.5,-27.5 -15.19,0 -27.5,12.32 -27.5,27.5 0,15.19 12.31,27.51 27.5,27.51 z m 0,4.99 c -17.94,0 -32.5,-14.55 -32.5,-32.5 0,-17.94 14.56,-32.49 32.5,-32.49 17.95,0 32.5,14.55 32.5,32.49 l 0,0 c 0,17.95 -14.55,32.5 -32.5,32.5" /><path
         id="path300"
         style="fill:#0072bd;fill-opacity:1;fill-rule:nonzero;stroke:none"
         d="m 2922.86,1751.83 c 15.18,0 27.5,-12.32 27.5,-27.51 l 0,0 c 0,-15.18 -12.32,-27.5 -27.5,-27.5 -15.19,0 -27.5,12.32 -27.5,27.5 0,15.19 12.31,27.51 27.5,27.51 z m 0,4.99 c -17.95,0 -32.5,-14.55 -32.5,-32.5 0,-17.94 14.55,-32.49 32.5,-32.49 17.94,0 32.5,14.55 32.5,32.49 l 0,0 c 0,17.95 -14.56,32.5 -32.5,32.5" /><path
         id="path302"
         style="fill:#0072bd;fill-opacity:1;fill-rule:nonzero;stroke:none"
         d="m 3159.64,1518.5 c 15.19,0 27.5,-12.31 27.5,-27.5 l 0,0 c 0,-15.19 -12.31,-27.5 -27.5,-27.5 -15.18,0 -27.5,12.31 -27.5,27.5 0,15.19 12.32,27.5 27.5,27.5 z m 0,5 c -17.94,0 -32.5,-14.55 -32.5,-32.5 0,-17.95 14.56,-32.5 32.5,-32.5 17.95,0 32.5,14.55 32.5,32.5 l 0,0 c 0,17.95 -14.55,32.5 -32.5,32.5" /><path
         id="path304"
         style="fill:#0072bd;fill-opacity:1;fill-rule:nonzero;stroke:none"
         d="m 3396.43,1779.95 c 15.19,0 27.5,-12.32 27.5,-27.51 l 0,0 c 0,-15.19 -12.31,-27.5 -27.5,-27.5 -15.19,0 -27.5,12.31 -27.5,27.5 0,15.19 12.31,27.51 27.5,27.51 z m 0,4.99 c -17.95,0 -32.5,-14.55 -32.5,-32.5 0,-17.95 14.55,-32.49 32.5,-32.49 17.95,0 32.5,14.54 32.5,32.49 l 0,0 c 0,17.95 -14.55,32.5 -32.5,32.5" /><path
         id="path306"
         style="fill:#0072bd;fill-opacity:1;fill-rule:nonzero;stroke:none"
         d="m 3633.21,1602.93 c 15.19,0 27.5,-12.31 27.5,-27.5 l 0,0 c 0,-15.19 -12.31,-27.5 -27.5,-27.5 -15.18,0 -27.5,12.31 -27.5,27.5 0,15.19 12.32,27.5 27.5,27.5 z m 0,5 c -17.94,0 -32.5,-14.55 -32.5,-32.5 0,-17.95 14.56,-32.5 32.5,-32.5 17.95,0 32.5,14.55 32.5,32.5 l 0,0 c 0,17.95 -14.55,32.5 -32.5,32.5" /><path
         id="path308"
         style="fill:#0072bd;fill-opacity:1;fill-rule:nonzero;stroke:none"
         d="m 761.785,1320.5 60,0" /><path
         id="path310"
         style="fill:none;stroke:#0072bd;stroke-width:5.00250006;stroke-linecap:butt;stroke-linejoin:miter;stroke-miterlimit:10;stroke-dasharray:none;stroke-opacity:1"
         d="m 761.785,1320.5 60,0" /><path
         id="path312"
         style="fill:#0072bd;fill-opacity:1;fill-rule:nonzero;stroke:none"
         d="m 998.57,1271.92 60,0" /><path
         id="path314"
         style="fill:none;stroke:#0072bd;stroke-width:5.00250006;stroke-linecap:butt;stroke-linejoin:miter;stroke-miterlimit:10;stroke-dasharray:none;stroke-opacity:1"
         d="m 998.57,1271.92 60,0" /><path
         id="path316"
         style="fill:#0072bd;fill-opacity:1;fill-rule:nonzero;stroke:none"
         d="m 1235.36,1171.14 60,0" /><path
         id="path318"
         style="fill:none;stroke:#0072bd;stroke-width:5.00250006;stroke-linecap:butt;stroke-linejoin:miter;stroke-miterlimit:10;stroke-dasharray:none;stroke-opacity:1"
         d="m 1235.36,1171.14 60,0" /><path
         id="path320"
         style="fill:#0072bd;fill-opacity:1;fill-rule:nonzero;stroke:none"
         d="m 1472.14,1066.06 60,0" /><path
         id="path322"
         style="fill:none;stroke:#0072bd;stroke-width:5.00250006;stroke-linecap:butt;stroke-linejoin:miter;stroke-miterlimit:10;stroke-dasharray:none;stroke-opacity:1"
         d="m 1472.14,1066.06 60,0" /><path
         id="path324"
         style="fill:#0072bd;fill-opacity:1;fill-rule:nonzero;stroke:none"
         d="m 1708.93,793.813 60,0" /><path
         id="path326"
         style="fill:none;stroke:#0072bd;stroke-width:5.00250006;stroke-linecap:butt;stroke-linejoin:miter;stroke-miterlimit:10;stroke-dasharray:none;stroke-opacity:1"
         d="m 1708.93,793.813 60,0" /><path
         id="path328"
         style="fill:#0072bd;fill-opacity:1;fill-rule:nonzero;stroke:none"
         d="m 1945.71,887.207 60,0" /><path
         id="path330"
         style="fill:none;stroke:#0072bd;stroke-width:5.00250006;stroke-linecap:butt;stroke-linejoin:miter;stroke-miterlimit:10;stroke-dasharray:none;stroke-opacity:1"
         d="m 1945.71,887.207 60,0" /><path
         id="path332"
         style="fill:#0072bd;fill-opacity:1;fill-rule:nonzero;stroke:none"
         d="m 2182.5,900.129 60,0" /><path
         id="path334"
         style="fill:none;stroke:#0072bd;stroke-width:5.00250006;stroke-linecap:butt;stroke-linejoin:miter;stroke-miterlimit:10;stroke-dasharray:none;stroke-opacity:1"
         d="m 2182.5,900.129 60,0" /><path
         id="path336"
         style="fill:#0072bd;fill-opacity:1;fill-rule:nonzero;stroke:none"
         d="m 2419.29,838.23 60,0" /><path
         id="path338"
         style="fill:none;stroke:#0072bd;stroke-width:5.00250006;stroke-linecap:butt;stroke-linejoin:miter;stroke-miterlimit:10;stroke-dasharray:none;stroke-opacity:1"
         d="m 2419.29,838.23 60,0" /><path
         id="path340"
         style="fill:#0072bd;fill-opacity:1;fill-rule:nonzero;stroke:none"
         d="m 2656.07,1008.88 60,0" /><path
         id="path342"
         style="fill:none;stroke:#0072bd;stroke-width:5.00250006;stroke-linecap:butt;stroke-linejoin:miter;stroke-miterlimit:10;stroke-dasharray:none;stroke-opacity:1"
         d="m 2656.07,1008.88 60,0" /><path
         id="path344"
         style="fill:#0072bd;fill-opacity:1;fill-rule:nonzero;stroke:none"
         d="m 2892.86,1012.99 60,0" /><path
         id="path346"
         style="fill:none;stroke:#0072bd;stroke-width:5.00250006;stroke-linecap:butt;stroke-linejoin:miter;stroke-miterlimit:10;stroke-dasharray:none;stroke-opacity:1"
         d="m 2892.86,1012.99 60,0" /><path
         id="path348"
         style="fill:#0072bd;fill-opacity:1;fill-rule:nonzero;stroke:none"
         d="m 3129.64,745.43 60,0" /><path
         id="path350"
         style="fill:none;stroke:#0072bd;stroke-width:5.00250006;stroke-linecap:butt;stroke-linejoin:miter;stroke-miterlimit:10;stroke-dasharray:none;stroke-opacity:1"
         d="m 3129.64,745.43 60,0" /><path
         id="path352"
         style="fill:#0072bd;fill-opacity:1;fill-rule:nonzero;stroke:none"
         d="m 3366.43,1013.16 60,0" /><path
         id="path354"
         style="fill:none;stroke:#0072bd;stroke-width:5.00250006;stroke-linecap:butt;stroke-linejoin:miter;stroke-miterlimit:10;stroke-dasharray:none;stroke-opacity:1"
         d="m 3366.43,1013.16 60,0" /><path
         id="path356"
         style="fill:#0072bd;fill-opacity:1;fill-rule:nonzero;stroke:none"
         d="m 3603.21,785.734 60,0" /><path
         id="path358"
         style="fill:none;stroke:#0072bd;stroke-width:5.00250006;stroke-linecap:butt;stroke-linejoin:miter;stroke-miterlimit:10;stroke-dasharray:none;stroke-opacity:1"
         d="m 3603.21,785.734 60,0" /><path
         id="path360"
         style="fill:#0072bd;fill-opacity:1;fill-rule:nonzero;stroke:none"
         d="m 761.785,2947.58 60,0" /><path
         id="path362"
         style="fill:none;stroke:#0072bd;stroke-width:5.00250006;stroke-linecap:butt;stroke-linejoin:miter;stroke-miterlimit:10;stroke-dasharray:none;stroke-opacity:1"
         d="m 761.785,2947.58 60,0" /><path
         id="path364"
         style="fill:#0072bd;fill-opacity:1;fill-rule:nonzero;stroke:none"
         d="m 998.57,2940.15 60,0" /><path
         id="path366"
         style="fill:none;stroke:#0072bd;stroke-width:5.00250006;stroke-linecap:butt;stroke-linejoin:miter;stroke-miterlimit:10;stroke-dasharray:none;stroke-opacity:1"
         d="m 998.57,2940.15 60,0" /><path
         id="path368"
         style="fill:#0072bd;fill-opacity:1;fill-rule:nonzero;stroke:none"
         d="m 1235.36,2714.2 60,0" /><path
         id="path370"
         style="fill:none;stroke:#0072bd;stroke-width:5.00250006;stroke-linecap:butt;stroke-linejoin:miter;stroke-miterlimit:10;stroke-dasharray:none;stroke-opacity:1"
         d="m 1235.36,2714.2 60,0" /><path
         id="path372"
         style="fill:#0072bd;fill-opacity:1;fill-rule:nonzero;stroke:none"
         d="m 1472.14,2586.81 60,0" /><path
         id="path374"
         style="fill:none;stroke:#0072bd;stroke-width:5.00250006;stroke-linecap:butt;stroke-linejoin:miter;stroke-miterlimit:10;stroke-dasharray:none;stroke-opacity:1"
         d="m 1472.14,2586.81 60,0" /><path
         id="path376"
         style="fill:#0072bd;fill-opacity:1;fill-rule:nonzero;stroke:none"
         d="m 1708.93,2223.71 60,0" /><path
         id="path378"
         style="fill:none;stroke:#0072bd;stroke-width:5.00250006;stroke-linecap:butt;stroke-linejoin:miter;stroke-miterlimit:10;stroke-dasharray:none;stroke-opacity:1"
         d="m 1708.93,2223.71 60,0" /><path
         id="path380"
         style="fill:#0072bd;fill-opacity:1;fill-rule:nonzero;stroke:none"
         d="m 1945.71,2381.61 60,0" /><path
         id="path382"
         style="fill:none;stroke:#0072bd;stroke-width:5.00250006;stroke-linecap:butt;stroke-linejoin:miter;stroke-miterlimit:10;stroke-dasharray:none;stroke-opacity:1"
         d="m 1945.71,2381.61 60,0" /><path
         id="path384"
         style="fill:#0072bd;fill-opacity:1;fill-rule:nonzero;stroke:none"
         d="m 2182.5,2388.05 60,0" /><path
         id="path386"
         style="fill:none;stroke:#0072bd;stroke-width:5.00250006;stroke-linecap:butt;stroke-linejoin:miter;stroke-miterlimit:10;stroke-dasharray:none;stroke-opacity:1"
         d="m 2182.5,2388.05 60,0" /><path
         id="path388"
         style="fill:#0072bd;fill-opacity:1;fill-rule:nonzero;stroke:none"
         d="m 2419.29,2254.51 60,0" /><path
         id="path390"
         style="fill:none;stroke:#0072bd;stroke-width:5.00250006;stroke-linecap:butt;stroke-linejoin:miter;stroke-miterlimit:10;stroke-dasharray:none;stroke-opacity:1"
         d="m 2419.29,2254.51 60,0" /><path
         id="path392"
         style="fill:#0072bd;fill-opacity:1;fill-rule:nonzero;stroke:none"
         d="m 2656.07,2438.59 60,0" /><path
         id="path394"
         style="fill:none;stroke:#0072bd;stroke-width:5.00250006;stroke-linecap:butt;stroke-linejoin:miter;stroke-miterlimit:10;stroke-dasharray:none;stroke-opacity:1"
         d="m 2656.07,2438.59 60,0" /><path
         id="path396"
         style="fill:#0072bd;fill-opacity:1;fill-rule:nonzero;stroke:none"
         d="m 2892.86,2435.66 60,0" /><path
         id="path398"
         style="fill:none;stroke:#0072bd;stroke-width:5.00250006;stroke-linecap:butt;stroke-linejoin:miter;stroke-miterlimit:10;stroke-dasharray:none;stroke-opacity:1"
         d="m 2892.86,2435.66 60,0" /><path
         id="path400"
         style="fill:#0072bd;fill-opacity:1;fill-rule:nonzero;stroke:none"
         d="m 3129.64,2236.57 60,0" /><path
         id="path402"
         style="fill:none;stroke:#0072bd;stroke-width:5.00250006;stroke-linecap:butt;stroke-linejoin:miter;stroke-miterlimit:10;stroke-dasharray:none;stroke-opacity:1"
         d="m 3129.64,2236.57 60,0" /><path
         id="path404"
         style="fill:#0072bd;fill-opacity:1;fill-rule:nonzero;stroke:none"
         d="m 3366.43,2491.72 60,0" /><path
         id="path406"
         style="fill:none;stroke:#0072bd;stroke-width:5.00250006;stroke-linecap:butt;stroke-linejoin:miter;stroke-miterlimit:10;stroke-dasharray:none;stroke-opacity:1"
         d="m 3366.43,2491.72 60,0" /><path
         id="path408"
         style="fill:#0072bd;fill-opacity:1;fill-rule:nonzero;stroke:none"
         d="m 3603.21,2365.12 60,0" /><path
         id="path410"
         style="fill:none;stroke:#0072bd;stroke-width:5.00250006;stroke-linecap:butt;stroke-linejoin:miter;stroke-miterlimit:10;stroke-dasharray:none;stroke-opacity:1"
         d="m 3603.21,2365.12 60,0" /></g></g></svg>