<?xml version="1.0" encoding="UTF-8" standalone="no"?>
<svg
   xmlns:dc="http://purl.org/dc/elements/1.1/"
   xmlns:cc="http://creativecommons.org/ns#"
   xmlns:rdf="http://www.w3.org/1999/02/22-rdf-syntax-ns#"
   xmlns:svg="http://www.w3.org/2000/svg"
   xmlns="http://www.w3.org/2000/svg"
   viewBox="0 0 535 422.5"
   height="422.5"
   width="535"
   xml:space="preserve"
   version="1.1"
   id="svg2"><metadata
     id="metadata8"><rdf:RDF><cc:Work
         rdf:about=""><dc:format>image/svg+xml</dc:format><dc:type
           rdf:resource="http://purl.org/dc/dcmitype/StillImage" /></cc:Work></rdf:RDF></metadata><defs
     id="defs6"><clipPath
       id="clipPath18"
       clipPathUnits="userSpaceOnUse"><path
         id="path20"
         d="m 0,3375 4275,0 L 4275,0 0,0 0,3375 Z" /></clipPath></defs><g
     transform="matrix(1.25,0,0,-1.25,0,422.5)"
     id="g10"><g
       transform="scale(0.1,0.1)"
       id="g12"><g
         id="g14"><g
           clip-path="url(#clipPath18)"
           id="g16"><path
             id="path22"
             style="fill:#ffffff;fill-opacity:1;fill-rule:nonzero;stroke:none"
             d="m 0,0 4275,0 0,3375 L 0,3375 0,0 Z" /></g></g><path
         id="path24"
         style="fill:#ffffff;fill-opacity:1;fill-rule:nonzero;stroke:none"
         d="m 0,0 4275,0 0,3375 L 0,3375 0,0 Z" /><path
         id="path26"
         style="fill:#ffffff;fill-opacity:1;fill-rule:nonzero;stroke:none"
         d="m 555,375 3315,0 0,2745 -3315,0 0,-2745 z" /><path
         id="path28"
         style="fill:none;stroke:#dfdfdf;stroke-width:5.00250006;stroke-linecap:butt;stroke-linejoin:round;stroke-miterlimit:10;stroke-dasharray:none;stroke-opacity:1"
         d="m 729.473,375 0,2745" /><path
         id="path30"
         style="fill:none;stroke:#dfdfdf;stroke-width:5.00250006;stroke-linecap:butt;stroke-linejoin:round;stroke-miterlimit:10;stroke-dasharray:none;stroke-opacity:1"
         d="m 1078.42,375 0,2745" /><path
         id="path32"
         style="fill:none;stroke:#dfdfdf;stroke-width:5.00250006;stroke-linecap:butt;stroke-linejoin:round;stroke-miterlimit:10;stroke-dasharray:none;stroke-opacity:1"
         d="m 1427.37,375 0,2745" /><path
         id="path34"
         style="fill:none;stroke:#dfdfdf;stroke-width:5.00250006;stroke-linecap:butt;stroke-linejoin:round;stroke-miterlimit:10;stroke-dasharray:none;stroke-opacity:1"
         d="m 1776.32,375 0,2745" /><path
         id="path36"
         style="fill:none;stroke:#dfdfdf;stroke-width:5.00250006;stroke-linecap:butt;stroke-linejoin:round;stroke-miterlimit:10;stroke-dasharray:none;stroke-opacity:1"
         d="m 2125.26,375 0,2745" /><path
         id="path38"
         style="fill:none;stroke:#dfdfdf;stroke-width:5.00250006;stroke-linecap:butt;stroke-linejoin:round;stroke-miterlimit:10;stroke-dasharray:none;stroke-opacity:1"
         d="m 2474.21,375 0,2745" /><path
         id="path40"
         style="fill:none;stroke:#dfdfdf;stroke-width:5.00250006;stroke-linecap:butt;stroke-linejoin:round;stroke-miterlimit:10;stroke-dasharray:none;stroke-opacity:1"
         d="m 2823.16,375 0,2745" /><path
         id="path42"
         style="fill:none;stroke:#dfdfdf;stroke-width:5.00250006;stroke-linecap:butt;stroke-linejoin:round;stroke-miterlimit:10;stroke-dasharray:none;stroke-opacity:1"
         d="m 3172.1,375 0,2745" /><path
         id="path44"
         style="fill:none;stroke:#dfdfdf;stroke-width:5.00250006;stroke-linecap:butt;stroke-linejoin:round;stroke-miterlimit:10;stroke-dasharray:none;stroke-opacity:1"
         d="m 3521.05,375 0,2745" /><path
         id="path46"
         style="fill:none;stroke:#dfdfdf;stroke-width:5.00250006;stroke-linecap:butt;stroke-linejoin:round;stroke-miterlimit:10;stroke-dasharray:none;stroke-opacity:1"
         d="m 3870,375 0,2745" /><path
         id="path48"
         style="fill:none;stroke:#dfdfdf;stroke-width:5.00250006;stroke-linecap:butt;stroke-linejoin:round;stroke-miterlimit:10;stroke-dasharray:none;stroke-opacity:1"
         d="M 3870,375 555,375" /><path
         id="path50"
         style="fill:none;stroke:#dfdfdf;stroke-width:5.00250006;stroke-linecap:butt;stroke-linejoin:round;stroke-miterlimit:10;stroke-dasharray:none;stroke-opacity:1"
         d="m 3870,649.5 -3315,0" /><path
         id="path52"
         style="fill:none;stroke:#dfdfdf;stroke-width:5.00250006;stroke-linecap:butt;stroke-linejoin:round;stroke-miterlimit:10;stroke-dasharray:none;stroke-opacity:1"
         d="M 3870,924 555,924" /><path
         id="path54"
         style="fill:none;stroke:#dfdfdf;stroke-width:5.00250006;stroke-linecap:butt;stroke-linejoin:round;stroke-miterlimit:10;stroke-dasharray:none;stroke-opacity:1"
         d="m 3870,1198.5 -3315,0" /><path
         id="path56"
         style="fill:none;stroke:#dfdfdf;stroke-width:5.00250006;stroke-linecap:butt;stroke-linejoin:round;stroke-miterlimit:10;stroke-dasharray:none;stroke-opacity:1"
         d="m 3870,1473 -3315,0" /><path
         id="path58"
         style="fill:none;stroke:#dfdfdf;stroke-width:5.00250006;stroke-linecap:butt;stroke-linejoin:round;stroke-miterlimit:10;stroke-dasharray:none;stroke-opacity:1"
         d="m 3870,1747.5 -3315,0" /><path
         id="path60"
         style="fill:none;stroke:#dfdfdf;stroke-width:5.00250006;stroke-linecap:butt;stroke-linejoin:round;stroke-miterlimit:10;stroke-dasharray:none;stroke-opacity:1"
         d="m 3870,2022 -3315,0" /><path
         id="path62"
         style="fill:none;stroke:#dfdfdf;stroke-width:5.00250006;stroke-linecap:butt;stroke-linejoin:round;stroke-miterlimit:10;stroke-dasharray:none;stroke-opacity:1"
         d="m 3870,2296.5 -3315,0" /><path
         id="path64"
         style="fill:none;stroke:#dfdfdf;stroke-width:5.00250006;stroke-linecap:butt;stroke-linejoin:round;stroke-miterlimit:10;stroke-dasharray:none;stroke-opacity:1"
         d="m 3870,2571 -3315,0" /><path
         id="path66"
         style="fill:none;stroke:#dfdfdf;stroke-width:5.00250006;stroke-linecap:butt;stroke-linejoin:round;stroke-miterlimit:10;stroke-dasharray:none;stroke-opacity:1"
         d="m 3870,2845.5 -3315,0" /><path
         id="path68"
         style="fill:none;stroke:#dfdfdf;stroke-width:5.00250006;stroke-linecap:butt;stroke-linejoin:round;stroke-miterlimit:10;stroke-dasharray:none;stroke-opacity:1"
         d="m 3870,3120 -3315,0" /><path
         id="path70"
         style="fill:none;stroke:#262626;stroke-width:5.00250006;stroke-linecap:square;stroke-linejoin:round;stroke-miterlimit:10;stroke-dasharray:none;stroke-opacity:1"
         d="m 555,375 3315,0" /><path
         id="path72"
         style="fill:none;stroke:#262626;stroke-width:5.00250006;stroke-linecap:square;stroke-linejoin:round;stroke-miterlimit:10;stroke-dasharray:none;stroke-opacity:1"
         d="m 555,3120 3315,0" /><path
         id="path74"
         style="fill:none;stroke:#262626;stroke-width:5.00250006;stroke-linecap:square;stroke-linejoin:round;stroke-miterlimit:10;stroke-dasharray:none;stroke-opacity:1"
         d="m 729.473,375 0,33.148" /><path
         id="path76"
         style="fill:none;stroke:#262626;stroke-width:5.00250006;stroke-linecap:square;stroke-linejoin:round;stroke-miterlimit:10;stroke-dasharray:none;stroke-opacity:1"
         d="m 1078.42,375 0,33.148" /><path
         id="path78"
         style="fill:none;stroke:#262626;stroke-width:5.00250006;stroke-linecap:square;stroke-linejoin:round;stroke-miterlimit:10;stroke-dasharray:none;stroke-opacity:1"
         d="m 1427.37,375 0,33.148" /><path
         id="path80"
         style="fill:none;stroke:#262626;stroke-width:5.00250006;stroke-linecap:square;stroke-linejoin:round;stroke-miterlimit:10;stroke-dasharray:none;stroke-opacity:1"
         d="m 1776.32,375 0,33.148" /><path
         id="path82"
         style="fill:none;stroke:#262626;stroke-width:5.00250006;stroke-linecap:square;stroke-linejoin:round;stroke-miterlimit:10;stroke-dasharray:none;stroke-opacity:1"
         d="m 2125.26,375 0,33.148" /><path
         id="path84"
         style="fill:none;stroke:#262626;stroke-width:5.00250006;stroke-linecap:square;stroke-linejoin:round;stroke-miterlimit:10;stroke-dasharray:none;stroke-opacity:1"
         d="m 2474.21,375 0,33.148" /><path
         id="path86"
         style="fill:none;stroke:#262626;stroke-width:5.00250006;stroke-linecap:square;stroke-linejoin:round;stroke-miterlimit:10;stroke-dasharray:none;stroke-opacity:1"
         d="m 2823.16,375 0,33.148" /><path
         id="path88"
         style="fill:none;stroke:#262626;stroke-width:5.00250006;stroke-linecap:square;stroke-linejoin:round;stroke-miterlimit:10;stroke-dasharray:none;stroke-opacity:1"
         d="m 3172.1,375 0,33.148" /><path
         id="path90"
         style="fill:none;stroke:#262626;stroke-width:5.00250006;stroke-linecap:square;stroke-linejoin:round;stroke-miterlimit:10;stroke-dasharray:none;stroke-opacity:1"
         d="m 3521.05,375 0,33.148" /><path
         id="path92"
         style="fill:none;stroke:#262626;stroke-width:5.00250006;stroke-linecap:square;stroke-linejoin:round;stroke-miterlimit:10;stroke-dasharray:none;stroke-opacity:1"
         d="m 3870,375 0,33.148" /><path
         id="path94"
         style="fill:none;stroke:#262626;stroke-width:5.00250006;stroke-linecap:square;stroke-linejoin:round;stroke-miterlimit:10;stroke-dasharray:none;stroke-opacity:1"
         d="m 729.473,3120 0,-33.15" /><path
         id="path96"
         style="fill:none;stroke:#262626;stroke-width:5.00250006;stroke-linecap:square;stroke-linejoin:round;stroke-miterlimit:10;stroke-dasharray:none;stroke-opacity:1"
         d="m 1078.42,3120 0,-33.15" /><path
         id="path98"
         style="fill:none;stroke:#262626;stroke-width:5.00250006;stroke-linecap:square;stroke-linejoin:round;stroke-miterlimit:10;stroke-dasharray:none;stroke-opacity:1"
         d="m 1427.37,3120 0,-33.15" /><path
         id="path100"
         style="fill:none;stroke:#262626;stroke-width:5.00250006;stroke-linecap:square;stroke-linejoin:round;stroke-miterlimit:10;stroke-dasharray:none;stroke-opacity:1"
         d="m 1776.32,3120 0,-33.15" /><path
         id="path102"
         style="fill:none;stroke:#262626;stroke-width:5.00250006;stroke-linecap:square;stroke-linejoin:round;stroke-miterlimit:10;stroke-dasharray:none;stroke-opacity:1"
         d="m 2125.26,3120 0,-33.15" /><path
         id="path104"
         style="fill:none;stroke:#262626;stroke-width:5.00250006;stroke-linecap:square;stroke-linejoin:round;stroke-miterlimit:10;stroke-dasharray:none;stroke-opacity:1"
         d="m 2474.21,3120 0,-33.15" /><path
         id="path106"
         style="fill:none;stroke:#262626;stroke-width:5.00250006;stroke-linecap:square;stroke-linejoin:round;stroke-miterlimit:10;stroke-dasharray:none;stroke-opacity:1"
         d="m 2823.16,3120 0,-33.15" /><path
         id="path108"
         style="fill:none;stroke:#262626;stroke-width:5.00250006;stroke-linecap:square;stroke-linejoin:round;stroke-miterlimit:10;stroke-dasharray:none;stroke-opacity:1"
         d="m 3172.1,3120 0,-33.15" /><path
         id="path110"
         style="fill:none;stroke:#262626;stroke-width:5.00250006;stroke-linecap:square;stroke-linejoin:round;stroke-miterlimit:10;stroke-dasharray:none;stroke-opacity:1"
         d="m 3521.05,3120 0,-33.15" /><path
         id="path112"
         style="fill:none;stroke:#262626;stroke-width:5.00250006;stroke-linecap:square;stroke-linejoin:round;stroke-miterlimit:10;stroke-dasharray:none;stroke-opacity:1"
         d="m 3870,3120 0,-33.15" /><g
         transform="scale(10,10)"
         id="g114"><text
           id="text116"
           style="font-variant:normal;font-weight:normal;font-size:9.99975014px;font-family:Helvetica;-inkscape-font-specification:Helvetica;writing-mode:lr-tb;fill:#262626;fill-opacity:1;fill-rule:nonzero;stroke:none"
           transform="matrix(1,0,0,-1,69.5723,23.75)"><tspan
             id="tspan118"
             y="0"
             x="0 34.894928 69.789452 101.68436 107.24422 136.57889 142.13875 171.47382 177.03368 206.36835 211.92821 241.26328 246.82314 276.15781 281.71765 311.05273 316.61258">46810121416182022</tspan></text>
</g><path
         id="path120"
         style="fill:#262626;fill-opacity:1;fill-rule:nonzero;stroke:none"
         d="m 1500.7,103.457 0,26.25 c 0,0.625 0.31,0.938 0.94,0.938 l 1.4,0 c 0.23,0 0.45,-0.098 0.64,-0.293 0.2,-0.196 0.3,-0.411 0.3,-0.645 0,-7.34 2.26,-13.023 6.79,-17.047 4.53,-4.023 10.52,-6.039 17.93,-6.039 2.59,0 4.99,0.742 7.21,2.231 2.23,1.484 3.95,3.437 5.15,5.855 1.22,2.426 1.83,4.965 1.83,7.621 0,2.266 -0.47,4.473 -1.41,6.621 -0.94,2.145 -2.27,4 -3.99,5.567 -1.72,1.558 -3.63,2.613 -5.74,3.164 l -14.65,3.519 c -4.84,1.25 -8.79,3.864 -11.83,7.844 -3.05,3.984 -4.57,8.441 -4.57,13.363 0,3.907 1,7.559 2.98,10.957 2,3.399 4.66,6.09 7.98,8.086 3.32,1.992 6.93,2.985 10.83,2.985 7.5,0 13.48,-2.536 17.94,-7.61 l 4.56,7.258 c 0.24,0.234 0.51,0.352 0.82,0.352 l 0.71,0 c 0.23,0 0.44,-0.075 0.64,-0.231 0.2,-0.156 0.29,-0.39 0.29,-0.707 l 0,-26.129 c 0,-0.625 -0.31,-0.937 -0.93,-0.937 l -1.29,0 c -0.7,0 -1.05,0.312 -1.05,0.937 0,1.949 -0.32,4.059 -0.94,6.332 -0.63,2.262 -1.51,4.43 -2.64,6.5 -1.14,2.071 -2.37,3.77 -3.69,5.094 -3.68,3.676 -8.48,5.512 -14.42,5.512 -2.58,0 -4.94,-0.645 -7.08,-1.934 -2.15,-1.293 -3.87,-3.07 -5.16,-5.332 -1.29,-2.266 -1.94,-4.609 -1.94,-7.027 0,-3.207 1,-6.121 2.99,-8.739 1.99,-2.617 4.59,-4.351 7.8,-5.214 l 14.64,-3.516 c 2.42,-0.625 4.71,-1.699 6.86,-3.219 2.15,-1.523 3.93,-3.281 5.33,-5.273 1.41,-1.992 2.52,-4.242 3.34,-6.742 0.82,-2.5 1.23,-5.036 1.23,-7.61 0,-4.066 -0.94,-7.918 -2.81,-11.551 -1.88,-3.632 -4.49,-6.539 -7.85,-8.73 -3.36,-2.184 -7.07,-3.277 -11.14,-3.277 -2.5,0 -5.04,0.273 -7.61,0.816 -2.58,0.551 -4.98,1.391 -7.21,2.52 -2.23,1.136 -4.24,2.601 -6.03,4.394 l -4.69,-7.379 c -0.23,-0.234 -0.51,-0.351 -0.82,-0.351 l -0.7,0 c -0.63,0 -0.94,0.273 -0.94,0.816" /><path
         id="path122"
         style="fill:#262626;fill-opacity:1;fill-rule:nonzero;stroke:none"
         d="m 1558.41,83.3047 0,3.8633 c 2.58,0 4.68,0.2148 6.32,0.6445 1.65,0.4297 2.47,1.4258 2.47,2.9922 l 0,54.2543 c 0,2.031 -0.74,3.3 -2.23,3.812 -1.48,0.508 -3.67,0.766 -6.56,0.766 l 0,3.98 16.64,1.172 0,-6.918 c 2.03,2.266 4.41,3.988 7.15,5.16 2.73,1.172 5.62,1.758 8.67,1.758 4.45,0 8.45,-1.195 12.01,-3.578 3.55,-2.383 6.33,-5.523 8.32,-9.43 2,-3.91 2.99,-8.051 2.99,-12.426 0,-4.531 -1.11,-8.746 -3.34,-12.652 -2.22,-3.906 -5.25,-7.031 -9.08,-9.375 -3.83,-2.344 -8.01,-3.519 -12.54,-3.519 -5.47,0 -10.08,2.23 -13.83,6.683 l 0,-19.6873 c 0,-1.5664 0.82,-2.5625 2.46,-2.9922 1.64,-0.4297 3.75,-0.6445 6.33,-0.6445 l 0,-3.8633 -25.78,0 z m 16.99,32.6913 c 1.33,-2.652 3.17,-4.84 5.51,-6.562 2.34,-1.719 4.88,-2.579 7.61,-2.579 2.59,0 4.89,0.684 6.92,2.055 2.03,1.363 3.71,3.219 5.04,5.567 1.33,2.343 2.32,4.804 2.98,7.378 0.67,2.579 1,5.079 1,7.5 0,3.051 -0.54,6.313 -1.63,9.786 -1.1,3.476 -2.76,6.425 -4.99,8.851 -2.23,2.422 -4.9,3.629 -8.03,3.629 -3.04,0 -5.83,-0.777 -8.37,-2.34 -2.54,-1.562 -4.56,-3.672 -6.04,-6.328 l 0,-26.957" /><path
         id="path124"
         style="fill:#262626;fill-opacity:1;fill-rule:nonzero;stroke:none"
         d="m 1621.04,116.117 c 0,4.449 1.76,8.082 5.28,10.899 3.51,2.808 7.75,4.8 12.71,5.976 4.96,1.172 9.63,1.754 14.01,1.754 l 0,4.578 c 0,2.184 -0.47,4.289 -1.41,6.321 -0.93,2.035 -2.3,3.695 -4.1,4.98 -1.8,1.289 -3.79,1.934 -5.98,1.934 -4.92,0 -8.71,-1.133 -11.36,-3.395 1.48,0 2.67,-0.527 3.57,-1.586 0.9,-1.055 1.35,-2.324 1.35,-3.808 0,-1.485 -0.53,-2.754 -1.59,-3.809 -1.05,-1.051 -2.28,-1.574 -3.68,-1.574 -1.57,0 -2.88,0.523 -3.94,1.574 -1.05,1.055 -1.58,2.324 -1.58,3.809 0,3.984 1.8,6.933 5.39,8.851 3.6,1.914 7.54,2.871 11.84,2.871 3.05,0 6.12,-0.644 9.2,-1.933 3.09,-1.293 5.61,-3.145 7.56,-5.567 1.95,-2.426 2.93,-5.238 2.93,-8.437 l 0,-25.313 c 0,-1.484 0.31,-2.832 0.94,-4.043 0.62,-1.211 1.6,-1.812 2.93,-1.812 1.25,0 2.16,0.625 2.75,1.875 0.59,1.25 0.88,2.574 0.88,3.98 l 0,7.149 3.28,0 0,-7.149 c 0,-1.719 -0.43,-3.344 -1.29,-4.867 -0.86,-1.52 -2.03,-2.73 -3.52,-3.629 -1.48,-0.902 -3.08,-1.351 -4.8,-1.351 -2.19,0 -4.08,0.859 -5.68,2.582 -1.6,1.718 -2.49,3.75 -2.64,6.097 -1.41,-2.816 -3.46,-5.062 -6.15,-6.746 -2.7,-1.68 -5.6,-2.519 -8.73,-2.519 -2.82,0 -5.61,0.429 -8.38,1.293 -2.78,0.859 -5.1,2.187 -6.97,3.98 -1.88,1.801 -2.82,4.145 -2.82,7.035 z m 9.15,0 c 0,-2.656 0.97,-4.863 2.92,-6.621 1.96,-1.762 4.26,-2.641 6.92,-2.641 2.42,0 4.61,0.586 6.56,1.762 1.95,1.172 3.52,2.809 4.69,4.922 1.17,2.109 1.76,4.297 1.76,6.563 l 0,11.722 c -3.36,0 -6.84,-0.551 -10.43,-1.644 -3.6,-1.094 -6.57,-2.836 -8.91,-5.219 -2.34,-2.383 -3.51,-5.328 -3.51,-8.844" /><path
         id="path126"
         style="fill:#262626;fill-opacity:1;fill-rule:nonzero;stroke:none"
         d="m 1683.08,118.578 0,31.059 -9.38,0 0,2.922 c 4.92,0 8.53,2.285 10.84,6.855 2.3,4.57 3.46,9.551 3.46,14.941 l 3.28,0 0,-20.738 15.82,0 0,-3.98 -15.82,0 0,-30.828 c 0,-3.125 0.53,-5.86 1.58,-8.204 1.05,-2.339 2.91,-3.511 5.57,-3.511 2.57,0 4.43,1.25 5.56,3.75 1.14,2.5 1.7,5.156 1.7,7.965 l 0,6.683 3.28,0 0,-6.914 c 0,-2.344 -0.43,-4.652 -1.29,-6.914 -0.86,-2.266 -2.13,-4.141 -3.8,-5.625 -1.68,-1.488 -3.74,-2.23 -6.16,-2.23 -4.52,0 -8.1,1.347 -10.72,4.043 -2.62,2.695 -3.92,6.269 -3.92,10.726" /><path
         id="path128"
         style="fill:#262626;fill-opacity:1;fill-rule:nonzero;stroke:none"
         d="m 1717.88,105.102 0,3.98 c 2.5,0 4.59,0.195 6.27,0.586 1.69,0.395 2.53,1.371 2.53,2.934 l 0,30.703 c 0,2.89 -0.57,4.668 -1.71,5.332 -1.13,0.664 -3.33,1 -6.61,1 l 0,3.98 16.17,1.172 0,-42.187 c 0,-1.563 0.72,-2.539 2.17,-2.934 1.44,-0.391 3.34,-0.586 5.68,-0.586 l 0,-3.98 -24.5,0 z m 4.69,69.019 c 0,1.641 0.63,3.086 1.88,4.336 1.25,1.25 2.69,1.875 4.33,1.875 1.02,0 2.03,-0.273 3.05,-0.816 1.02,-0.547 1.8,-1.309 2.35,-2.289 0.54,-0.973 0.81,-2.008 0.81,-3.106 0,-1.558 -0.62,-2.965 -1.87,-4.215 -1.25,-1.25 -2.7,-1.875 -4.34,-1.875 -1.64,0 -3.08,0.625 -4.33,1.875 -1.25,1.25 -1.88,2.657 -1.88,4.215" /><path
         id="path130"
         style="fill:#262626;fill-opacity:1;fill-rule:nonzero;stroke:none"
         d="m 1749.38,116.117 c 0,4.449 1.75,8.082 5.27,10.899 3.51,2.808 7.75,4.8 12.72,5.976 4.96,1.172 9.63,1.754 14,1.754 l 0,4.578 c 0,2.184 -0.47,4.289 -1.41,6.321 -0.93,2.035 -2.3,3.695 -4.1,4.98 -1.8,1.289 -3.79,1.934 -5.97,1.934 -4.93,0 -8.71,-1.133 -11.37,-3.395 1.48,0 2.68,-0.527 3.57,-1.586 0.9,-1.055 1.35,-2.324 1.35,-3.808 0,-1.485 -0.53,-2.754 -1.58,-3.809 -1.06,-1.051 -2.29,-1.574 -3.69,-1.574 -1.56,0 -2.87,0.523 -3.93,1.574 -1.05,1.055 -1.58,2.324 -1.58,3.809 0,3.984 1.8,6.933 5.39,8.851 3.59,1.914 7.54,2.871 11.84,2.871 3.04,0 6.11,-0.644 9.2,-1.933 3.08,-1.293 5.6,-3.145 7.55,-5.567 1.96,-2.426 2.94,-5.238 2.94,-8.437 l 0,-25.313 c 0,-1.484 0.31,-2.832 0.94,-4.043 0.62,-1.211 1.59,-1.812 2.92,-1.812 1.25,0 2.17,0.625 2.75,1.875 0.59,1.25 0.89,2.574 0.89,3.98 l 0,7.149 3.28,0 0,-7.149 c 0,-1.719 -0.43,-3.344 -1.3,-4.867 -0.86,-1.52 -2.03,-2.73 -3.51,-3.629 -1.48,-0.902 -3.09,-1.351 -4.8,-1.351 -2.2,0 -4.09,0.859 -5.69,2.582 -1.6,1.718 -2.48,3.75 -2.64,6.097 -1.4,-2.816 -3.46,-5.062 -6.15,-6.746 -2.69,-1.68 -5.6,-2.519 -8.73,-2.519 -2.81,0 -5.6,0.429 -8.38,1.293 -2.77,0.859 -5.1,2.187 -6.97,3.98 -1.88,1.801 -2.81,4.145 -2.81,7.035 z m 9.14,0 c 0,-2.656 0.98,-4.863 2.93,-6.621 1.95,-1.762 4.25,-2.641 6.91,-2.641 2.43,0 4.61,0.586 6.56,1.762 1.96,1.172 3.52,2.809 4.69,4.922 1.18,2.109 1.76,4.297 1.76,6.563 l 0,11.722 c -3.36,0 -6.83,-0.551 -10.43,-1.644 -3.6,-1.094 -6.56,-2.836 -8.9,-5.219 -2.35,-2.383 -3.52,-5.328 -3.52,-8.844" /><path
         id="path132"
         style="fill:#262626;fill-opacity:1;fill-rule:nonzero;stroke:none"
         d="m 1803.44,105.102 0,3.98 c 2.5,0 4.59,0.195 6.27,0.586 1.68,0.395 2.52,1.371 2.52,2.934 l 0,59.062 c 0,2.027 -0.32,3.492 -0.94,4.395 -0.63,0.898 -1.5,1.445 -2.63,1.64 -1.14,0.196 -2.88,0.293 -5.22,0.293 l 0,3.985 16.64,1.168 0,-70.543 c 0,-1.563 0.82,-2.539 2.46,-2.934 1.64,-0.391 3.75,-0.586 6.33,-0.586 l 0,-3.98 -25.43,0" /><path
         id="path134"
         style="fill:#262626;fill-opacity:1;fill-rule:nonzero;stroke:none"
         d="m 1893.05,117.168 c 2.65,-3.355 5.93,-5.953 9.84,-7.793 3.91,-1.836 8.01,-2.754 12.31,-2.754 4.14,0 7.91,1.055 11.3,3.168 3.4,2.109 5.1,5.117 5.1,9.02 l 0,9.496 c 0,2.343 -4.69,3.519 -14.06,3.519 l 0,3.981 32.22,0 0,-3.981 c -2.34,0 -4.21,-0.199 -5.62,-0.594 -1.41,-0.39 -2.11,-1.367 -2.11,-2.925 l 0,-22.266 c 0,-0.238 -0.1,-0.453 -0.29,-0.648 -0.2,-0.192 -0.41,-0.289 -0.65,-0.289 -0.7,0 -1.88,0.82 -3.52,2.457 -1.64,1.64 -2.92,3.125 -3.86,4.457 -1.8,-3.207 -4.67,-5.567 -8.62,-7.09 -3.94,-1.524 -8.02,-2.285 -12.24,-2.285 -7.34,0 -14,1.875 -19.98,5.625 -5.98,3.75 -10.7,8.769 -14.18,15.058 -3.48,6.289 -5.22,13.028 -5.22,20.215 0,5.313 1,10.488 2.99,15.524 1.99,5.039 4.81,9.453 8.44,13.246 3.63,3.789 7.85,6.757 12.65,8.902 4.81,2.148 9.91,3.223 15.3,3.223 3.83,0 7.48,-0.84 10.95,-2.52 3.49,-1.68 6.59,-4.043 9.33,-7.086 l 6.44,9.254 c 0.47,0.234 0.74,0.352 0.82,0.352 l 0.82,0 c 0.24,0 0.43,-0.098 0.59,-0.293 0.15,-0.192 0.23,-0.407 0.23,-0.645 l 0,-30.351 c 0,-0.7 -0.27,-1.051 -0.82,-1.051 l -2,0 c -0.7,0 -1.05,0.351 -1.05,1.051 0,2.109 -0.43,4.511 -1.28,7.207 -0.86,2.695 -1.98,5.234 -3.35,7.621 -1.36,2.379 -2.9,4.507 -4.63,6.382 -4.22,4.067 -9.06,6.098 -14.52,6.098 -4.15,0 -8.13,-0.937 -11.96,-2.812 -3.83,-1.875 -7.03,-4.453 -9.61,-7.735 -2.73,-3.515 -4.63,-7.519 -5.68,-12.015 -1.06,-4.489 -1.58,-9.274 -1.58,-14.352 0,-11.488 2.5,-20.277 7.5,-26.371" /><path
         id="path136"
         style="fill:#262626;fill-opacity:1;fill-rule:nonzero;stroke:none"
         d="m 1956.4,105.102 0,3.98 c 2.57,0 4.68,0.195 6.32,0.586 1.64,0.395 2.46,1.371 2.46,2.934 l 0,30.703 c 0,2.031 -0.31,3.496 -0.94,4.394 -0.62,0.895 -1.5,1.442 -2.63,1.637 -1.13,0.199 -2.87,0.301 -5.21,0.301 l 0,3.98 16.05,1.172 0,-11.019 c 1.25,3.285 2.99,5.941 5.22,7.972 2.22,2.031 4.94,3.047 8.13,3.047 2.2,0 4.17,-0.668 5.93,-1.996 1.76,-1.324 2.63,-3.043 2.63,-5.152 0,-1.407 -0.48,-2.598 -1.46,-3.578 -0.98,-0.977 -2.17,-1.461 -3.58,-1.461 -1.4,0 -2.59,0.484 -3.57,1.461 -0.98,0.98 -1.46,2.171 -1.46,3.578 0,2.031 0.7,3.433 2.11,4.214 l -0.6,0 c -3.04,0 -5.52,-1.093 -7.43,-3.277 -1.92,-2.191 -3.28,-4.906 -4.1,-8.144 -0.82,-3.243 -1.23,-6.348 -1.23,-9.317 l 0,-18.515 c 0,-2.348 3.63,-3.52 10.89,-3.52 l 0,-3.98 -27.53,0" /><path
         id="path138"
         style="fill:#262626;fill-opacity:1;fill-rule:nonzero;stroke:none"
         d="m 2000.06,105.102 0,3.98 c 2.5,0 4.59,0.195 6.28,0.586 1.68,0.395 2.52,1.371 2.52,2.934 l 0,30.703 c 0,2.89 -0.57,4.668 -1.7,5.332 -1.14,0.664 -3.34,1 -6.62,1 l 0,3.98 16.17,1.172 0,-42.187 c 0,-1.563 0.72,-2.539 2.17,-2.934 1.44,-0.391 3.33,-0.586 5.68,-0.586 l 0,-3.98 -24.5,0 z m 4.69,69.019 c 0,1.641 0.63,3.086 1.88,4.336 1.25,1.25 2.69,1.875 4.33,1.875 1.02,0 2.03,-0.273 3.06,-0.816 1.01,-0.547 1.79,-1.309 2.34,-2.289 0.54,-0.973 0.81,-2.008 0.81,-3.106 0,-1.558 -0.62,-2.965 -1.87,-4.215 -1.25,-1.25 -2.7,-1.875 -4.34,-1.875 -1.64,0 -3.08,0.625 -4.33,1.875 -1.25,1.25 -1.88,2.657 -1.88,4.215" /><path
         id="path140"
         style="fill:#262626;fill-opacity:1;fill-rule:nonzero;stroke:none"
         d="m 2054.53,103.809 c -4.38,0 -8.4,1.214 -12.08,3.64 -3.66,2.418 -6.52,5.582 -8.55,9.485 -2.02,3.906 -3.04,8.046 -3.04,12.421 0,4.536 1.11,8.754 3.34,12.661 2.22,3.906 5.23,7.007 9.02,9.312 3.79,2.309 7.99,3.461 12.6,3.461 2.73,0 5.33,-0.57 7.79,-1.703 2.46,-1.133 4.59,-2.75 6.38,-4.859 l 0,23.437 c 0,2.027 -0.31,3.492 -0.94,4.395 -0.62,0.898 -1.48,1.445 -2.57,1.64 -1.09,0.196 -2.85,0.293 -5.28,0.293 l 0,3.985 16.65,1.168 0,-67.852 c 0,-1.949 0.31,-3.375 0.94,-4.277 0.62,-0.899 1.48,-1.446 2.57,-1.641 1.1,-0.195 2.85,-0.293 5.28,-0.293 l 0,-3.98 -17,-1.293 0,7.148 c -1.95,-2.266 -4.25,-4.023 -6.91,-5.273 -2.66,-1.25 -5.39,-1.875 -8.2,-1.875 z m -11.48,11.019 c 1.32,-2.422 3.06,-4.355 5.21,-5.805 2.15,-1.445 4.47,-2.168 6.97,-2.168 3.13,0 5.98,0.879 8.56,2.641 2.57,1.758 4.53,4.082 5.85,6.973 l 0,26.949 c -0.85,1.645 -1.96,3.129 -3.34,4.453 -1.36,1.332 -2.86,2.328 -4.5,2.992 -1.65,0.66 -3.41,0.992 -5.28,0.992 -3.91,0 -7.05,-1.093 -9.43,-3.277 -2.39,-2.191 -4.07,-5.004 -5.04,-8.437 -0.98,-3.442 -1.47,-7.075 -1.47,-10.899 0,-2.969 0.16,-5.566 0.47,-7.793 0.31,-2.23 0.98,-4.437 2,-6.621" /><path
         id="path142"
         style="fill:#262626;fill-opacity:1;fill-rule:nonzero;stroke:none"
         d="m 2128.64,105.102 0,3.98 c 7.73,0 11.59,1.172 11.59,3.52 l 0,61.875 c 0,2.343 -3.86,3.515 -11.59,3.515 l 0,3.985 41.48,0 c 5.08,0 9.74,-1.114 14,-3.34 4.26,-2.231 7.9,-5.199 10.9,-8.91 3.01,-3.711 5.34,-7.907 6.97,-12.59 1.64,-4.692 2.46,-9.461 2.46,-14.305 0,-4.766 -0.82,-9.391 -2.46,-13.883 -1.63,-4.496 -4.02,-8.558 -7.14,-12.187 -3.13,-3.633 -6.8,-6.489 -11.02,-8.559 -4.22,-2.066 -8.79,-3.101 -13.71,-3.101 l -41.48,0 z m 21.67,7.5 c 0,-1.563 0.45,-2.539 1.35,-2.934 0.9,-0.391 2.37,-0.586 4.39,-0.586 l 11.14,0 c 3.83,0 7.48,0.82 10.95,2.461 3.48,1.645 6.35,3.949 8.62,6.914 2.34,3.207 3.92,6.762 4.74,10.664 0.82,3.906 1.23,8.477 1.23,13.711 0,5.391 -0.41,10.137 -1.23,14.242 -0.82,4.102 -2.4,7.789 -4.74,11.071 -2.27,3.125 -5.12,5.546 -8.56,7.269 -3.43,1.719 -7.11,2.578 -11.01,2.578 l -11.14,0 c -1.4,0 -2.47,-0.058 -3.22,-0.179 -0.74,-0.114 -1.34,-0.426 -1.81,-0.938 -0.47,-0.504 -0.71,-1.305 -0.71,-2.398 l 0,-61.875" /><path
         id="path144"
         style="fill:#262626;fill-opacity:1;fill-rule:nonzero;stroke:none"
         d="m 2212.43,105.102 0,3.98 c 2.5,0 4.59,0.195 6.27,0.586 1.68,0.395 2.51,1.371 2.51,2.934 l 0,30.703 c 0,2.89 -0.56,4.668 -1.69,5.332 -1.14,0.664 -3.34,1 -6.62,1 l 0,3.98 16.17,1.172 0,-42.187 c 0,-1.563 0.72,-2.539 2.17,-2.934 1.44,-0.391 3.34,-0.586 5.68,-0.586 l 0,-3.98 -24.49,0 z m 4.68,69.019 c 0,1.641 0.63,3.086 1.88,4.336 1.25,1.25 2.69,1.875 4.33,1.875 1.02,0 2.04,-0.273 3.05,-0.816 1.02,-0.547 1.8,-1.309 2.34,-2.289 0.55,-0.973 0.83,-2.008 0.83,-3.106 0,-1.558 -0.63,-2.965 -1.88,-4.215 -1.25,-1.25 -2.7,-1.875 -4.34,-1.875 -1.64,0 -3.08,0.625 -4.33,1.875 -1.25,1.25 -1.88,2.657 -1.88,4.215" /><path
         id="path146"
         style="fill:#262626;fill-opacity:1;fill-rule:nonzero;stroke:none"
         d="m 2242.87,105.102 0,3.98 c 2.5,0 4.59,0.195 6.26,0.586 1.68,0.395 2.52,1.371 2.52,2.934 l 0,30.703 c 0,2.031 -0.31,3.496 -0.94,4.394 -0.62,0.895 -1.5,1.442 -2.63,1.637 -1.13,0.199 -2.87,0.301 -5.21,0.301 l 0,3.98 16.28,1.172 0,-11.019 c 1.49,3.285 3.71,5.941 6.69,7.972 2.96,2.031 6.17,3.047 9.6,3.047 8.68,0 13.76,-3.516 15.24,-10.547 1.48,3.199 3.67,5.758 6.56,7.672 2.89,1.914 6.06,2.875 9.49,2.875 3.44,0 6.31,-0.551 8.62,-1.644 2.3,-1.09 4.04,-2.77 5.21,-5.04 1.17,-2.265 1.76,-5.078 1.76,-8.437 l 0,-27.066 c 0,-1.563 0.84,-2.539 2.52,-2.934 1.68,-0.391 3.77,-0.586 6.27,-0.586 l 0,-3.98 -25.67,0 0,3.98 c 2.5,0 4.59,0.195 6.27,0.586 1.68,0.395 2.52,1.371 2.52,2.934 l 0,26.722 c 0,3.75 -0.55,6.774 -1.64,9.074 -1.09,2.305 -3.28,3.457 -6.56,3.457 -4.3,0 -7.85,-1.738 -10.66,-5.214 -2.82,-3.473 -4.22,-7.399 -4.22,-11.774 l 0,-22.265 c 0,-1.563 0.81,-2.539 2.46,-2.934 1.64,-0.391 3.75,-0.586 6.33,-0.586 l 0,-3.98 -25.79,0 0,3.98 c 2.58,0 4.69,0.195 6.33,0.586 1.64,0.395 2.46,1.371 2.46,2.934 l 0,26.722 c 0,3.668 -0.53,6.676 -1.58,9.02 -1.06,2.34 -3.26,3.511 -6.62,3.511 -4.29,0 -7.85,-1.738 -10.66,-5.214 -2.81,-3.473 -4.22,-7.399 -4.22,-11.774 l 0,-22.265 c 0,-1.563 0.82,-2.539 2.46,-2.934 1.64,-0.391 3.71,-0.586 6.21,-0.586 l 0,-3.98 -25.66,0" /><path
         id="path148"
         style="fill:#262626;fill-opacity:1;fill-rule:nonzero;stroke:none"
         d="m 2359.14,103.809 c -4.61,0 -8.81,1.214 -12.6,3.64 -3.78,2.418 -6.77,5.621 -8.96,9.606 -2.19,3.984 -3.28,8.203 -3.28,12.652 0,4.457 1,8.656 2.99,12.602 1.99,3.945 4.76,7.125 8.32,9.546 3.55,2.426 7.52,3.637 11.89,3.637 3.52,0 6.54,-0.566 9.08,-1.703 2.54,-1.129 4.63,-2.73 6.27,-4.801 1.64,-2.066 2.87,-4.492 3.69,-7.265 0.82,-2.774 1.23,-5.844 1.23,-9.203 0,-0.934 -0.35,-1.403 -1.05,-1.403 l -32.58,0 0,-1.289 c 0,-6.172 1.25,-11.504 3.75,-16 2.5,-4.488 6.6,-6.734 12.31,-6.734 2.26,0 4.37,0.527 6.32,1.582 1.96,1.058 3.66,2.48 5.1,4.277 1.45,1.793 2.44,3.746 2.99,5.856 0.08,0.238 0.21,0.472 0.41,0.707 0.19,0.234 0.41,0.351 0.64,0.351 l 1.06,0 c 0.7,0 1.05,-0.508 1.05,-1.523 -1.01,-4.219 -3.28,-7.696 -6.79,-10.43 -3.52,-2.738 -7.46,-4.105 -11.84,-4.105 z m -14.88,30.121 25.54,0 c 0,2.808 -0.38,5.66 -1.16,8.55 -0.79,2.895 -2.1,5.297 -3.93,7.208 -1.84,1.914 -4.24,2.871 -7.21,2.871 -4.21,0 -7.48,-1.993 -9.78,-5.977 -2.31,-3.984 -3.46,-8.203 -3.46,-12.652" /><path
         id="path150"
         style="fill:#262626;fill-opacity:1;fill-rule:nonzero;stroke:none"
         d="m 2383.42,105.102 0,3.98 c 2.5,0 4.59,0.195 6.27,0.586 1.68,0.395 2.52,1.371 2.52,2.934 l 0,30.703 c 0,2.031 -0.31,3.496 -0.94,4.394 -0.62,0.895 -1.5,1.442 -2.63,1.637 -1.14,0.199 -2.87,0.301 -5.22,0.301 l 0,3.98 16.29,1.172 0,-11.019 c 1.49,3.285 3.71,5.941 6.68,7.972 2.97,2.031 6.17,3.047 9.61,3.047 5.23,0 9.16,-1.25 11.77,-3.75 2.62,-2.5 3.93,-6.293 3.93,-11.371 l 0,-27.066 c 0,-1.563 0.82,-2.539 2.46,-2.934 1.64,-0.391 3.75,-0.586 6.33,-0.586 l 0,-3.98 -25.78,0 0,3.98 c 2.58,0 4.69,0.195 6.33,0.586 1.64,0.395 2.46,1.371 2.46,2.934 l 0,26.722 c 0,3.668 -0.53,6.676 -1.58,9.02 -1.06,2.34 -3.27,3.511 -6.63,3.511 -4.29,0 -7.84,-1.738 -10.66,-5.214 -2.81,-3.473 -4.22,-7.399 -4.22,-11.774 l 0,-22.265 c 0,-1.563 0.82,-2.539 2.47,-2.934 1.64,-0.391 3.71,-0.586 6.21,-0.586 l 0,-3.98 -25.67,0" /><path
         id="path152"
         style="fill:#262626;fill-opacity:1;fill-rule:nonzero;stroke:none"
         d="m 2444.88,104.746 0,18.399 c 0,0.55 0.32,0.824 0.94,0.824 l 1.41,0 c 0.47,0 0.78,-0.274 0.94,-0.824 2.03,-10.86 7.06,-16.29 15.11,-16.29 3.52,0 6.49,0.801 8.91,2.407 2.42,1.601 3.63,4.082 3.63,7.441 0,2.418 -0.94,4.469 -2.81,6.149 -1.88,1.679 -4.1,2.832 -6.68,3.457 l -7.5,1.523 c -2.5,0.551 -4.78,1.391 -6.85,2.52 -2.07,1.136 -3.77,2.64 -5.1,4.515 -1.33,1.875 -2,4.063 -2,6.563 0,3.359 0.86,6.074 2.58,8.144 1.72,2.071 3.99,3.574 6.8,4.508 2.81,0.941 5.82,1.41 9.02,1.41 3.83,0 7.19,-1.015 10.08,-3.043 l 3.16,2.813 c 0,0.152 0.2,0.23 0.59,0.23 l 0.82,0 c 0.23,0 0.45,-0.097 0.65,-0.293 0.19,-0.195 0.29,-0.41 0.29,-0.644 l 0,-14.649 c 0,-0.703 -0.31,-1.054 -0.94,-1.054 l -1.41,0 c -0.62,0 -0.93,0.351 -0.93,1.054 0,3.907 -1.1,7.047 -3.28,9.43 -2.19,2.383 -5.24,3.578 -9.14,3.578 -3.37,0 -6.27,-0.625 -8.73,-1.875 -2.46,-1.25 -3.69,-3.398 -3.69,-6.445 0,-2.11 0.88,-3.828 2.63,-5.16 1.76,-1.325 3.85,-2.262 6.27,-2.813 l 7.62,-1.519 c 2.5,-0.547 4.86,-1.524 7.09,-2.934 2.22,-1.406 3.98,-3.164 5.27,-5.273 1.29,-2.11 1.93,-4.493 1.93,-7.149 0,-2.734 -0.45,-5.098 -1.35,-7.086 -0.89,-1.996 -2.18,-3.656 -3.86,-4.98 -1.68,-1.328 -3.65,-2.309 -5.92,-2.934 -2.27,-0.625 -4.65,-0.937 -7.15,-0.937 -4.69,0 -8.71,1.605 -12.07,4.808 l -4.1,-4.453 c 0,-0.238 -0.2,-0.355 -0.59,-0.355 l -0.7,0 c -0.62,0 -0.94,0.312 -0.94,0.937" /><path
         id="path154"
         style="fill:#262626;fill-opacity:1;fill-rule:nonzero;stroke:none"
         d="m 2488.04,105.102 0,3.98 c 2.5,0 4.59,0.195 6.26,0.586 1.69,0.395 2.53,1.371 2.53,2.934 l 0,30.703 c 0,2.89 -0.57,4.668 -1.7,5.332 -1.13,0.664 -3.34,1 -6.62,1 l 0,3.98 16.17,1.172 0,-42.187 c 0,-1.563 0.72,-2.539 2.17,-2.934 1.44,-0.391 3.34,-0.586 5.68,-0.586 l 0,-3.98 -24.49,0 z m 4.68,69.019 c 0,1.641 0.63,3.086 1.88,4.336 1.25,1.25 2.69,1.875 4.33,1.875 1.02,0 2.04,-0.273 3.06,-0.816 1.01,-0.547 1.79,-1.309 2.34,-2.289 0.55,-0.973 0.82,-2.008 0.82,-3.106 0,-1.558 -0.62,-2.965 -1.87,-4.215 -1.25,-1.25 -2.7,-1.875 -4.35,-1.875 -1.64,0 -3.08,0.625 -4.33,1.875 -1.25,1.25 -1.88,2.657 -1.88,4.215" /><path
         id="path156"
         style="fill:#262626;fill-opacity:1;fill-rule:nonzero;stroke:none"
         d="m 2543.21,103.809 c -4.54,0 -8.72,1.152 -12.54,3.457 -3.83,2.308 -6.86,5.375 -9.08,9.203 -2.23,3.828 -3.35,8.008 -3.35,12.543 0,3.433 0.61,6.754 1.82,9.957 1.21,3.203 2.97,6.051 5.28,8.551 2.3,2.5 4.97,4.457 8.02,5.867 3.04,1.402 6.33,2.105 9.85,2.105 4.6,0 8.8,-1.211 12.59,-3.637 3.79,-2.421 6.78,-5.679 8.97,-9.781 2.18,-4.105 3.28,-8.461 3.28,-13.062 0,-4.457 -1.12,-8.621 -3.34,-12.489 -2.23,-3.867 -5.26,-6.949 -9.08,-9.257 -3.83,-2.305 -7.97,-3.457 -12.42,-3.457 z m 0,3.285 c 6.01,0 10.01,2.187 12,6.562 2,4.375 3,9.922 3,16.637 0,3.75 -0.2,6.875 -0.6,9.375 -0.39,2.5 -1.24,4.766 -2.57,6.801 -0.86,1.172 -1.93,2.226 -3.22,3.168 -1.29,0.933 -2.66,1.656 -4.11,2.164 -1.44,0.508 -2.94,0.758 -4.5,0.758 -2.35,0 -4.58,-0.528 -6.69,-1.582 -2.11,-1.055 -3.86,-2.555 -5.27,-4.508 -1.4,-2.188 -2.29,-4.555 -2.64,-7.094 -0.35,-2.535 -0.52,-5.562 -0.52,-9.082 0,-4.215 0.35,-8.004 1.05,-11.363 0.7,-3.36 2.17,-6.172 4.4,-8.438 2.23,-2.265 5.45,-3.398 9.67,-3.398" /><path
         id="path158"
         style="fill:#262626;fill-opacity:1;fill-rule:nonzero;stroke:none"
         d="m 2573.48,105.102 0,3.98 c 2.5,0 4.59,0.195 6.27,0.586 1.68,0.395 2.52,1.371 2.52,2.934 l 0,30.703 c 0,2.031 -0.32,3.496 -0.94,4.394 -0.63,0.895 -1.51,1.442 -2.64,1.637 -1.13,0.199 -2.87,0.301 -5.21,0.301 l 0,3.98 16.29,1.172 0,-11.019 c 1.48,3.285 3.71,5.941 6.68,7.972 2.96,2.031 6.17,3.047 9.6,3.047 5.24,0 9.16,-1.25 11.78,-3.75 2.62,-2.5 3.93,-6.293 3.93,-11.371 l 0,-27.066 c 0,-1.563 0.82,-2.539 2.46,-2.934 1.64,-0.391 3.75,-0.586 6.32,-0.586 l 0,-3.98 -25.77,0 0,3.98 c 2.58,0 4.69,0.195 6.33,0.586 1.64,0.395 2.45,1.371 2.45,2.934 l 0,26.722 c 0,3.668 -0.52,6.676 -1.58,9.02 -1.05,2.34 -3.26,3.511 -6.62,3.511 -4.29,0 -7.85,-1.738 -10.66,-5.214 -2.81,-3.473 -4.22,-7.399 -4.22,-11.774 l 0,-22.265 c 0,-1.563 0.82,-2.539 2.46,-2.934 1.64,-0.391 3.71,-0.586 6.21,-0.586 l 0,-3.98 -25.66,0" /><path
         id="path160"
         style="fill:#262626;fill-opacity:1;fill-rule:nonzero;stroke:none"
         d="m 2695.86,103.809 c -4.53,0 -8.65,1.195 -12.36,3.578 -3.71,2.379 -6.62,5.527 -8.73,9.437 -2.11,3.903 -3.16,8.082 -3.16,12.531 0,4.454 1.05,8.715 3.16,12.782 2.11,4.058 5.02,7.297 8.73,9.718 3.71,2.426 7.83,3.637 12.36,3.637 4.38,0 8.38,-0.859 12.02,-2.578 3.63,-1.723 5.45,-4.535 5.45,-8.437 0,-1.489 -0.53,-2.758 -1.58,-3.813 -1.06,-1.055 -2.33,-1.582 -3.81,-1.582 -1.49,0 -2.76,0.527 -3.81,1.582 -1.06,1.055 -1.59,2.324 -1.59,3.813 0,1.328 0.41,2.48 1.23,3.457 0.82,0.972 1.86,1.578 3.11,1.812 -2.58,1.641 -6.21,2.461 -10.9,2.461 -3.59,0 -6.48,-1.191 -8.67,-3.57 -2.19,-2.383 -3.73,-5.336 -4.63,-8.848 -0.89,-3.516 -1.34,-6.992 -1.34,-10.434 0,-3.589 0.54,-7.085 1.64,-10.484 1.09,-3.402 2.82,-6.215 5.21,-8.437 2.38,-2.227 5.41,-3.34 9.08,-3.34 3.52,0 6.52,1.094 9.02,3.277 2.5,2.192 4.23,5.043 5.16,8.559 0,0.468 0.28,0.707 0.82,0.707 l 1.41,0 c 0.23,0 0.43,-0.102 0.59,-0.301 0.15,-0.195 0.23,-0.449 0.23,-0.758 l 0,-0.234 c -1.1,-4.453 -3.32,-7.989 -6.68,-10.606 -3.36,-2.617 -7.35,-3.929 -11.96,-3.929" /><path
         id="path162"
         style="fill:#262626;fill-opacity:1;fill-rule:nonzero;stroke:none"
         d="m 2788.34,77.207 c -4.22,3.2852 -7.84,7.0547 -10.85,11.3086 -3,4.2617 -5.46,8.8125 -7.38,13.6524 -1.91,4.844 -3.36,9.906 -4.33,15.18 -0.98,5.273 -1.47,10.566 -1.47,15.879 0,5.386 0.49,10.722 1.47,15.996 0.97,5.273 2.43,10.351 4.39,15.23 1.95,4.887 4.45,9.438 7.5,13.652 3.04,4.219 6.6,7.934 10.67,11.137 0,0.156 0.15,0.235 0.46,0.235 l 1.06,0 c 0.23,0 0.45,-0.098 0.64,-0.293 0.2,-0.196 0.3,-0.411 0.3,-0.645 0,-0.391 -0.08,-0.664 -0.24,-0.82 -3.67,-3.516 -6.72,-7.324 -9.14,-11.43 -2.42,-4.098 -4.38,-8.473 -5.86,-13.125 -1.48,-4.644 -2.56,-9.449 -3.22,-14.414 -0.66,-4.961 -1,-10.137 -1,-15.523 0,-23.832 6.37,-41.9575 19.11,-54.3754 0.23,-0.1563 0.35,-0.4688 0.35,-0.9375 0,-0.1563 -0.1,-0.3516 -0.3,-0.586 -0.19,-0.2343 -0.41,-0.3515 -0.64,-0.3515 l -1.06,0 c -0.31,0 -0.46,0.0742 -0.46,0.2304" /><path
         id="path164"
         style="fill:#262626;fill-opacity:1;fill-rule:nonzero;stroke:none"
         d="m 2799.59,105.102 0,3.98 c 2.5,0 4.59,0.195 6.27,0.586 1.68,0.395 2.52,1.371 2.52,2.934 l 0,30.703 c 0,2.031 -0.32,3.496 -0.94,4.394 -0.63,0.895 -1.5,1.442 -2.64,1.637 -1.13,0.199 -2.87,0.301 -5.21,0.301 l 0,3.98 16.29,1.172 0,-11.019 c 1.48,3.285 3.71,5.941 6.68,7.972 2.97,2.031 6.17,3.047 9.61,3.047 8.67,0 13.74,-3.516 15.23,-10.547 1.48,3.199 3.67,5.758 6.56,7.672 2.89,1.914 6.06,2.875 9.5,2.875 3.43,0 6.3,-0.551 8.61,-1.644 2.3,-1.09 4.04,-2.77 5.22,-5.04 1.17,-2.265 1.75,-5.078 1.75,-8.437 l 0,-27.066 c 0,-1.563 0.84,-2.539 2.52,-2.934 1.68,-0.391 3.77,-0.586 6.27,-0.586 l 0,-3.98 -25.66,0 0,3.98 c 2.5,0 4.59,0.195 6.27,0.586 1.68,0.395 2.52,1.371 2.52,2.934 l 0,26.722 c 0,3.75 -0.55,6.774 -1.65,9.074 -1.09,2.305 -3.28,3.457 -6.56,3.457 -4.29,0 -7.85,-1.738 -10.66,-5.214 -2.81,-3.473 -4.22,-7.399 -4.22,-11.774 l 0,-22.265 c 0,-1.563 0.82,-2.539 2.46,-2.934 1.64,-0.391 3.75,-0.586 6.33,-0.586 l 0,-3.98 -25.78,0 0,3.98 c 2.58,0 4.69,0.195 6.33,0.586 1.64,0.395 2.46,1.371 2.46,2.934 l 0,26.722 c 0,3.668 -0.53,6.676 -1.58,9.02 -1.06,2.34 -3.27,3.511 -6.63,3.511 -4.29,0 -7.85,-1.738 -10.66,-5.214 -2.81,-3.473 -4.22,-7.399 -4.22,-11.774 l 0,-22.265 c 0,-1.563 0.82,-2.539 2.46,-2.934 1.64,-0.391 3.71,-0.586 6.21,-0.586 l 0,-3.98 -25.66,0" /><path
         id="path166"
         style="fill:#262626;fill-opacity:1;fill-rule:nonzero;stroke:none"
         d="m 2895.12,76.9766 c -0.62,0 -0.94,0.3125 -0.94,0.9375 0,0.3867 0.08,0.6601 0.24,0.8164 12.81,12.5 19.22,30.6645 19.22,54.4965 0,23.828 -6.33,41.953 -18.98,54.375 -0.32,0.152 -0.48,0.464 -0.48,0.937 0,0.234 0.1,0.449 0.3,0.645 0.19,0.195 0.41,0.293 0.64,0.293 l 1.06,0 c 0.23,0 0.43,-0.079 0.59,-0.235 5.38,-4.219 9.88,-9.379 13.47,-15.472 3.6,-6.09 6.21,-12.571 7.85,-19.446 1.64,-6.875 2.46,-13.91 2.46,-21.097 0,-5.313 -0.44,-10.547 -1.35,-15.707 -0.9,-5.157 -2.32,-10.231 -4.27,-15.231 -1.96,-4.9999 -4.44,-9.6132 -7.44,-13.832 -3.01,-4.2148 -6.59,-7.9648 -10.72,-11.25 -0.16,-0.1562 -0.36,-0.2304 -0.59,-0.2304 l -1.06,0" /><path
         id="path168"
         style="fill:none;stroke:#262626;stroke-width:5.00250006;stroke-linecap:square;stroke-linejoin:round;stroke-miterlimit:10;stroke-dasharray:none;stroke-opacity:1"
         d="m 555,375 0,2745" /><path
         id="path170"
         style="fill:none;stroke:#262626;stroke-width:5.00250006;stroke-linecap:square;stroke-linejoin:round;stroke-miterlimit:10;stroke-dasharray:none;stroke-opacity:1"
         d="m 3870,375 0,2745" /><path
         id="path172"
         style="fill:none;stroke:#262626;stroke-width:5.00250006;stroke-linecap:square;stroke-linejoin:round;stroke-miterlimit:10;stroke-dasharray:none;stroke-opacity:1"
         d="m 555,375 33.148,0" /><path
         id="path174"
         style="fill:none;stroke:#262626;stroke-width:5.00250006;stroke-linecap:square;stroke-linejoin:round;stroke-miterlimit:10;stroke-dasharray:none;stroke-opacity:1"
         d="m 555,649.5 33.148,0" /><path
         id="path176"
         style="fill:none;stroke:#262626;stroke-width:5.00250006;stroke-linecap:square;stroke-linejoin:round;stroke-miterlimit:10;stroke-dasharray:none;stroke-opacity:1"
         d="m 555,924 33.148,0" /><path
         id="path178"
         style="fill:none;stroke:#262626;stroke-width:5.00250006;stroke-linecap:square;stroke-linejoin:round;stroke-miterlimit:10;stroke-dasharray:none;stroke-opacity:1"
         d="m 555,1198.5 33.148,0" /><path
         id="path180"
         style="fill:none;stroke:#262626;stroke-width:5.00250006;stroke-linecap:square;stroke-linejoin:round;stroke-miterlimit:10;stroke-dasharray:none;stroke-opacity:1"
         d="m 555,1473 33.148,0" /><path
         id="path182"
         style="fill:none;stroke:#262626;stroke-width:5.00250006;stroke-linecap:square;stroke-linejoin:round;stroke-miterlimit:10;stroke-dasharray:none;stroke-opacity:1"
         d="m 555,1747.5 33.148,0" /><path
         id="path184"
         style="fill:none;stroke:#262626;stroke-width:5.00250006;stroke-linecap:square;stroke-linejoin:round;stroke-miterlimit:10;stroke-dasharray:none;stroke-opacity:1"
         d="m 555,2022 33.148,0" /><path
         id="path186"
         style="fill:none;stroke:#262626;stroke-width:5.00250006;stroke-linecap:square;stroke-linejoin:round;stroke-miterlimit:10;stroke-dasharray:none;stroke-opacity:1"
         d="m 555,2296.5 33.148,0" /><path
         id="path188"
         style="fill:none;stroke:#262626;stroke-width:5.00250006;stroke-linecap:square;stroke-linejoin:round;stroke-miterlimit:10;stroke-dasharray:none;stroke-opacity:1"
         d="m 555,2571 33.148,0" /><path
         id="path190"
         style="fill:none;stroke:#262626;stroke-width:5.00250006;stroke-linecap:square;stroke-linejoin:round;stroke-miterlimit:10;stroke-dasharray:none;stroke-opacity:1"
         d="m 555,2845.5 33.148,0" /><path
         id="path192"
         style="fill:none;stroke:#262626;stroke-width:5.00250006;stroke-linecap:square;stroke-linejoin:round;stroke-miterlimit:10;stroke-dasharray:none;stroke-opacity:1"
         d="m 555,3120 33.148,0" /><path
         id="path194"
         style="fill:none;stroke:#262626;stroke-width:5.00250006;stroke-linecap:square;stroke-linejoin:round;stroke-miterlimit:10;stroke-dasharray:none;stroke-opacity:1"
         d="m 3870,375 -33.15,0" /><path
         id="path196"
         style="fill:none;stroke:#262626;stroke-width:5.00250006;stroke-linecap:square;stroke-linejoin:round;stroke-miterlimit:10;stroke-dasharray:none;stroke-opacity:1"
         d="m 3870,649.5 -33.15,0" /><path
         id="path198"
         style="fill:none;stroke:#262626;stroke-width:5.00250006;stroke-linecap:square;stroke-linejoin:round;stroke-miterlimit:10;stroke-dasharray:none;stroke-opacity:1"
         d="m 3870,924 -33.15,0" /><path
         id="path200"
         style="fill:none;stroke:#262626;stroke-width:5.00250006;stroke-linecap:square;stroke-linejoin:round;stroke-miterlimit:10;stroke-dasharray:none;stroke-opacity:1"
         d="m 3870,1198.5 -33.15,0" /><path
         id="path202"
         style="fill:none;stroke:#262626;stroke-width:5.00250006;stroke-linecap:square;stroke-linejoin:round;stroke-miterlimit:10;stroke-dasharray:none;stroke-opacity:1"
         d="m 3870,1473 -33.15,0" /><path
         id="path204"
         style="fill:none;stroke:#262626;stroke-width:5.00250006;stroke-linecap:square;stroke-linejoin:round;stroke-miterlimit:10;stroke-dasharray:none;stroke-opacity:1"
         d="m 3870,1747.5 -33.15,0" /><path
         id="path206"
         style="fill:none;stroke:#262626;stroke-width:5.00250006;stroke-linecap:square;stroke-linejoin:round;stroke-miterlimit:10;stroke-dasharray:none;stroke-opacity:1"
         d="m 3870,2022 -33.15,0" /><path
         id="path208"
         style="fill:none;stroke:#262626;stroke-width:5.00250006;stroke-linecap:square;stroke-linejoin:round;stroke-miterlimit:10;stroke-dasharray:none;stroke-opacity:1"
         d="m 3870,2296.5 -33.15,0" /><path
         id="path210"
         style="fill:none;stroke:#262626;stroke-width:5.00250006;stroke-linecap:square;stroke-linejoin:round;stroke-miterlimit:10;stroke-dasharray:none;stroke-opacity:1"
         d="m 3870,2571 -33.15,0" /><path
         id="path212"
         style="fill:none;stroke:#262626;stroke-width:5.00250006;stroke-linecap:square;stroke-linejoin:round;stroke-miterlimit:10;stroke-dasharray:none;stroke-opacity:1"
         d="m 3870,2845.5 -33.15,0" /><path
         id="path214"
         style="fill:none;stroke:#262626;stroke-width:5.00250006;stroke-linecap:square;stroke-linejoin:round;stroke-miterlimit:10;stroke-dasharray:none;stroke-opacity:1"
         d="m 3870,3120 -33.15,0" /><g
         transform="scale(10,10)"
         id="g216"><text
           id="text218"
           style="font-variant:normal;font-weight:normal;font-size:9.99975014px;font-family:Helvetica;-inkscape-font-specification:Helvetica;writing-mode:lr-tb;fill:#262626;fill-opacity:1;fill-rule:nonzero;stroke:none"
           transform="matrix(1,0,0,-1,44.75,34.125)"><tspan
             id="tspan220"
             y="0"
             x="0">0</tspan><tspan
             id="tspan222"
             y="-27.450001"
             x="-12.75 -7.1901388 -1.630278">200</tspan><tspan
             id="tspan224"
             y="-54.900002"
             x="-12.75 -7.1901388 -1.630278">400</tspan><tspan
             id="tspan226"
             y="-82.349998"
             x="-12.75 -7.1901388 -1.630278">600</tspan><tspan
             id="tspan228"
             y="-109.8"
             x="-12.75 -7.1901388 -1.630278">800</tspan><tspan
             id="tspan230"
             y="-137.25"
             x="-18.75 -13.190139 -7.6302781 -2.0704169">1000</tspan><tspan
             id="tspan232"
             y="-164.7"
             x="-18.75 -13.190139 -7.6302781 -2.0704169">1200</tspan><tspan
             id="tspan234"
             y="-192.14999"
             x="-18.75 -13.190139 -7.6302781 -2.0704169">1400</tspan><tspan
             id="tspan236"
             y="-219.60001"
             x="-18.75 -13.190139 -7.6302781 -2.0704169">1600</tspan><tspan
             id="tspan238"
             y="-247.05"
             x="-18.75 -13.190139 -7.6302781 -2.0704169">1800</tspan><tspan
             id="tspan240"
             y="-274.5"
             x="-18.75 -13.190139 -7.6302781 -2.0704169">2000</tspan></text>
</g><path
         id="path242"
         style="fill:#262626;fill-opacity:1;fill-rule:nonzero;stroke:none"
         d="m 190.398,1161.79 -3.98,0 c 0,3.75 -0.215,7.4 -0.645,10.96 -0.429,3.55 -1.386,5.33 -2.875,5.33 l -61.875,0 c -1.562,0 -2.539,-0.45 -2.929,-1.35 -0.391,-0.9 -0.586,-2.32 -0.586,-4.28 l 0,-4.81 c 0,-6.16 1.367,-10.54 4.101,-13.12 1.332,-1.32 3.477,-2.28 6.442,-2.86 2.972,-0.59 6.722,-1.12 11.25,-1.59 l 0,-3.16 -25.778,2.11 0,68.67 25.778,2.22 0,-3.27 c -4.84,-0.47 -8.664,-0.98 -11.481,-1.53 -2.808,-0.55 -4.879,-1.48 -6.211,-2.81 -2.734,-2.66 -4.101,-7.07 -4.101,-13.25 l 0,-4.68 c 0,-1.41 0.058,-2.48 0.18,-3.23 0.113,-0.74 0.425,-1.34 0.937,-1.81 0.504,-0.47 1.305,-0.7 2.398,-0.7 l 61.875,0 c 1.489,0 2.446,1.77 2.875,5.33 0.43,3.55 0.645,7.2 0.645,10.95 l 3.98,0 0,-43.12" /><path
         id="path244"
         style="fill:#262626;fill-opacity:1;fill-rule:nonzero;stroke:none"
         d="m 190.398,1225.77 -3.98,0 c 0,2.5 -0.195,4.59 -0.586,6.27 -0.394,1.67 -1.371,2.51 -2.934,2.51 l -30.703,0 c -2.89,0 -4.668,-0.56 -5.332,-1.69 -0.664,-1.14 -1,-3.34 -1,-6.62 l -3.98,0 -1.172,16.17 42.187,0 c 1.563,0 2.54,0.72 2.934,2.16 0.391,1.45 0.586,3.34 0.586,5.69 l 3.98,0 0,-24.49 z m -69.019,4.68 c -1.641,0 -3.086,0.63 -4.336,1.88 -1.25,1.25 -1.875,2.69 -1.875,4.33 0,1.02 0.273,2.04 0.816,3.05 0.547,1.02 1.309,1.8 2.289,2.34 0.973,0.56 2.008,0.83 3.106,0.83 1.559,0 2.965,-0.63 4.215,-1.88 1.25,-1.25 1.875,-2.7 1.875,-4.34 0,-1.64 -0.625,-3.08 -1.875,-4.33 -1.25,-1.25 -2.656,-1.88 -4.215,-1.88" /><path
         id="path246"
         style="fill:#262626;fill-opacity:1;fill-rule:nonzero;stroke:none"
         d="m 190.398,1256.21 -3.98,0 c 0,2.5 -0.195,4.59 -0.586,6.27 -0.394,1.68 -1.371,2.52 -2.934,2.52 l -30.703,0 c -2.031,0 -3.496,-0.32 -4.394,-0.94 -0.895,-0.63 -1.442,-1.51 -1.637,-2.64 -0.199,-1.13 -0.301,-2.87 -0.301,-5.21 l -3.98,0 -1.172,16.29 11.019,0 c -3.285,1.48 -5.941,3.71 -7.972,6.67 -2.031,2.97 -3.047,6.18 -3.047,9.62 0,8.67 3.516,13.75 10.547,15.23 -3.199,1.48 -5.758,3.67 -7.672,6.56 -1.914,2.89 -2.875,6.05 -2.875,9.49 0,3.44 0.551,6.31 1.644,8.62 1.09,2.3 2.77,4.04 5.04,5.21 2.265,1.17 5.078,1.76 8.437,1.76 l 27.066,0 c 1.563,0 2.54,0.84 2.934,2.52 0.391,1.68 0.586,3.77 0.586,6.27 l 3.98,0 0,-25.66 -3.98,0 c 0,2.5 -0.195,4.59 -0.586,6.26 -0.394,1.68 -1.371,2.52 -2.934,2.52 l -26.722,0 c -3.75,0 -6.774,-0.55 -9.074,-1.64 -2.305,-1.09 -3.457,-3.28 -3.457,-6.56 0,-4.3 1.738,-7.85 5.214,-10.66 3.473,-2.82 7.399,-4.23 11.774,-4.23 l 22.265,0 c 1.563,0 2.54,0.82 2.934,2.47 0.391,1.64 0.586,3.75 0.586,6.32 l 3.98,0 0,-25.77 -3.98,0 c 0,2.57 -0.195,4.68 -0.586,6.32 -0.394,1.64 -1.371,2.47 -2.934,2.47 l -26.722,0 c -3.668,0 -6.676,-0.53 -9.02,-1.59 -2.34,-1.05 -3.511,-3.26 -3.511,-6.62 0,-4.3 1.738,-7.85 5.214,-10.66 3.473,-2.82 7.399,-4.22 11.774,-4.22 l 22.265,0 c 1.563,0 2.54,0.82 2.934,2.46 0.391,1.64 0.586,3.71 0.586,6.21 l 3.98,0 0,-25.66" /><path
         id="path248"
         style="fill:#262626;fill-opacity:1;fill-rule:nonzero;stroke:none"
         d="m 191.691,1372.48 c 0,-4.61 -1.214,-8.81 -3.64,-12.59 -2.418,-3.79 -5.621,-6.78 -9.606,-8.97 -3.984,-2.19 -8.203,-3.28 -12.652,-3.28 -4.457,0 -8.656,0.99 -12.602,2.99 -3.945,1.99 -7.125,4.76 -9.546,8.32 -2.426,3.55 -3.637,7.52 -3.637,11.89 0,3.52 0.566,6.54 1.703,9.08 1.129,2.54 2.73,4.63 4.801,6.27 2.066,1.64 4.492,2.88 7.265,3.7 2.774,0.82 5.844,1.23 9.203,1.23 0.934,0 1.403,-0.35 1.403,-1.06 l 0,-32.58 1.289,0 c 6.172,0 11.504,1.25 16,3.75 4.488,2.5 6.734,6.6 6.734,12.31 0,2.26 -0.527,4.37 -1.582,6.33 -1.058,1.95 -2.48,3.65 -4.277,5.09 -1.793,1.44 -3.746,2.44 -5.856,2.99 -0.238,0.08 -0.472,0.21 -0.707,0.41 -0.234,0.19 -0.351,0.41 -0.351,0.64 l 0,1.06 c 0,0.71 0.508,1.06 1.523,1.06 4.219,-1.02 7.696,-3.29 10.43,-6.81 2.738,-3.51 4.105,-7.45 4.105,-11.83 z m -30.121,-14.88 0,25.54 c -2.808,0 -5.66,-0.39 -8.55,-1.17 -2.895,-0.77 -5.297,-2.09 -7.207,-3.93 -1.915,-1.83 -2.872,-4.23 -2.872,-7.2 0,-4.21 1.993,-7.48 5.977,-9.79 3.984,-2.3 8.203,-3.45 12.652,-3.45" /><path
         id="path250"
         style="fill:#262626;fill-opacity:1;fill-rule:nonzero;stroke:none"
         d="m 177.043,1442.21 -24.848,0 c -2.031,0 -3.496,-0.31 -4.394,-0.93 -0.895,-0.63 -1.442,-1.51 -1.637,-2.64 -0.199,-1.13 -0.301,-2.87 -0.301,-5.21 l -3.98,0 -1.172,16.99 36.332,0 c 2.891,0 5.156,0.21 6.793,0.64 1.641,0.43 2.852,1.33 3.633,2.7 0.785,1.37 1.176,3.54 1.176,6.51 0,4.06 -1.68,7.28 -5.04,9.66 -3.359,2.38 -7.191,3.57 -11.492,3.57 l -19.918,0 c -2.031,0 -3.496,-0.31 -4.394,-0.93 -0.895,-0.63 -1.442,-1.51 -1.637,-2.64 -0.199,-1.13 -0.301,-2.87 -0.301,-5.22 l -3.98,0 -1.172,17 39.496,0 c 1.949,0 3.375,0.29 4.277,0.88 0.899,0.58 1.446,1.44 1.641,2.58 0.195,1.13 0.293,2.9 0.293,5.33 l 3.98,0 1.293,-16.64 -9.496,0 c 2.817,-1.41 5.102,-3.36 6.856,-5.86 1.758,-2.5 2.64,-5.23 2.64,-8.21 0,-5.39 -1.152,-9.66 -3.457,-12.83 -2.308,-3.16 -6.035,-4.75 -11.191,-4.75" /><path
         id="path252"
         style="fill:#262626;fill-opacity:1;fill-rule:nonzero;stroke:none"
         d="m 190.398,1494.54 -3.98,0 c 0,2.5 -0.195,4.59 -0.586,6.27 -0.394,1.68 -1.371,2.51 -2.934,2.51 l -30.703,0 c -2.031,0 -3.496,-0.31 -4.394,-0.93 -0.895,-0.63 -1.442,-1.51 -1.637,-2.64 -0.199,-1.13 -0.301,-2.87 -0.301,-5.21 l -3.98,0 -1.172,16.28 11.019,0 c -3.285,1.49 -5.941,3.72 -7.972,6.69 -2.031,2.97 -3.047,6.17 -3.047,9.6 0,5.24 1.25,9.17 3.75,11.78 2.5,2.62 6.293,3.93 11.371,3.93 l 27.066,0 c 1.563,0 2.54,0.82 2.934,2.46 0.391,1.64 0.586,3.75 0.586,6.33 l 3.98,0 0,-25.79 -3.98,0 c 0,2.58 -0.195,4.7 -0.586,6.33 -0.394,1.64 -1.371,2.46 -2.934,2.46 l -26.722,0 c -3.668,0 -6.676,-0.52 -9.02,-1.58 -2.34,-1.05 -3.511,-3.26 -3.511,-6.61 0,-4.3 1.738,-7.86 5.214,-10.67 3.473,-2.81 7.399,-4.22 11.774,-4.22 l 22.265,0 c 1.563,0 2.54,0.82 2.934,2.46 0.391,1.64 0.586,3.71 0.586,6.21 l 3.98,0 0,-25.66" /><path
         id="path254"
         style="fill:#262626;fill-opacity:1;fill-rule:nonzero;stroke:none"
         d="m 176.922,1560.68 -31.059,0 0,-9.38 -2.922,0 c 0,4.93 -2.285,8.54 -6.855,10.84 -4.57,2.31 -9.551,3.47 -14.941,3.47 l 0,3.27 20.738,0 0,15.83 3.98,0 0,-15.83 30.828,0 c 3.125,0 5.86,0.53 8.204,1.58 2.339,1.06 3.511,2.92 3.511,5.57 0,2.58 -1.25,4.43 -3.75,5.57 -2.5,1.13 -5.156,1.7 -7.965,1.7 l -6.683,0 0,3.28 6.914,0 c 2.344,0 4.652,-0.43 6.914,-1.29 2.266,-0.86 4.141,-2.13 5.625,-3.81 1.488,-1.68 2.23,-3.73 2.23,-6.15 0,-4.53 -1.347,-8.11 -4.043,-10.72 -2.695,-2.62 -6.269,-3.93 -10.726,-3.93" /><path
         id="path256"
         style="fill:#262626;fill-opacity:1;fill-rule:nonzero;stroke:none"
         d="m 190.398,1595.49 -3.98,0 c 0,2.5 -0.195,4.59 -0.586,6.27 -0.394,1.68 -1.371,2.52 -2.934,2.52 l -30.703,0 c -2.89,0 -4.668,-0.57 -5.332,-1.7 -0.664,-1.13 -1,-3.34 -1,-6.62 l -3.98,0 -1.172,16.17 42.187,0 c 1.563,0 2.54,0.72 2.934,2.17 0.391,1.45 0.586,3.34 0.586,5.68 l 3.98,0 0,-24.49 z m -69.019,4.69 c -1.641,0 -3.086,0.62 -4.336,1.87 -1.25,1.25 -1.875,2.7 -1.875,4.34 0,1.01 0.273,2.03 0.816,3.04 0.547,1.02 1.309,1.8 2.289,2.35 0.973,0.55 2.008,0.82 3.106,0.82 1.559,0 2.965,-0.63 4.215,-1.88 1.25,-1.25 1.875,-2.69 1.875,-4.33 0,-1.64 -0.625,-3.09 -1.875,-4.34 -1.25,-1.25 -2.656,-1.87 -4.215,-1.87" /><path
         id="path258"
         style="fill:#262626;fill-opacity:1;fill-rule:nonzero;stroke:none"
         d="m 190.398,1626.05 -3.98,0 c 0,2.5 -0.195,4.59 -0.586,6.27 -0.394,1.68 -1.371,2.52 -2.934,2.52 l -59.062,0 c -2.027,0 -3.492,-0.32 -4.395,-0.94 -0.898,-0.63 -1.445,-1.51 -1.64,-2.64 -0.196,-1.13 -0.293,-2.87 -0.293,-5.21 l -3.985,0 -1.168,16.64 70.543,0 c 1.563,0 2.54,0.82 2.934,2.46 0.391,1.64 0.586,3.74 0.586,6.32 l 3.98,0 0,-25.42" /><path
         id="path260"
         style="fill:#262626;fill-opacity:1;fill-rule:nonzero;stroke:none"
         d="m 178.332,1715.42 c 3.281,2.57 5.859,5.78 7.734,9.6 1.875,3.84 2.813,7.82 2.813,11.96 0,3.51 -0.688,6.76 -2.055,9.73 -1.367,2.96 -3.277,5.54 -5.738,7.73 -2.461,2.19 -5.234,3.88 -8.324,5.1 -3.086,1.21 -6.348,1.82 -9.782,1.82 -0.625,0 -0.937,0.31 -0.937,0.93 l 0,1.41 c 0,0.54 0.348,0.82 1.051,0.82 3.984,0 7.793,-0.74 11.429,-2.23 3.629,-1.49 6.832,-3.59 9.606,-6.33 2.777,-2.73 4.922,-5.9 6.445,-9.5 1.524,-3.58 2.285,-7.29 2.285,-11.12 0,-5.39 -1.093,-10.51 -3.277,-15.36 -2.191,-4.84 -5.18,-9.04 -8.969,-12.59 -3.789,-3.55 -8.164,-6.33 -13.125,-8.32 -4.961,-1.99 -10.136,-2.99 -15.527,-2.99 -5.387,0 -10.582,1 -15.582,2.99 -5,1.99 -9.395,4.77 -13.188,8.32 -3.789,3.55 -6.757,7.75 -8.902,12.59 -2.148,4.85 -3.223,9.97 -3.223,15.36 0,3.83 0.84,7.5 2.52,11.02 1.68,3.51 4.043,6.59 7.086,9.25 l -9.254,6.45 c -0.234,0.46 -0.352,0.74 -0.352,0.82 l 0,0.82 c 0,0.23 0.098,0.43 0.293,0.58 0.192,0.16 0.407,0.24 0.645,0.24 l 30.351,0 c 0.7,0 1.051,-0.28 1.051,-0.82 l 0,-1.99 c 0,-0.71 -0.351,-1.06 -1.051,-1.06 -2.109,0 -4.511,-0.43 -7.207,-1.29 -2.695,-0.86 -5.234,-1.97 -7.621,-3.34 -2.379,-1.37 -4.507,-2.91 -6.382,-4.63 -4.067,-4.21 -6.098,-9.06 -6.098,-14.53 0,-4.14 0.937,-8.11 2.812,-11.9 1.875,-3.78 4.454,-6.97 7.735,-9.54 3.515,-2.74 7.519,-4.63 12.015,-5.69 4.489,-1.05 9.274,-1.58 14.352,-1.58 5.082,0 9.867,0.53 14.355,1.58 4.493,1.06 8.497,2.95 12.016,5.69" /><path
         id="path262"
         style="fill:#262626;fill-opacity:1;fill-rule:nonzero;stroke:none"
         d="m 191.691,1797.32 c 0,-4.53 -1.152,-8.71 -3.457,-12.53 -2.308,-3.84 -5.375,-6.86 -9.203,-9.09 -3.828,-2.23 -8.008,-3.34 -12.543,-3.34 -3.433,0 -6.754,0.6 -9.957,1.82 -3.203,1.21 -6.051,2.96 -8.551,5.27 -2.5,2.31 -4.457,4.98 -5.867,8.03 -1.402,3.04 -2.105,6.32 -2.105,9.84 0,4.61 1.211,8.81 3.637,12.6 2.421,3.79 5.679,6.78 9.781,8.97 4.105,2.18 8.461,3.27 13.062,3.27 4.457,0 8.621,-1.11 12.489,-3.33 3.867,-2.23 6.949,-5.26 9.257,-9.09 2.305,-3.83 3.457,-7.97 3.457,-12.42 z m -3.285,0 c 0,6.02 -2.187,10.02 -6.562,12.01 -4.375,2 -9.922,2.99 -16.637,2.99 -3.75,0 -6.875,-0.19 -9.375,-0.59 -2.5,-0.39 -4.766,-1.25 -6.801,-2.57 -1.172,-0.86 -2.226,-1.94 -3.168,-3.23 -0.933,-1.29 -1.656,-2.65 -2.164,-4.1 -0.508,-1.44 -0.758,-2.95 -0.758,-4.51 0,-2.34 0.528,-4.57 1.582,-6.68 1.055,-2.11 2.555,-3.87 4.508,-5.27 2.188,-1.41 4.555,-2.29 7.094,-2.64 2.535,-0.35 5.563,-0.53 9.082,-0.53 4.215,0 8.004,0.35 11.363,1.06 3.36,0.7 6.172,2.17 8.438,4.4 2.265,2.22 3.398,5.45 3.398,9.66" /><path
         id="path264"
         style="fill:#262626;fill-opacity:1;fill-rule:nonzero;stroke:none"
         d="m 190.398,1827.59 -3.98,0 c 0,2.5 -0.195,4.59 -0.586,6.27 -0.394,1.68 -1.371,2.52 -2.934,2.52 l -30.703,0 c -2.031,0 -3.496,-0.31 -4.394,-0.93 -0.895,-0.63 -1.442,-1.51 -1.637,-2.65 -0.199,-1.12 -0.301,-2.86 -0.301,-5.21 l -3.98,0 -1.172,16.29 11.019,0 c -3.285,1.49 -5.941,3.72 -7.972,6.69 -2.031,2.96 -3.047,6.16 -3.047,9.61 0,5.23 1.25,9.15 3.75,11.77 2.5,2.62 6.293,3.93 11.371,3.93 l 27.066,0 c 1.563,0 2.54,0.82 2.934,2.46 0.391,1.64 0.586,3.75 0.586,6.32 l 3.98,0 0,-25.78 -3.98,0 c 0,2.58 -0.195,4.69 -0.586,6.33 -0.394,1.65 -1.371,2.47 -2.934,2.47 l -26.722,0 c -3.668,0 -6.676,-0.54 -9.02,-1.59 -2.34,-1.05 -3.511,-3.26 -3.511,-6.62 0,-4.29 1.738,-7.85 5.214,-10.67 3.473,-2.81 7.399,-4.21 11.774,-4.21 l 22.265,0 c 1.563,0 2.54,0.82 2.934,2.46 0.391,1.64 0.586,3.71 0.586,6.21 l 3.98,0 0,-25.67" /><path
         id="path266"
         style="fill:#262626;fill-opacity:1;fill-rule:nonzero;stroke:none"
         d="m 190.754,1889.05 -18.399,0 c -0.55,0 -0.824,0.32 -0.824,0.94 l 0,1.41 c 0,0.47 0.274,0.78 0.824,0.94 10.86,2.03 16.29,7.07 16.29,15.11 0,3.52 -0.801,6.49 -2.407,8.91 -1.601,2.43 -4.082,3.63 -7.441,3.63 -2.418,0 -4.469,-0.94 -6.149,-2.81 -1.679,-1.88 -2.832,-4.1 -3.457,-6.67 l -1.523,-7.5 c -0.551,-2.5 -1.391,-4.79 -2.52,-6.87 -1.136,-2.07 -2.64,-3.76 -4.515,-5.09 -1.875,-1.33 -4.063,-2 -6.563,-2 -3.359,0 -6.074,0.87 -8.144,2.59 -2.071,1.72 -3.574,3.98 -4.508,6.79 -0.941,2.82 -1.41,5.82 -1.41,9.02 0,3.84 1.015,7.19 3.043,10.09 l -2.813,3.16 c -0.152,0 -0.23,0.19 -0.23,0.59 l 0,0.81 c 0,0.24 0.097,0.45 0.293,0.65 0.195,0.19 0.41,0.29 0.644,0.29 l 14.649,0 c 0.703,0 1.054,-0.31 1.054,-0.94 l 0,-1.4 c 0,-0.63 -0.351,-0.94 -1.054,-0.94 -3.906,0 -7.047,-1.09 -9.43,-3.28 -2.383,-2.19 -3.578,-5.23 -3.578,-9.14 0,-3.36 0.625,-6.27 1.875,-8.73 1.25,-2.47 3.398,-3.7 6.445,-3.7 2.11,0 3.828,0.88 5.16,2.64 1.325,1.76 2.262,3.85 2.813,6.27 l 1.519,7.63 c 0.547,2.5 1.524,4.85 2.934,7.08 1.406,2.23 3.164,3.99 5.273,5.27 2.11,1.29 4.493,1.94 7.149,1.94 2.734,0 5.098,-0.45 7.086,-1.35 1.996,-0.9 3.656,-2.19 4.98,-3.87 1.328,-1.68 2.309,-3.65 2.934,-5.92 0.625,-2.26 0.937,-4.65 0.937,-7.15 0,-4.68 -1.605,-8.7 -4.808,-12.06 l 4.453,-4.1 c 0.238,0 0.355,-0.2 0.355,-0.59 l 0,-0.71 c 0,-0.62 -0.312,-0.94 -0.937,-0.94" /><path
         id="path268"
         style="fill:#262626;fill-opacity:1;fill-rule:nonzero;stroke:none"
         d="m 191.691,1956.71 c 0,-4.61 -1.214,-8.82 -3.64,-12.6 -2.418,-3.79 -5.621,-6.78 -9.606,-8.97 -3.984,-2.19 -8.203,-3.28 -12.652,-3.28 -4.457,0 -8.656,1 -12.602,2.99 -3.945,1.99 -7.125,4.76 -9.546,8.32 -2.426,3.55 -3.637,7.52 -3.637,11.89 0,3.52 0.566,6.55 1.703,9.08 1.129,2.55 2.73,4.64 4.801,6.28 2.066,1.63 4.492,2.87 7.265,3.69 2.774,0.82 5.844,1.23 9.203,1.23 0.934,0 1.403,-0.36 1.403,-1.06 l 0,-32.57 1.289,0 c 6.172,0 11.504,1.25 16,3.75 4.488,2.5 6.734,6.59 6.734,12.3 0,2.26 -0.527,4.37 -1.582,6.33 -1.058,1.95 -2.48,3.65 -4.277,5.1 -1.793,1.44 -3.746,2.44 -5.856,2.98 -0.238,0.08 -0.472,0.22 -0.707,0.41 -0.234,0.2 -0.351,0.41 -0.351,0.65 l 0,1.05 c 0,0.7 0.508,1.06 1.523,1.06 4.219,-1.02 7.696,-3.29 10.43,-6.8 2.738,-3.51 4.105,-7.46 4.105,-11.83 z m -30.121,-14.89 0,25.55 c -2.808,0 -5.66,-0.39 -8.55,-1.17 -2.895,-0.79 -5.297,-2.09 -7.207,-3.93 -1.915,-1.83 -2.872,-4.23 -2.872,-7.21 0,-4.22 1.993,-7.48 5.977,-9.78 3.984,-2.31 8.203,-3.46 12.652,-3.46" /><path
         id="path270"
         style="fill:#262626;fill-opacity:1;fill-rule:nonzero;stroke:none"
         d="m 190.398,1980.98 -3.98,0 c 0,2.5 -0.195,4.59 -0.586,6.27 -0.394,1.68 -1.371,2.52 -2.934,2.52 l -30.703,0 c -2.031,0 -3.496,-0.31 -4.394,-0.93 -0.895,-0.63 -1.442,-1.51 -1.637,-2.64 -0.199,-1.13 -0.301,-2.87 -0.301,-5.22 l -3.98,0 -1.172,16.29 11.019,0 c -3.285,1.49 -5.941,3.71 -7.972,6.68 -2.031,2.97 -3.047,6.18 -3.047,9.61 0,5.24 1.25,9.16 3.75,11.78 2.5,2.61 6.293,3.92 11.371,3.92 l 27.066,0 c 1.563,0 2.54,0.82 2.934,2.47 0.391,1.64 0.586,3.75 0.586,6.32 l 3.98,0 0,-25.78 -3.98,0 c 0,2.58 -0.195,4.69 -0.586,6.34 -0.394,1.63 -1.371,2.45 -2.934,2.45 l -26.722,0 c -3.668,0 -6.676,-0.52 -9.02,-1.58 -2.34,-1.05 -3.511,-3.26 -3.511,-6.62 0,-4.3 1.738,-7.85 5.214,-10.66 3.473,-2.82 7.399,-4.22 11.774,-4.22 l 22.265,0 c 1.563,0 2.54,0.82 2.934,2.46 0.391,1.64 0.586,3.71 0.586,6.21 l 3.98,0 0,-25.67" /><path
         id="path272"
         style="fill:#262626;fill-opacity:1;fill-rule:nonzero;stroke:none"
         d="m 190.754,2042.45 -18.399,0 c -0.55,0 -0.824,0.31 -0.824,0.93 l 0,1.41 c 0,0.47 0.274,0.78 0.824,0.94 10.86,2.03 16.29,7.07 16.29,15.11 0,3.52 -0.801,6.49 -2.407,8.91 -1.601,2.43 -4.082,3.63 -7.441,3.63 -2.418,0 -4.469,-0.93 -6.149,-2.81 -1.679,-1.87 -2.832,-4.1 -3.457,-6.68 l -1.523,-7.5 c -0.551,-2.5 -1.391,-4.78 -2.52,-6.85 -1.136,-2.08 -2.64,-3.77 -4.515,-5.1 -1.875,-1.33 -4.063,-1.99 -6.563,-1.99 -3.359,0 -6.074,0.85 -8.144,2.58 -2.071,1.72 -3.574,3.98 -4.508,6.79 -0.941,2.82 -1.41,5.82 -1.41,9.02 0,3.84 1.015,7.2 3.043,10.09 l -2.813,3.16 c -0.152,0 -0.23,0.2 -0.23,0.59 l 0,0.81 c 0,0.24 0.097,0.45 0.293,0.65 0.195,0.19 0.41,0.29 0.644,0.29 l 14.649,0 c 0.703,0 1.054,-0.31 1.054,-0.94 l 0,-1.4 c 0,-0.63 -0.351,-0.94 -1.054,-0.94 -3.906,0 -7.047,-1.1 -9.43,-3.28 -2.383,-2.19 -3.578,-5.23 -3.578,-9.14 0,-3.36 0.625,-6.27 1.875,-8.74 1.25,-2.45 3.398,-3.69 6.445,-3.69 2.11,0 3.828,0.88 5.16,2.65 1.325,1.75 2.262,3.84 2.813,6.26 l 1.519,7.62 c 0.547,2.5 1.524,4.86 2.934,7.09 1.406,2.22 3.164,3.98 5.273,5.28 2.11,1.28 4.493,1.93 7.149,1.93 2.734,0 5.098,-0.45 7.086,-1.35 1.996,-0.9 3.656,-2.19 4.98,-3.87 1.328,-1.68 2.309,-3.65 2.934,-5.92 0.625,-2.26 0.937,-4.65 0.937,-7.15 0,-4.68 -1.605,-8.7 -4.808,-12.06 l 4.453,-4.1 c 0.238,0 0.355,-0.2 0.355,-0.59 l 0,-0.71 c 0,-0.62 -0.312,-0.93 -0.937,-0.93" /><path
         id="path274"
         style="fill:#262626;fill-opacity:1;fill-rule:nonzero;stroke:none"
         d="m 177.043,2094.27 -24.848,0 c -2.031,0 -3.496,-0.31 -4.394,-0.94 -0.895,-0.62 -1.442,-1.5 -1.637,-2.63 -0.199,-1.13 -0.301,-2.87 -0.301,-5.22 l -3.98,0 -1.172,17 36.332,0 c 2.891,0 5.156,0.21 6.793,0.64 1.641,0.43 2.852,1.33 3.633,2.69 0.785,1.37 1.176,3.54 1.176,6.51 0,4.06 -1.68,7.29 -5.04,9.66 -3.359,2.39 -7.191,3.58 -11.492,3.58 l -19.918,0 c -2.031,0 -3.496,-0.31 -4.394,-0.93 -0.895,-0.63 -1.442,-1.51 -1.637,-2.65 -0.199,-1.12 -0.301,-2.86 -0.301,-5.21 l -3.98,0 -1.172,17 39.496,0 c 1.949,0 3.375,0.29 4.277,0.87 0.899,0.59 1.446,1.45 1.641,2.58 0.195,1.14 0.293,2.91 0.293,5.33 l 3.98,0 1.293,-16.64 -9.496,0 c 2.817,-1.4 5.102,-3.36 6.856,-5.86 1.758,-2.5 2.64,-5.23 2.64,-8.2 0,-5.39 -1.152,-9.67 -3.457,-12.83 -2.308,-3.16 -6.035,-4.75 -11.191,-4.75" /><path
         id="path276"
         style="fill:#262626;fill-opacity:1;fill-rule:nonzero;stroke:none"
         d="m 190.754,2146.95 -18.399,0 c -0.55,0 -0.824,0.31 -0.824,0.93 l 0,1.41 c 0,0.47 0.274,0.78 0.824,0.94 10.86,2.03 16.29,7.07 16.29,15.11 0,3.52 -0.801,6.49 -2.407,8.91 -1.601,2.42 -4.082,3.63 -7.441,3.63 -2.418,0 -4.469,-0.93 -6.149,-2.81 -1.679,-1.87 -2.832,-4.1 -3.457,-6.68 l -1.523,-7.5 c -0.551,-2.5 -1.391,-4.78 -2.52,-6.85 -1.136,-2.07 -2.64,-3.77 -4.515,-5.1 -1.875,-1.33 -4.063,-1.99 -6.563,-1.99 -3.359,0 -6.074,0.85 -8.144,2.57 -2.071,1.72 -3.574,3.99 -4.508,6.8 -0.941,2.81 -1.41,5.82 -1.41,9.02 0,3.83 1.015,7.19 3.043,10.08 l -2.813,3.17 c -0.152,0 -0.23,0.19 -0.23,0.58 l 0,0.83 c 0,0.23 0.097,0.44 0.293,0.64 0.195,0.2 0.41,0.29 0.644,0.29 l 14.649,0 c 0.703,0 1.054,-0.31 1.054,-0.93 l 0,-1.41 c 0,-0.63 -0.351,-0.94 -1.054,-0.94 -3.906,0 -7.047,-1.1 -9.43,-3.28 -2.383,-2.19 -3.578,-5.24 -3.578,-9.14 0,-3.36 0.625,-6.27 1.875,-8.73 1.25,-2.46 3.398,-3.69 6.445,-3.69 2.11,0 3.828,0.88 5.16,2.63 1.325,1.76 2.262,3.85 2.813,6.27 l 1.519,7.62 c 0.547,2.5 1.524,4.87 2.934,7.09 1.406,2.22 3.164,3.98 5.273,5.27 2.11,1.29 4.493,1.94 7.149,1.94 2.734,0 5.098,-0.45 7.086,-1.35 1.996,-0.9 3.656,-2.19 4.98,-3.87 1.328,-1.68 2.309,-3.65 2.934,-5.91 0.625,-2.27 0.937,-4.66 0.937,-7.16 0,-4.68 -1.605,-8.71 -4.808,-12.07 l 4.453,-4.1 c 0.238,0 0.355,-0.19 0.355,-0.58 l 0,-0.71 c 0,-0.62 -0.312,-0.93 -0.937,-0.93" /><path
         id="path278"
         style="fill:#262626;fill-opacity:1;fill-rule:nonzero;stroke:none"
         d="m 218.293,2258.18 c -3.285,-4.22 -7.055,-7.84 -11.309,-10.85 -4.261,-3 -8.812,-5.46 -13.652,-7.38 -4.844,-1.91 -9.906,-3.36 -15.18,-4.33 -5.273,-0.98 -10.566,-1.47 -15.879,-1.47 -5.386,0 -10.722,0.49 -15.996,1.47 -5.273,0.97 -10.351,2.43 -15.23,4.39 -4.887,1.95 -9.438,4.45 -13.652,7.5 -4.219,3.04 -7.934,6.6 -11.137,10.67 -0.156,0 -0.235,0.15 -0.235,0.46 l 0,1.06 c 0,0.23 0.098,0.45 0.293,0.64 0.196,0.2 0.411,0.3 0.645,0.3 0.391,0 0.664,-0.08 0.82,-0.24 3.516,-3.67 7.324,-6.72 11.43,-9.14 4.098,-2.42 8.473,-4.38 13.125,-5.86 4.644,-1.48 9.449,-2.56 14.414,-3.22 4.961,-0.66 10.137,-1 15.523,-1 23.832,0 41.957,6.37 54.375,19.11 0.157,0.23 0.469,0.35 0.938,0.35 0.156,0 0.352,-0.1 0.586,-0.3 0.234,-0.19 0.351,-0.41 0.351,-0.64 l 0,-1.06 c 0,-0.31 -0.074,-0.46 -0.23,-0.46" /><path
         id="path280"
         style="fill:#262626;fill-opacity:1;fill-rule:nonzero;stroke:none"
         d="m 190.754,2269.78 -18.399,0 c -0.55,0 -0.824,0.31 -0.824,0.93 l 0,1.42 c 0,0.46 0.274,0.77 0.824,0.93 10.86,2.03 16.29,7.07 16.29,15.12 0,3.51 -0.801,6.48 -2.407,8.91 -1.601,2.42 -4.082,3.62 -7.441,3.62 -2.418,0 -4.469,-0.93 -6.149,-2.81 -1.679,-1.87 -2.832,-4.1 -3.457,-6.67 l -1.523,-7.5 c -0.551,-2.5 -1.391,-4.79 -2.52,-6.86 -1.136,-2.07 -2.64,-3.77 -4.515,-5.1 -1.875,-1.32 -4.063,-1.99 -6.563,-1.99 -3.359,0 -6.074,0.86 -8.144,2.58 -2.071,1.72 -3.574,3.98 -4.508,6.79 -0.941,2.82 -1.41,5.83 -1.41,9.03 0,3.83 1.015,7.19 3.043,10.08 l -2.813,3.16 c -0.152,0 -0.23,0.2 -0.23,0.59 l 0,0.81 c 0,0.24 0.097,0.45 0.293,0.65 0.195,0.19 0.41,0.29 0.644,0.29 l 14.649,0 c 0.703,0 1.054,-0.31 1.054,-0.94 l 0,-1.4 c 0,-0.62 -0.351,-0.94 -1.054,-0.94 -3.906,0 -7.047,-1.09 -9.43,-3.28 -2.383,-2.18 -3.578,-5.23 -3.578,-9.14 0,-3.36 0.625,-6.27 1.875,-8.73 1.25,-2.46 3.398,-3.69 6.445,-3.69 2.11,0 3.828,0.88 5.16,2.64 1.325,1.76 2.262,3.85 2.813,6.27 l 1.519,7.62 c 0.547,2.5 1.524,4.86 2.934,7.08 1.406,2.23 3.164,3.99 5.273,5.28 2.11,1.29 4.493,1.93 7.149,1.93 2.734,0 5.098,-0.45 7.086,-1.35 1.996,-0.9 3.656,-2.19 4.98,-3.87 1.328,-1.67 2.309,-3.65 2.934,-5.92 0.625,-2.26 0.937,-4.64 0.937,-7.14 0,-4.69 -1.605,-8.71 -4.808,-12.07 l 4.453,-4.1 c 0.238,0 0.355,-0.2 0.355,-0.59 l 0,-0.71 c 0,-0.62 -0.312,-0.93 -0.937,-0.93" /><path
         id="path282"
         style="fill:#262626;fill-opacity:1;fill-rule:nonzero;stroke:none"
         d="m 218.523,2316.68 c 0,-0.62 -0.312,-0.93 -0.937,-0.93 -0.387,0 -0.66,0.07 -0.816,0.23 -12.5,12.81 -30.665,19.22 -54.497,19.22 -23.828,0 -41.953,-6.32 -54.375,-18.98 -0.152,-0.32 -0.464,-0.47 -0.937,-0.47 -0.234,0 -0.449,0.09 -0.645,0.29 -0.195,0.19 -0.293,0.41 -0.293,0.64 l 0,1.06 c 0,0.24 0.079,0.43 0.235,0.59 4.219,5.38 9.379,9.88 15.472,13.47 6.09,3.59 12.571,6.21 19.446,7.86 6.875,1.64 13.91,2.46 21.097,2.46 5.313,0 10.547,-0.45 15.707,-1.35 5.157,-0.9 10.231,-2.33 15.231,-4.28 5,-1.95 9.613,-4.44 13.832,-7.44 4.215,-3.01 7.965,-6.59 11.25,-10.72 0.156,-0.16 0.23,-0.35 0.23,-0.59 l 0,-1.06" /><path
         id="path284"
         style="fill:none;stroke:#0072bd;stroke-width:5.00250006;stroke-linecap:butt;stroke-linejoin:round;stroke-miterlimit:10;stroke-dasharray:none;stroke-opacity:1"
         d="m 903.945,612.66 0,-47.484" /><path
         id="path286"
         style="fill:none;stroke:#0072bd;stroke-width:5.00250006;stroke-linecap:butt;stroke-linejoin:round;stroke-miterlimit:10;stroke-dasharray:none;stroke-opacity:1"
         d="m 1427.37,789.504 0,-129.16" /><path
         id="path288"
         style="fill:none;stroke:#0072bd;stroke-width:5.00250006;stroke-linecap:butt;stroke-linejoin:round;stroke-miterlimit:10;stroke-dasharray:none;stroke-opacity:1"
         d="m 1776.32,947.535 0,-212.805" /><path
         id="path290"
         style="fill:none;stroke:#0072bd;stroke-width:5.00250006;stroke-linecap:butt;stroke-linejoin:round;stroke-miterlimit:10;stroke-dasharray:none;stroke-opacity:1"
         d="m 2125.26,1065.98 0,-280.257" /><path
         id="path292"
         style="fill:none;stroke:#0072bd;stroke-width:5.00250006;stroke-linecap:butt;stroke-linejoin:round;stroke-miterlimit:10;stroke-dasharray:none;stroke-opacity:1"
         d="m 2648.68,1420.88 0,-449.157" /><path
         id="path294"
         style="fill:none;stroke:#0072bd;stroke-width:5.00250006;stroke-linecap:butt;stroke-linejoin:round;stroke-miterlimit:10;stroke-dasharray:none;stroke-opacity:1"
         d="m 3521.05,1890.16 0,-679.8" /><path
         id="path296"
         style="fill:none;stroke:#0072bd;stroke-width:5.00250006;stroke-linecap:butt;stroke-linejoin:round;stroke-miterlimit:10;stroke-dasharray:none;stroke-opacity:1"
         d="m 903.945,612.66 0,47.477" /><path
         id="path298"
         style="fill:none;stroke:#0072bd;stroke-width:5.00250006;stroke-linecap:butt;stroke-linejoin:round;stroke-miterlimit:10;stroke-dasharray:none;stroke-opacity:1"
         d="m 1427.37,789.504 0,129.148" /><path
         id="path300"
         style="fill:none;stroke:#0072bd;stroke-width:5.00250006;stroke-linecap:butt;stroke-linejoin:round;stroke-miterlimit:10;stroke-dasharray:none;stroke-opacity:1"
         d="m 1776.32,947.535 0,212.815" /><path
         id="path302"
         style="fill:none;stroke:#0072bd;stroke-width:5.00250006;stroke-linecap:butt;stroke-linejoin:round;stroke-miterlimit:10;stroke-dasharray:none;stroke-opacity:1"
         d="m 2125.26,1065.98 0,280.25" /><path
         id="path304"
         style="fill:none;stroke:#0072bd;stroke-width:5.00250006;stroke-linecap:butt;stroke-linejoin:round;stroke-miterlimit:10;stroke-dasharray:none;stroke-opacity:1"
         d="m 2648.68,1420.88 0,449.15" /><path
         id="path306"
         style="fill:none;stroke:#0072bd;stroke-width:5.00250006;stroke-linecap:butt;stroke-linejoin:round;stroke-miterlimit:10;stroke-dasharray:none;stroke-opacity:1"
         d="m 3521.05,1890.16 0,679.8" /><path
         id="path308"
         style="fill:none;stroke:#0072bd;stroke-width:5.00250006;stroke-linecap:butt;stroke-linejoin:round;stroke-miterlimit:10;stroke-dasharray:none;stroke-opacity:1"
         d="m 903.945,612.66 523.425,176.844 348.95,158.031 348.94,118.445 523.42,354.9 872.37,469.28" /><path
         id="path310"
         style="fill:#0072bd;fill-opacity:1;fill-rule:nonzero;stroke:none"
         d="m 903.949,640.16 c 15.188,0 27.5,-12.316 27.5,-27.504 l 0,0 c 0,-15.187 -12.312,-27.504 -27.5,-27.504 -15.187,0 -27.504,12.317 -27.504,27.504 0,15.188 12.317,27.504 27.504,27.504 z m 0,4.992 c -17.949,0 -32.5,-14.547 -32.5,-32.496 0,-17.945 14.551,-32.496 32.5,-32.496 17.946,0 32.496,14.551 32.496,32.496 l 0,0 c 0,17.949 -14.55,32.496 -32.496,32.496" /><path
         id="path312"
         style="fill:#0072bd;fill-opacity:1;fill-rule:nonzero;stroke:none"
         d="m 1427.37,817.004 c 15.18,0 27.5,-12.316 27.5,-27.504 l 0,0 c 0,-15.187 -12.32,-27.504 -27.5,-27.504 -15.19,0 -27.5,12.317 -27.5,27.504 0,15.188 12.31,27.504 27.5,27.504 z m 0,4.992 c -17.95,0 -32.5,-14.547 -32.5,-32.496 0,-17.945 14.55,-32.496 32.5,-32.496 17.95,0 32.5,14.551 32.5,32.496 l 0,0 c 0,17.949 -14.55,32.496 -32.5,32.496" /><path
         id="path314"
         style="fill:#0072bd;fill-opacity:1;fill-rule:nonzero;stroke:none"
         d="m 1776.32,975.039 c 15.18,0 27.5,-12.312 27.5,-27.5 l 0,0 c 0,-15.187 -12.32,-27.504 -27.5,-27.504 -15.19,0 -27.51,12.317 -27.51,27.504 0,15.188 12.32,27.5 27.51,27.5 z m 0,4.996 c -17.95,0 -32.5,-14.551 -32.5,-32.496 0,-17.949 14.55,-32.5 32.5,-32.5 17.94,0 32.49,14.551 32.49,32.5 l 0,0 c 0,17.945 -14.55,32.496 -32.49,32.496" /><path
         id="path316"
         style="fill:#0072bd;fill-opacity:1;fill-rule:nonzero;stroke:none"
         d="m 2125.26,1093.48 c 15.19,0 27.51,-12.32 27.51,-27.51 l 0,0 c 0,-15.18 -12.32,-27.5 -27.51,-27.5 -15.19,0 -27.5,12.32 -27.5,27.5 0,15.19 12.31,27.51 27.5,27.51 z m 0,4.99 c -17.94,0 -32.49,-14.55 -32.49,-32.5 0,-17.94 14.55,-32.49 32.49,-32.49 17.95,0 32.5,14.55 32.5,32.49 l 0,0 c 0,17.95 -14.55,32.5 -32.5,32.5" /><path
         id="path318"
         style="fill:#0072bd;fill-opacity:1;fill-rule:nonzero;stroke:none"
         d="m 2648.68,1448.38 c 15.19,0 27.51,-12.32 27.51,-27.5 l 0,0 c 0,-15.19 -12.32,-27.51 -27.51,-27.51 -15.18,0 -27.5,12.32 -27.5,27.51 0,15.18 12.32,27.5 27.5,27.5 z m 0,4.99 c -17.94,0 -32.49,-14.55 -32.49,-32.49 0,-17.95 14.55,-32.5 32.49,-32.5 17.95,0 32.5,14.55 32.5,32.5 l 0,0 c 0,17.94 -14.55,32.49 -32.5,32.49" /><path
         id="path320"
         style="fill:#0072bd;fill-opacity:1;fill-rule:nonzero;stroke:none"
         d="m 3521.05,1917.66 c 15.19,0 27.5,-12.31 27.5,-27.5 l 0,0 c 0,-15.18 -12.31,-27.5 -27.5,-27.5 -15.19,0 -27.5,12.32 -27.5,27.5 0,15.19 12.31,27.5 27.5,27.5 z m 0,5 c -17.94,0 -32.5,-14.55 -32.5,-32.5 0,-17.95 14.56,-32.5 32.5,-32.5 17.95,0 32.5,14.55 32.5,32.5 l 0,0 c 0,17.95 -14.55,32.5 -32.5,32.5" /><path
         id="path322"
         style="fill:#0072bd;fill-opacity:1;fill-rule:nonzero;stroke:none"
         d="m 873.949,565.18 60,0" /><path
         id="path324"
         style="fill:none;stroke:#0072bd;stroke-width:5.00250006;stroke-linecap:butt;stroke-linejoin:miter;stroke-miterlimit:10;stroke-dasharray:none;stroke-opacity:1"
         d="m 873.949,565.18 60,0" /><path
         id="path326"
         style="fill:#0072bd;fill-opacity:1;fill-rule:nonzero;stroke:none"
         d="m 1397.37,660.348 60,0" /><path
         id="path328"
         style="fill:none;stroke:#0072bd;stroke-width:5.00250006;stroke-linecap:butt;stroke-linejoin:miter;stroke-miterlimit:10;stroke-dasharray:none;stroke-opacity:1"
         d="m 1397.37,660.348 60,0" /><path
         id="path330"
         style="fill:#0072bd;fill-opacity:1;fill-rule:nonzero;stroke:none"
         d="m 1746.32,734.73 60,0" /><path
         id="path332"
         style="fill:none;stroke:#0072bd;stroke-width:5.00250006;stroke-linecap:butt;stroke-linejoin:miter;stroke-miterlimit:10;stroke-dasharray:none;stroke-opacity:1"
         d="m 1746.32,734.73 60,0" /><path
         id="path334"
         style="fill:#0072bd;fill-opacity:1;fill-rule:nonzero;stroke:none"
         d="m 2095.26,785.723 60,0" /><path
         id="path336"
         style="fill:none;stroke:#0072bd;stroke-width:5.00250006;stroke-linecap:butt;stroke-linejoin:miter;stroke-miterlimit:10;stroke-dasharray:none;stroke-opacity:1"
         d="m 2095.26,785.723 60,0" /><path
         id="path338"
         style="fill:#0072bd;fill-opacity:1;fill-rule:nonzero;stroke:none"
         d="m 2618.68,971.723 60,0" /><path
         id="path340"
         style="fill:none;stroke:#0072bd;stroke-width:5.00250006;stroke-linecap:butt;stroke-linejoin:miter;stroke-miterlimit:10;stroke-dasharray:none;stroke-opacity:1"
         d="m 2618.68,971.723 60,0" /><path
         id="path342"
         style="fill:#0072bd;fill-opacity:1;fill-rule:nonzero;stroke:none"
         d="m 3491.05,1210.37 60,0" /><path
         id="path344"
         style="fill:none;stroke:#0072bd;stroke-width:5.00250006;stroke-linecap:butt;stroke-linejoin:miter;stroke-miterlimit:10;stroke-dasharray:none;stroke-opacity:1"
         d="m 3491.05,1210.37 60,0" /><path
         id="path346"
         style="fill:#0072bd;fill-opacity:1;fill-rule:nonzero;stroke:none"
         d="m 873.949,660.133 60,0" /><path
         id="path348"
         style="fill:none;stroke:#0072bd;stroke-width:5.00250006;stroke-linecap:butt;stroke-linejoin:miter;stroke-miterlimit:10;stroke-dasharray:none;stroke-opacity:1"
         d="m 873.949,660.133 60,0" /><path
         id="path350"
         style="fill:#0072bd;fill-opacity:1;fill-rule:nonzero;stroke:none"
         d="m 1397.37,918.652 60,0" /><path
         id="path352"
         style="fill:none;stroke:#0072bd;stroke-width:5.00250006;stroke-linecap:butt;stroke-linejoin:miter;stroke-miterlimit:10;stroke-dasharray:none;stroke-opacity:1"
         d="m 1397.37,918.652 60,0" /><path
         id="path354"
         style="fill:#0072bd;fill-opacity:1;fill-rule:nonzero;stroke:none"
         d="m 1746.32,1160.34 60,0" /><path
         id="path356"
         style="fill:none;stroke:#0072bd;stroke-width:5.00250006;stroke-linecap:butt;stroke-linejoin:miter;stroke-miterlimit:10;stroke-dasharray:none;stroke-opacity:1"
         d="m 1746.32,1160.34 60,0" /><path
         id="path358"
         style="fill:#0072bd;fill-opacity:1;fill-rule:nonzero;stroke:none"
         d="m 2095.26,1346.23 60,0" /><path
         id="path360"
         style="fill:none;stroke:#0072bd;stroke-width:5.00250006;stroke-linecap:butt;stroke-linejoin:miter;stroke-miterlimit:10;stroke-dasharray:none;stroke-opacity:1"
         d="m 2095.26,1346.23 60,0" /><path
         id="path362"
         style="fill:#0072bd;fill-opacity:1;fill-rule:nonzero;stroke:none"
         d="m 2618.68,1870.03 60,0" /><path
         id="path364"
         style="fill:none;stroke:#0072bd;stroke-width:5.00250006;stroke-linecap:butt;stroke-linejoin:miter;stroke-miterlimit:10;stroke-dasharray:none;stroke-opacity:1"
         d="m 2618.68,1870.03 60,0" /><path
         id="path366"
         style="fill:#0072bd;fill-opacity:1;fill-rule:nonzero;stroke:none"
         d="m 3491.05,2569.96 60,0" /><path
         id="path368"
         style="fill:none;stroke:#0072bd;stroke-width:5.00250006;stroke-linecap:butt;stroke-linejoin:miter;stroke-miterlimit:10;stroke-dasharray:none;stroke-opacity:1"
         d="m 3491.05,2569.96 60,0" /></g></g></svg>