<?xml version="1.0" encoding="UTF-8" standalone="no"?>
<svg
   xmlns:dc="http://purl.org/dc/elements/1.1/"
   xmlns:cc="http://creativecommons.org/ns#"
   xmlns:rdf="http://www.w3.org/1999/02/22-rdf-syntax-ns#"
   xmlns:svg="http://www.w3.org/2000/svg"
   xmlns="http://www.w3.org/2000/svg"
   viewBox="0 0 462.5 361.25"
   height="361.25"
   width="462.5"
   xml:space="preserve"
   version="1.1"
   id="svg2"><metadata
     id="metadata8"><rdf:RDF><cc:Work
         rdf:about=""><dc:format>image/svg+xml</dc:format><dc:type
           rdf:resource="http://purl.org/dc/dcmitype/StillImage" /></cc:Work></rdf:RDF></metadata><defs
     id="defs6" /><g
     transform="matrix(1.25,0,0,-1.25,0,361.25)"
     id="g10"><g
       transform="scale(0.1,0.1)"
       id="g12"><path
         id="path14"
         style="fill:#ffffff;fill-opacity:1;fill-rule:nonzero;stroke:none"
         d="m 0,0 4010,0 0,3110 L 0,3110 0,0 Z" /><path
         id="path16"
         style="fill:#ffffff;fill-opacity:1;fill-rule:nonzero;stroke:none"
         d="m 0,0 4010,0 0,3110 L 0,3110 0,0 Z" /><path
         id="path18"
         style="fill:#ffffff;fill-opacity:1;fill-rule:nonzero;stroke:none"
         d="m 357.5,305 3255,0 0,2572.5 -3255,0 0,-2572.5 z" /><path
         id="path20"
         style="fill:none;stroke:#dfdfdf;stroke-width:5.00250006;stroke-linecap:butt;stroke-linejoin:round;stroke-miterlimit:10;stroke-dasharray:none;stroke-opacity:1"
         d="m 357.5,305 0,2572.5" /><path
         id="path22"
         style="fill:none;stroke:#dfdfdf;stroke-width:5.00250006;stroke-linecap:butt;stroke-linejoin:round;stroke-miterlimit:10;stroke-dasharray:none;stroke-opacity:1"
         d="m 822.5,305 0,2572.5" /><path
         id="path24"
         style="fill:none;stroke:#dfdfdf;stroke-width:5.00250006;stroke-linecap:butt;stroke-linejoin:round;stroke-miterlimit:10;stroke-dasharray:none;stroke-opacity:1"
         d="m 1287.5,305 0,2572.5" /><path
         id="path26"
         style="fill:none;stroke:#dfdfdf;stroke-width:5.00250006;stroke-linecap:butt;stroke-linejoin:round;stroke-miterlimit:10;stroke-dasharray:none;stroke-opacity:1"
         d="m 1752.5,305 0,2572.5" /><path
         id="path28"
         style="fill:none;stroke:#dfdfdf;stroke-width:5.00250006;stroke-linecap:butt;stroke-linejoin:round;stroke-miterlimit:10;stroke-dasharray:none;stroke-opacity:1"
         d="m 2217.5,305 0,2572.5" /><path
         id="path30"
         style="fill:none;stroke:#dfdfdf;stroke-width:5.00250006;stroke-linecap:butt;stroke-linejoin:round;stroke-miterlimit:10;stroke-dasharray:none;stroke-opacity:1"
         d="m 2682.5,305 0,2572.5" /><path
         id="path32"
         style="fill:none;stroke:#dfdfdf;stroke-width:5.00250006;stroke-linecap:butt;stroke-linejoin:round;stroke-miterlimit:10;stroke-dasharray:none;stroke-opacity:1"
         d="m 3147.5,305 0,2572.5" /><path
         id="path34"
         style="fill:none;stroke:#dfdfdf;stroke-width:5.00250006;stroke-linecap:butt;stroke-linejoin:round;stroke-miterlimit:10;stroke-dasharray:none;stroke-opacity:1"
         d="m 3612.5,305 0,2572.5" /><path
         id="path36"
         style="fill:none;stroke:#dfdfdf;stroke-width:5.00250006;stroke-linecap:butt;stroke-linejoin:round;stroke-miterlimit:10;stroke-dasharray:none;stroke-opacity:1"
         d="m 3612.5,305 -3255,0" /><path
         id="path38"
         style="fill:none;stroke:#dfdfdf;stroke-width:5.00250006;stroke-linecap:butt;stroke-linejoin:round;stroke-miterlimit:10;stroke-dasharray:none;stroke-opacity:1"
         d="m 3612.5,772.73 -3255,0" /><path
         id="path40"
         style="fill:none;stroke:#dfdfdf;stroke-width:5.00250006;stroke-linecap:butt;stroke-linejoin:round;stroke-miterlimit:10;stroke-dasharray:none;stroke-opacity:1"
         d="m 3612.5,1240.45 -3255,0" /><path
         id="path42"
         style="fill:none;stroke:#dfdfdf;stroke-width:5.00250006;stroke-linecap:butt;stroke-linejoin:round;stroke-miterlimit:10;stroke-dasharray:none;stroke-opacity:1"
         d="m 3612.5,1708.18 -3255,0" /><path
         id="path44"
         style="fill:none;stroke:#dfdfdf;stroke-width:5.00250006;stroke-linecap:butt;stroke-linejoin:round;stroke-miterlimit:10;stroke-dasharray:none;stroke-opacity:1"
         d="m 3612.5,2175.91 -3255,0" /><path
         id="path46"
         style="fill:none;stroke:#dfdfdf;stroke-width:5.00250006;stroke-linecap:butt;stroke-linejoin:round;stroke-miterlimit:10;stroke-dasharray:none;stroke-opacity:1"
         d="m 3612.5,2643.64 -3255,0" /><path
         id="path48"
         style="fill:none;stroke:#262626;stroke-width:5.00250006;stroke-linecap:square;stroke-linejoin:round;stroke-miterlimit:10;stroke-dasharray:none;stroke-opacity:1"
         d="m 357.5,305 3255,0" /><path
         id="path50"
         style="fill:none;stroke:#262626;stroke-width:5.00250006;stroke-linecap:square;stroke-linejoin:round;stroke-miterlimit:10;stroke-dasharray:none;stroke-opacity:1"
         d="m 357.5,2877.5 3255,0" /><path
         id="path52"
         style="fill:none;stroke:#262626;stroke-width:5.00250006;stroke-linecap:square;stroke-linejoin:round;stroke-miterlimit:10;stroke-dasharray:none;stroke-opacity:1"
         d="m 357.5,305 0,32.551" /><path
         id="path54"
         style="fill:none;stroke:#262626;stroke-width:5.00250006;stroke-linecap:square;stroke-linejoin:round;stroke-miterlimit:10;stroke-dasharray:none;stroke-opacity:1"
         d="m 822.5,305 0,32.551" /><path
         id="path56"
         style="fill:none;stroke:#262626;stroke-width:5.00250006;stroke-linecap:square;stroke-linejoin:round;stroke-miterlimit:10;stroke-dasharray:none;stroke-opacity:1"
         d="m 1287.5,305 0,32.551" /><path
         id="path58"
         style="fill:none;stroke:#262626;stroke-width:5.00250006;stroke-linecap:square;stroke-linejoin:round;stroke-miterlimit:10;stroke-dasharray:none;stroke-opacity:1"
         d="m 1752.5,305 0,32.551" /><path
         id="path60"
         style="fill:none;stroke:#262626;stroke-width:5.00250006;stroke-linecap:square;stroke-linejoin:round;stroke-miterlimit:10;stroke-dasharray:none;stroke-opacity:1"
         d="m 2217.5,305 0,32.551" /><path
         id="path62"
         style="fill:none;stroke:#262626;stroke-width:5.00250006;stroke-linecap:square;stroke-linejoin:round;stroke-miterlimit:10;stroke-dasharray:none;stroke-opacity:1"
         d="m 2682.5,305 0,32.551" /><path
         id="path64"
         style="fill:none;stroke:#262626;stroke-width:5.00250006;stroke-linecap:square;stroke-linejoin:round;stroke-miterlimit:10;stroke-dasharray:none;stroke-opacity:1"
         d="m 3147.5,305 0,32.551" /><path
         id="path66"
         style="fill:none;stroke:#262626;stroke-width:5.00250006;stroke-linecap:square;stroke-linejoin:round;stroke-miterlimit:10;stroke-dasharray:none;stroke-opacity:1"
         d="m 3612.5,305 0,32.551" /><path
         id="path68"
         style="fill:none;stroke:#262626;stroke-width:5.00250006;stroke-linecap:square;stroke-linejoin:round;stroke-miterlimit:10;stroke-dasharray:none;stroke-opacity:1"
         d="m 357.5,2877.5 0,-32.55" /><path
         id="path70"
         style="fill:none;stroke:#262626;stroke-width:5.00250006;stroke-linecap:square;stroke-linejoin:round;stroke-miterlimit:10;stroke-dasharray:none;stroke-opacity:1"
         d="m 822.5,2877.5 0,-32.55" /><path
         id="path72"
         style="fill:none;stroke:#262626;stroke-width:5.00250006;stroke-linecap:square;stroke-linejoin:round;stroke-miterlimit:10;stroke-dasharray:none;stroke-opacity:1"
         d="m 1287.5,2877.5 0,-32.55" /><path
         id="path74"
         style="fill:none;stroke:#262626;stroke-width:5.00250006;stroke-linecap:square;stroke-linejoin:round;stroke-miterlimit:10;stroke-dasharray:none;stroke-opacity:1"
         d="m 1752.5,2877.5 0,-32.55" /><path
         id="path76"
         style="fill:none;stroke:#262626;stroke-width:5.00250006;stroke-linecap:square;stroke-linejoin:round;stroke-miterlimit:10;stroke-dasharray:none;stroke-opacity:1"
         d="m 2217.5,2877.5 0,-32.55" /><path
         id="path78"
         style="fill:none;stroke:#262626;stroke-width:5.00250006;stroke-linecap:square;stroke-linejoin:round;stroke-miterlimit:10;stroke-dasharray:none;stroke-opacity:1"
         d="m 2682.5,2877.5 0,-32.55" /><path
         id="path80"
         style="fill:none;stroke:#262626;stroke-width:5.00250006;stroke-linecap:square;stroke-linejoin:round;stroke-miterlimit:10;stroke-dasharray:none;stroke-opacity:1"
         d="m 3147.5,2877.5 0,-32.55" /><path
         id="path82"
         style="fill:none;stroke:#262626;stroke-width:5.00250006;stroke-linecap:square;stroke-linejoin:round;stroke-miterlimit:10;stroke-dasharray:none;stroke-opacity:1"
         d="m 3612.5,2877.5 0,-32.55" /><g
         transform="scale(10,10)"
         id="g84"><text
           id="text86"
           style="font-variant:normal;font-weight:normal;font-size:9.99975014px;font-family:Helvetica;-inkscape-font-specification:Helvetica;writing-mode:lr-tb;fill:#262626;fill-opacity:1;fill-rule:nonzero;stroke:none"
           transform="matrix(1,0,0,-1,32.375,16.75)"><tspan
             id="tspan88"
             y="0"
             x="0 43.500011 49.059872 86.625031 92.184898 97.744759 133.12508 138.68494 144.2448 179.62511 185.18497 190.74483 226.12515 231.68501 237.24487 272.62518 278.18506 283.7449 319.12521 324.68509 330.24493">050100150200250300350</tspan></text>
<text
           id="text90"
           style="font-variant:normal;font-weight:normal;font-size:11.00020027px;font-family:Helvetica;-inkscape-font-specification:Helvetica;writing-mode:lr-tb;fill:#262626;fill-opacity:1;fill-rule:nonzero;stroke:none"
           transform="matrix(1,0,0,-1,150.875,2.25)"><tspan
             id="tspan92"
             y="0"
             x="0 7.9421444 10.384189 15.884289 21.384388 25.047455 31.163567 34.221622 40.337734 43.39579 50.116913 52.558956 61.722122 67.838234 70.896286 73.954346 79.454445">Discrete Time [k]</tspan></text>
</g><path
         id="path94"
         style="fill:none;stroke:#262626;stroke-width:5.00250006;stroke-linecap:square;stroke-linejoin:round;stroke-miterlimit:10;stroke-dasharray:none;stroke-opacity:1"
         d="m 357.5,305 0,2572.5" /><path
         id="path96"
         style="fill:none;stroke:#262626;stroke-width:5.00250006;stroke-linecap:square;stroke-linejoin:round;stroke-miterlimit:10;stroke-dasharray:none;stroke-opacity:1"
         d="m 3612.5,305 0,2572.5" /><path
         id="path98"
         style="fill:none;stroke:#262626;stroke-width:5.00250006;stroke-linecap:square;stroke-linejoin:round;stroke-miterlimit:10;stroke-dasharray:none;stroke-opacity:1"
         d="m 357.5,305 32.551,0" /><path
         id="path100"
         style="fill:none;stroke:#262626;stroke-width:5.00250006;stroke-linecap:square;stroke-linejoin:round;stroke-miterlimit:10;stroke-dasharray:none;stroke-opacity:1"
         d="m 357.5,772.73 32.551,0" /><path
         id="path102"
         style="fill:none;stroke:#262626;stroke-width:5.00250006;stroke-linecap:square;stroke-linejoin:round;stroke-miterlimit:10;stroke-dasharray:none;stroke-opacity:1"
         d="m 357.5,1240.45 32.551,0" /><path
         id="path104"
         style="fill:none;stroke:#262626;stroke-width:5.00250006;stroke-linecap:square;stroke-linejoin:round;stroke-miterlimit:10;stroke-dasharray:none;stroke-opacity:1"
         d="m 357.5,1708.18 32.551,0" /><path
         id="path106"
         style="fill:none;stroke:#262626;stroke-width:5.00250006;stroke-linecap:square;stroke-linejoin:round;stroke-miterlimit:10;stroke-dasharray:none;stroke-opacity:1"
         d="m 357.5,2175.91 32.551,0" /><path
         id="path108"
         style="fill:none;stroke:#262626;stroke-width:5.00250006;stroke-linecap:square;stroke-linejoin:round;stroke-miterlimit:10;stroke-dasharray:none;stroke-opacity:1"
         d="m 357.5,2643.64 32.551,0" /><path
         id="path110"
         style="fill:none;stroke:#262626;stroke-width:5.00250006;stroke-linecap:square;stroke-linejoin:round;stroke-miterlimit:10;stroke-dasharray:none;stroke-opacity:1"
         d="m 3612.5,305 -32.55,0" /><path
         id="path112"
         style="fill:none;stroke:#262626;stroke-width:5.00250006;stroke-linecap:square;stroke-linejoin:round;stroke-miterlimit:10;stroke-dasharray:none;stroke-opacity:1"
         d="m 3612.5,772.73 -32.55,0" /><path
         id="path114"
         style="fill:none;stroke:#262626;stroke-width:5.00250006;stroke-linecap:square;stroke-linejoin:round;stroke-miterlimit:10;stroke-dasharray:none;stroke-opacity:1"
         d="m 3612.5,1240.45 -32.55,0" /><path
         id="path116"
         style="fill:none;stroke:#262626;stroke-width:5.00250006;stroke-linecap:square;stroke-linejoin:round;stroke-miterlimit:10;stroke-dasharray:none;stroke-opacity:1"
         d="m 3612.5,1708.18 -32.55,0" /><path
         id="path118"
         style="fill:none;stroke:#262626;stroke-width:5.00250006;stroke-linecap:square;stroke-linejoin:round;stroke-miterlimit:10;stroke-dasharray:none;stroke-opacity:1"
         d="m 3612.5,2175.91 -32.55,0" /><path
         id="path120"
         style="fill:none;stroke:#262626;stroke-width:5.00250006;stroke-linecap:square;stroke-linejoin:round;stroke-miterlimit:10;stroke-dasharray:none;stroke-opacity:1"
         d="m 3612.5,2643.64 -32.55,0" /><g
         transform="scale(10,10)"
         id="g122"><text
           id="text124"
           style="font-variant:normal;font-weight:normal;font-size:9.99975014px;font-family:Helvetica;-inkscape-font-specification:Helvetica;writing-mode:lr-tb;fill:#262626;fill-opacity:1;fill-rule:nonzero;stroke:none"
           transform="matrix(1,0,0,-1,25,27.125)"><tspan
             id="tspan126"
             y="0"
             x="0">0</tspan><tspan
             id="tspan128"
             y="-46.772701"
             x="-9.75 -4.1901388 -1.4102085">0.2</tspan><tspan
             id="tspan130"
             y="-93.545403"
             x="-9.75 -4.1901388 -1.4102085">0.4</tspan><tspan
             id="tspan132"
             y="-140.31841"
             x="-9.75 -4.1901388 -1.4102085">0.6</tspan><tspan
             id="tspan134"
             y="-187.09109"
             x="-9.75 -4.1901388 -1.4102085">0.8</tspan><tspan
             id="tspan136"
             y="-233.8638"
             x="0">1</tspan></text>
<text
           id="text138"
           style="font-variant:normal;font-weight:normal;font-size:11.00020027px;font-family:Helvetica;-inkscape-font-specification:Helvetica;writing-mode:lr-tb;fill:#262626;fill-opacity:1;fill-rule:nonzero;stroke:none"
           transform="matrix(0,1,1,0,9.25,92.75)"><tspan
             id="tspan140"
             y="0"
             x="0 7.3371334 13.453244 19.569355 25.685467 28.743523 31.801579 34.859634 40.975746 44.033802 50.14991 53.812977 62.976147 69.092255 72.150314 74.592354 80.708466 86.824577 89.882637 97.219765 100.27782 106.39394 109.45199">Agent Information State</tspan></text>
</g><path
         id="path142"
         style="fill:none;stroke:#0072bd;stroke-width:5.00250006;stroke-linecap:butt;stroke-linejoin:round;stroke-miterlimit:10;stroke-dasharray:none;stroke-opacity:1"
         d="m 366.801,1464.13 9.301,0 9.296,94.36 9.301,86.81 9.301,79.87 9.301,0 9.301,0 9.296,0 9.301,0 9.301,0 9.301,0 9.301,0 9.296,73.48 9.301,67.6 9.301,62.18 9.301,0 9.301,57.22 9.296,52.65 9.301,48.42 9.301,0 9.301,0 9.301,0 9.296,1.88 9.301,0 9.301,0 9.301,0 9.301,44.4 9.296,40.85 9.301,0 9.301,0 9.301,0 9.301,37.58 9.296,0 9.301,3.16 9.301,34.32 9.301,31.58 9.301,29.05 9.296,26.73 9.301,24.59 9.301,22.62 9.301,20.82 9.301,19.14 9.296,17.61 9.301,0 9.301,0 9.301,0 9.301,0 9.296,0 9.301,0 9.301,0 9.301,16.21 9.301,14.91 9.296,0 9.301,13.72 9.301,0 9.301,0 9.301,12.62 9.296,0 9.301,0 9.301,0 9.301,11.61 9.301,10.68 9.296,9.83 9.301,0 9.301,0 9.301,0 9.301,9.04 9.296,8.32 9.301,-3.15 9.301,7.91 9.3,0 9.3,0 9.3,0 9.3,0 9.3,0 9.3,7.27 9.3,0 9.3,6.69 9.3,6.15 9.3,0 9.3,5.67 9.3,0 9.3,0 9.3,0 9.3,0 9.3,5.2 9.3,0 9.3,4.79 9.3,4.41 9.3,4.06 9.3,0 9.3,0 9.3,3.74 9.3,0 9.3,0 9.3,3.43 9.3,0 9.3,0 9.3,3.15 9.3,2.91 9.3,2.67 9.3,0 9.3,0 9.3,0 9.3,1.38 9.3,0 9.3,2.36 9.3,0 9.3,0 9.3,2.16 9.3,0 9.3,1.98 9.3,0 9.3,1.84 9.3,0 9.3,0 9.3,1.68 9.3,0 9.3,0 9.3,0 9.3,0 9.3,0 9.3,0 9.3,0 9.3,0 9.3,0 9.3,1.54 9.3,1.42 9.3,0 9.3,0 9.3,0 9.3,1.32 9.3,1.2 9.3,0 9.3,0 9.3,0 9.3,0 9.3,0 9.3,0 9.3,1.12 9.3,1.02 9.3,0 9.3,0 9.3,0 9.3,0 9.3,0 9.3,0 9.3,0 9.3,0.99 9.3,0.87 9.3,0 9.3,0 9.3,0.78 9.3,0 9.3,0.73 9.3,0 9.3,0 9.3,0.67 9.3,0.61 9.3,0.56 9.3,0.52 9.3,0.47 9.3,0 9.3,0 9.3,-0.02 9.3,0.45 9.3,0.4 9.3,0 9.3,0.38 9.3,0.34 9.3,-0.04 9.3,0.33 9.3,0 9.3,0 9.3,0.29 9.3,0.27 9.3,0 9.3,0.25 9.3,0.23 9.3,0 9.3,0 9.3,0 9.3,0.22 9.3,0 9.3,0 9.3,-0.07 9.3,0 9.3,0.2 9.3,0.18 9.3,0.17 9.3,0.16 9.3,0.14 9.3,0.13 9.3,0.12 9.3,0 9.3,-0.09 9.3,0 9.3,0.12 9.3,0 9.3,0.11 9.3,0.1 9.3,0.09 9.3,0.09 9.3,0 9.3,0 9.3,0 9.3,0.07 9.3,0 9.3,-0.05 9.3,-0.06 9.3,-0.05 9.3,0 9.3,0 9.3,0 9.3,0 9.3,0 9.3,0.08 9.3,0 9.3,0.08 9.3,0.07 9.3,0.07 9.3,0.06 9.3,0.06 9.3,0.05 9.3,0.05 9.3,0.04 9.3,-0.04 9.3,0.04 9.3,0.04 9.3,0 9.3,0 9.3,0.04 9.3,0 9.3,0 9.3,0 9.3,0 9.3,0 9.3,0 9.3,0 9.3,0.04 9.3,-0.04 9.3,0 9.3,0 9.3,0 9.3,-0.04 9.3,0 9.3,0 9.3,0 9.3,-0.02 9.3,0 9.3,0 9.3,0 9.3,0 9.3,0 9.3,0 9.3,0 9.3,0 9.3,0.03 9.3,0 9.3,0.04 9.3,0 9.3,0.03 9.3,0 9.3,0 9.3,0.04 9.3,0.02 9.3,0.03 9.3,0 9.3,0 9.3,0 9.3,0 9.3,0 9.3,0.02 9.3,0.03 9.3,0.01 9.3,0.03 9.3,0 9.3,0 9.3,0.01 9.3,0.02 9.3,0 9.3,0 9.3,0 9.3,0 9.3,0 9.3,0.01 9.3,0 9.3,0.01 9.3,0 9.3,0.02 9.3,0.01 9.3,0 9.3,0.01 9.3,0.01 9.3,0.01 9.3,0.01 9.3,0 9.3,0 9.3,0 9.3,0 9.3,0.01 9.3,0 9.3,0 9.3,0 9.3,0 9.3,0.01 9.3,0 9.3,0 9.3,0 9.3,0 9.3,0 9.3,0.01 9.3,0.01 9.3,0 9.3,0 9.3,0 9.3,0 9.3,0.01 9.3,0 9.3,0 9.3,0 9.3,0.01 9.3,0 9.3,0 9.3,0 9.3,0 9.3,0 9.3,0 9.3,0 9.3,0 9.3,0 9.3,0 9.3,0.01 9.3,0 9.3,0 9.3,0 9.3,0 9.3,0 9.3,0 9.3,0 9.3,0 9.3,0 9.3,0 9.3,0 9.3,0 9.3,0.01 9.3,0 9.3,0 9.3,0 9.3,0" /><path
         id="path144"
         style="fill:none;stroke:#d95319;stroke-width:5.00250006;stroke-linecap:butt;stroke-linejoin:round;stroke-miterlimit:10;stroke-dasharray:none;stroke-opacity:1"
         d="m 366.801,1828.31 65.097,0 9.301,65.23 9.301,60.01 9.301,0 9.301,55.2 9.296,0 9.301,0 9.301,0 9.301,0 9.301,0 9.296,50.79 9.301,0 9.301,0 9.301,46.73 9.301,43 9.296,-1.89 9.301,0 9.301,0 9.301,0 9.301,39.71 9.296,36.52 9.301,0 9.301,33.6 9.301,0 9.301,30.92 9.296,28.44 9.301,-3.16 9.301,0 9.301,0 9.301,0 9.296,0 9.301,0 9.301,0 9.301,0 9.301,0 9.296,0 9.301,0 9.301,0 9.301,0 9.301,0 9.296,0 9.301,0 9.301,26.42 9.301,0 9.301,0 9.296,0 9.301,0 9.301,0 9.301,0 9.301,0 9.296,24.3 9.301,22.37 9.301,20.56 9.301,0 9.301,0 9.296,18.93 9.301,17.41 9.301,0 9.301,0 9.301,0 9.296,0 9.301,3.14 9.301,0 9.3,0 9.3,15.77 9.3,14.5 9.3,13.35 9.3,12.28 9.3,0 9.3,0 9.3,0 9.3,0 9.3,0 9.3,0 9.3,0 9.3,0 9.3,0 9.3,11.29 9.3,0 9.3,0 9.3,10.4 9.3,0 9.3,9.55 9.3,8.8 9.3,0 9.3,0 9.3,8.09 9.3,7.45 9.3,0 9.3,0 9.3,0 9.3,0 9.3,6.85 9.3,6.3 9.3,0 9.3,0 9.3,5.8 9.3,6.41 9.3,4.82 9.3,4.44 9.3,4.07 9.3,3.75 9.3,0 9.3,0 9.3,3.46 9.3,0 9.3,0 9.3,3.18 9.3,0 9.3,0 9.3,2.92 9.3,0 9.3,2.69 9.3,0 9.3,0 9.3,0 9.3,0 9.3,2.48 9.3,2.27 9.3,2.09 9.3,0 9.3,1.93 9.3,1.78 9.3,1.63 9.3,0 9.3,1.5 9.3,0 9.3,1.38 9.3,0 9.3,0 9.3,1.26 9.3,1.17 9.3,0 9.3,1.07 9.3,0 9.3,0 9.3,0 9.3,0 9.3,1 9.3,0.9 9.3,0.84 9.3,0.71 9.3,0 9.3,0 9.3,0 9.3,0 9.3,0.71 9.3,0 9.3,0 9.3,0 9.3,0.66 9.3,0 9.3,0.62 9.3,0 9.3,0 9.3,0 9.3,0.55 9.3,0.03 9.3,0 9.3,0.5 9.3,0 9.3,0.48 9.3,0 9.3,0.03 9.3,0 9.3,0 9.3,0.43 9.3,0 9.3,0 9.3,0 9.3,0 9.3,0 9.3,0.39 9.3,0 9.3,0 9.3,0 9.3,0 9.3,0 9.3,0.07 9.3,0 9.3,0 9.3,0 9.3,0 9.3,0 9.3,0 9.3,0 9.3,0 9.3,0 9.3,0.09 9.3,0 9.3,0.34 9.3,0.33 9.3,0.3 9.3,0 9.3,0 9.3,0 9.3,0 9.3,0.27 9.3,0.24 9.3,0 9.3,0 9.3,0.06 9.3,0.06 9.3,0.05 9.3,0 9.3,0.21 9.3,0.21 9.3,0 9.3,0 9.3,0 9.3,0.18 9.3,0.17 9.3,0 9.3,0 9.3,0 9.3,0 9.3,0 9.3,0 9.3,0 9.3,0.04 9.3,0 9.3,0 9.3,0 9.3,0 9.3,0 9.3,0 9.3,0 9.3,0 9.3,0.15 9.3,0 9.3,0 9.3,0 9.3,0 9.3,0.04 9.3,0.14 9.3,0 9.3,0 9.3,0.04 9.3,0.12 9.3,0.11 9.3,0.1 9.3,0.02 9.3,0 9.3,0.09 9.3,0 9.3,0 9.3,0.09 9.3,0.09 9.3,0 9.3,0.07 9.3,0 9.3,0 9.3,0.06 9.3,0 9.3,0 9.3,0.06 9.3,0.06 9.3,0.06 9.3,0.04 9.3,0 9.3,0 9.3,0.05 9.3,0.04 9.3,0.04 9.3,0 9.3,0.03 9.3,0.03 9.3,0.03 9.3,0.03 9.3,0.02 9.3,0.02 9.3,0 9.3,0 9.3,0.02 9.3,0.03 9.3,0.01 9.3,0 9.3,0 9.3,0.02 9.3,0.01 9.3,0.02 9.3,0 9.3,0 9.3,0 9.3,0 9.3,0 9.3,0 9.3,0.01 9.3,0.01 9.3,0 9.3,0.02 9.3,0 9.3,0.01 9.3,0 9.3,0 9.3,0 9.3,0 9.3,0 9.3,0 9.3,0.01 9.3,0 9.3,0 9.3,0.01 9.3,0 9.3,0 9.3,0 9.3,0.01 9.3,0.01 9.3,0 9.3,0 9.3,0 9.3,0 9.3,0 9.3,0.01 9.3,0 9.3,0.01 9.3,0 9.3,0 9.3,0 9.3,0 9.3,0 9.3,0.01 9.3,0 9.3,0 9.3,0 9.3,0 9.3,0 9.3,0 9.3,0 9.3,0.01 9.3,0 9.3,0 9.3,0 9.3,0 9.3,0 9.3,0 9.3,0 9.3,0 9.3,0 9.3,0 9.3,0.01 9.3,0 9.3,0" /><path
         id="path146"
         style="fill:none;stroke:#ff0000;stroke-width:5.00250006;stroke-linecap:butt;stroke-linejoin:bevel;stroke-miterlimit:10;stroke-dasharray:75, 45;stroke-dashoffset:0;stroke-opacity:1"
         d="m 366.801,2643.64 3245.699,0" /><path
         id="path148"
         style="fill:#ffffff;fill-opacity:1;fill-rule:nonzero;stroke:none"
         d="m 3050,387.5 480,0 0,487.5 -480,0 0,-487.5 z" /><path
         id="path150"
         style="fill:#000000;fill-opacity:1;fill-rule:nonzero;stroke:none"
         d="m 3418.44,748.438 c 0.15,0.703 0.58,1.058 1.29,1.058 0.08,0 0.59,-0.297 1.52,-0.887 0.94,-0.586 1.92,-1.113 2.93,-1.582 1.02,-0.464 2.15,-0.699 3.4,-0.699 1.33,0 2.42,0.606 3.28,1.817 0.86,1.21 1.29,2.519 1.29,3.921 0,1.332 -0.45,2.485 -1.35,3.457 -0.9,0.981 -2.05,1.704 -3.45,2.168 l -9.14,3.055 c -3.75,1.324 -6.63,3.395 -8.62,6.207 -1.99,2.813 -2.99,6.25 -2.99,10.313 0,3.437 0.63,7.109 1.88,11.019 1.25,3.906 2.97,7.672 5.15,11.301 2.19,3.637 4.73,6.918 7.62,9.848 2.89,2.929 5.9,5.214 9.02,6.855 -0.62,1.172 -0.93,2.574 -0.93,4.215 0,3.285 0.62,4.93 1.87,4.93 0.31,0 0.59,-0.118 0.83,-0.356 0.23,-0.234 0.34,-0.508 0.34,-0.824 0,-0.465 -0.08,-1.145 -0.23,-2.047 -0.16,-0.898 -0.24,-1.469 -0.24,-1.703 0,-1.09 0.2,-2.141 0.59,-3.156 1.57,0.625 3.01,0.937 4.34,0.937 5.46,0 8.2,-0.859 8.2,-2.582 0,-2.027 -3.05,-3.043 -9.14,-3.043 -1.8,0 -3.24,0.543 -4.34,1.637 -2.58,-1.488 -5.06,-3.535 -7.44,-6.152 -2.38,-2.614 -4.49,-5.567 -6.33,-8.848 -1.83,-3.281 -3.26,-6.602 -4.27,-9.961 -1.02,-3.359 -1.52,-6.563 -1.52,-9.609 0,-6.403 2.93,-10.661 8.79,-12.774 l 9.6,-3.164 c 2.03,-0.625 3.69,-1.699 4.98,-3.223 1.29,-1.527 1.94,-3.382 1.94,-5.566 0,-1.719 -0.45,-3.441 -1.35,-5.16 -0.9,-1.715 -2.1,-3.121 -3.58,-4.215 -1.48,-1.094 -3.12,-1.641 -4.92,-1.641 -1.48,0 -3.36,0.489 -5.62,1.469 -2.27,0.973 -3.4,1.969 -3.4,2.985 z m 15.7,67.035 c -0.08,0 0.16,-0.118 0.71,-0.352 0.31,0 0.54,-0.019 0.7,-0.062 0.16,-0.039 0.35,-0.059 0.58,-0.059 2.82,0 4.85,0.156 6.1,0.473 -1.1,0.23 -2.89,0.343 -5.39,0.343 -0.86,0 -1.76,-0.113 -2.7,-0.343" /><g
         transform="scale(10,10)"
         id="g152"><text
           id="text154"
           style="font-variant:normal;font-weight:normal;font-size:7.19999981px;font-family:Helvetica;-inkscape-font-specification:Helvetica;writing-mode:lr-tb;fill:#000000;fill-opacity:1;fill-rule:nonzero;stroke:none"
           transform="matrix(1,0,0,-1,344.75,71.75)"><tspan
             id="tspan156"
             y="0"
             x="0">1</tspan></text>
</g><path
         id="path158"
         style="fill:none;stroke:#0072bd;stroke-width:5.00250006;stroke-linecap:butt;stroke-linejoin:round;stroke-miterlimit:10;stroke-dasharray:none;stroke-opacity:1"
         d="m 3080,781.25 300,0" /><path
         id="path160"
         style="fill:#000000;fill-opacity:1;fill-rule:nonzero;stroke:none"
         d="m 3418.44,590.938 c 0.15,0.703 0.58,1.058 1.29,1.058 0.08,0 0.59,-0.297 1.52,-0.887 0.94,-0.586 1.92,-1.113 2.93,-1.582 1.02,-0.464 2.15,-0.699 3.4,-0.699 1.33,0 2.42,0.606 3.28,1.817 0.86,1.21 1.29,2.519 1.29,3.921 0,1.332 -0.45,2.485 -1.35,3.457 -0.9,0.981 -2.05,1.704 -3.45,2.168 l -9.14,3.055 c -3.75,1.324 -6.63,3.395 -8.62,6.207 -1.99,2.813 -2.99,6.25 -2.99,10.313 0,3.437 0.63,7.109 1.88,11.019 1.25,3.906 2.97,7.672 5.15,11.301 2.19,3.637 4.73,6.918 7.62,9.848 2.89,2.929 5.9,5.214 9.02,6.855 -0.62,1.172 -0.93,2.574 -0.93,4.215 0,3.285 0.62,4.93 1.87,4.93 0.31,0 0.59,-0.118 0.83,-0.356 0.23,-0.234 0.34,-0.508 0.34,-0.824 0,-0.465 -0.08,-1.145 -0.23,-2.047 -0.16,-0.898 -0.24,-1.469 -0.24,-1.703 0,-1.09 0.2,-2.141 0.59,-3.156 1.57,0.625 3.01,0.937 4.34,0.937 5.46,0 8.2,-0.859 8.2,-2.582 0,-2.027 -3.05,-3.043 -9.14,-3.043 -1.8,0 -3.24,0.543 -4.34,1.637 -2.58,-1.488 -5.06,-3.535 -7.44,-6.152 -2.38,-2.614 -4.49,-5.567 -6.33,-8.848 -1.83,-3.281 -3.26,-6.602 -4.27,-9.961 -1.02,-3.359 -1.52,-6.563 -1.52,-9.609 0,-6.403 2.93,-10.661 8.79,-12.774 l 9.6,-3.164 c 2.03,-0.625 3.69,-1.699 4.98,-3.223 1.29,-1.527 1.94,-3.382 1.94,-5.566 0,-1.719 -0.45,-3.441 -1.35,-5.16 -0.9,-1.715 -2.1,-3.121 -3.58,-4.215 -1.48,-1.094 -3.12,-1.641 -4.92,-1.641 -1.48,0 -3.36,0.489 -5.62,1.469 -2.27,0.973 -3.4,1.969 -3.4,2.985 z m 15.7,67.035 c -0.08,0 0.16,-0.118 0.71,-0.352 0.31,0 0.54,-0.019 0.7,-0.062 0.16,-0.039 0.35,-0.059 0.58,-0.059 2.82,0 4.85,0.156 6.1,0.473 -1.1,0.23 -2.89,0.343 -5.39,0.343 -0.86,0 -1.76,-0.113 -2.7,-0.343" /><g
         transform="scale(10,10)"
         id="g162"><text
           id="text164"
           style="font-variant:normal;font-weight:normal;font-size:7.19999981px;font-family:Helvetica;-inkscape-font-specification:Helvetica;writing-mode:lr-tb;fill:#000000;fill-opacity:1;fill-rule:nonzero;stroke:none"
           transform="matrix(1,0,0,-1,344.75,56)"><tspan
             id="tspan166"
             y="0"
             x="0">2</tspan></text>
</g><path
         id="path168"
         style="fill:none;stroke:#d95319;stroke-width:5.00250006;stroke-linecap:butt;stroke-linejoin:round;stroke-miterlimit:10;stroke-dasharray:none;stroke-opacity:1"
         d="m 3080,620 300,0" /><path
         id="path170"
         style="fill:#000000;fill-opacity:1;fill-rule:nonzero;stroke:none"
         d="m 3418.44,410.938 c 0.15,0.703 0.58,1.058 1.29,1.058 0.08,0 0.59,-0.297 1.52,-0.887 0.94,-0.586 1.92,-1.113 2.93,-1.582 1.02,-0.464 2.15,-0.699 3.4,-0.699 1.33,0 2.42,0.606 3.28,1.817 0.86,1.21 1.29,2.519 1.29,3.921 0,1.332 -0.45,2.485 -1.35,3.457 -0.9,0.981 -2.05,1.704 -3.45,2.168 l -9.14,3.055 c -3.75,1.324 -6.63,3.395 -8.62,6.207 -1.99,2.813 -2.99,6.25 -2.99,10.313 0,3.437 0.63,7.109 1.88,11.019 1.25,3.906 2.97,7.672 5.15,11.301 2.19,3.637 4.73,6.918 7.62,9.848 2.89,2.929 5.9,5.214 9.02,6.855 -0.62,1.172 -0.93,2.574 -0.93,4.215 0,3.285 0.62,4.93 1.87,4.93 0.31,0 0.59,-0.118 0.83,-0.356 0.23,-0.234 0.34,-0.508 0.34,-0.824 0,-0.465 -0.08,-1.145 -0.23,-2.047 -0.16,-0.898 -0.24,-1.469 -0.24,-1.703 0,-1.09 0.2,-2.141 0.59,-3.156 1.57,0.625 3.01,0.937 4.34,0.937 5.46,0 8.2,-0.859 8.2,-2.582 0,-2.027 -3.05,-3.043 -9.14,-3.043 -1.8,0 -3.24,0.543 -4.34,1.637 -2.58,-1.488 -5.06,-3.535 -7.44,-6.152 -2.38,-2.614 -4.49,-5.567 -6.33,-8.848 -1.83,-3.281 -3.26,-6.602 -4.27,-9.961 -1.02,-3.359 -1.52,-6.563 -1.52,-9.609 0,-6.403 2.93,-10.661 8.79,-12.774 l 9.6,-3.164 c 2.03,-0.625 3.69,-1.699 4.98,-3.223 1.29,-1.527 1.94,-3.382 1.94,-5.566 0,-1.719 -0.45,-3.441 -1.35,-5.16 -0.9,-1.715 -2.1,-3.121 -3.58,-4.215 -1.48,-1.094 -3.12,-1.641 -4.92,-1.641 -1.48,0 -3.36,0.489 -5.62,1.469 -2.27,0.973 -3.4,1.969 -3.4,2.985 z m 15.7,67.035 c -0.08,0 0.16,-0.118 0.71,-0.352 0.31,0 0.54,-0.019 0.7,-0.062 0.16,-0.039 0.35,-0.059 0.58,-0.059 2.82,0 4.85,0.156 6.1,0.473 -1.1,0.23 -2.89,0.343 -5.39,0.343 -0.86,0 -1.76,-0.113 -2.7,-0.343" /><g
         transform="scale(10,10)"
         id="g172"><text
           id="text174"
           style="font-variant:normal;font-weight:normal;font-size:7.19999981px;font-family:Helvetica;-inkscape-font-specification:Helvetica;writing-mode:lr-tb;fill:#000000;fill-opacity:1;fill-rule:nonzero;stroke:none"
           transform="matrix(1,0,0,-1,344.75,47)"><tspan
             id="tspan176"
             y="0"
             x="0">r</tspan></text>
</g><path
         id="path178"
         style="fill:none;stroke:#ff0000;stroke-width:5.00250006;stroke-linecap:butt;stroke-linejoin:bevel;stroke-miterlimit:10;stroke-dasharray:75, 45;stroke-dashoffset:0;stroke-opacity:1"
         d="m 3080,470 300,0" /><path
         id="path180"
         style="fill:none;stroke:#262626;stroke-width:5.00250006;stroke-linecap:butt;stroke-linejoin:miter;stroke-miterlimit:10;stroke-dasharray:none;stroke-opacity:1"
         d="m 3050,387.5 480,0 0,487.5 -480,0 0,-487.5 z" /></g></g></svg>